{
.appVersion = "3150";
.formatVersion = 3;
axes = (
{
name = Weight;
tag = wght;
}
);
classes = (
{
automatic = 1;
code = "A Aacute Abreve Acircumflex Adieresis Agrave Amacron Aogonek Aring Atilde AE B C Cacute Ccaron Ccedilla Cdotaccent D Eth Dcaron Dcroat E Eacute Ecaron Ecircumflex Edieresis Edotaccent Egrave Emacron Eogonek F G Gbreve Gcommaaccent Gdotaccent H Hbar I IJ Iacute Icircumflex Idieresis Idotaccent Igrave Imacron Iogonek J K Kcommaaccent L Lacute Lcaron Lcommaaccent Lslash M N Nacute Ncaron Ncommaaccent Ntilde Eng O Oacute Ocircumflex Odieresis Ograve Ohungarumlaut Omacron Oslash Otilde OE P Thorn Q R Racute Rcaron Rcommaaccent S Sacute Scaron Scedilla Scommaaccent Germandbls T Tcaron Tcommaaccent U Uacute Ubreve Ucircumflex Udieresis Ugrave Uhungarumlaut Umacron Uogonek Uring V W Wacute Wcircumflex Wdieresis Wgrave X Y Yacute Ycircumflex Ydieresis Ygrave Z Zacute Zcaron Zdotaccent";
name = Uppercase;
}
);
customParameters = (
{
name = panose;
value = (
0,
0,
0,
0,
0,
0,
0,
0,
0,
0
);
},
{
name = fsType;
value = (
);
},
{
name = "Write lastChange";
value = 0;
},
{
name = "Use Typo Metrics";
value = 1;
},
{
name = "Use Line Breaks";
value = 1;
},
{
name = "Enforce Compatibility Check";
value = 0;
},
{
name = "Axis Mappings";
value = {
wght = {
400 = 90;
500 = 110;
600 = 130;
700 = 140;
800 = 150;
};
};
}
);
date = "2021-07-16 04:59:07 +0000";
familyName = Mekorot;
featurePrefixes = (
{
automatic = 1;
code = "languagesystem DFLT dflt;

languagesystem latn dflt;
languagesystem latn AZE;
languagesystem latn CRT;
languagesystem latn KAZ;
languagesystem latn TAT;
languagesystem latn TRK;
languagesystem latn ROM;
languagesystem latn MOL;
languagesystem latn CAT;

languagesystem hebr dflt;
languagesystem hebr IWR;
";
name = Languagesystems;
}
);
features = (
{
automatic = 1;
code = "feature locl;
feature subs;
feature sinf;
feature sups;
feature numr;
feature dnom;
feature frac;
feature ordn;
feature tnum;
feature case;
feature zero;
";
tag = aalt;
},
{

glyphs = (
{
color = 5;
glyphname = A;
kernLeft = kern_A3;
kernRight = kern_A3;
layers = (
{
anchors = (
{
name = bottom;
pos = (376,0);
},
{
name = right;
pos = (614,0);
},
{
name = top;
pos = (376,710);
}
);
layerId = m01;
shapes = (
{
closed = 1;
nodes = (
(249,0,l),
(249,16,l),
(152,55,l),
(156,28,l),
(386,599,l),
(335,599,l),
(566,28,l),
(578,58,l),
(469,16,l),
(469,0,l),
(717,0,l),
(717,16,l),
(610,73,l),
(660,28,l),
(398,665,l),
(353,665,l),
(88,28,l),
(119,61,l),
(33,16,l),
(33,0,l)
);
},
{
closed = 1;
nodes = (
(524,235,l),
(524,290,l),
(204,290,l),
(204,235,l)
);
}
);
width = 750;
},
{
anchors = (
{
name = bottom;
pos = (339,0);
},
{
name = right;
pos = (650,0);
},
{
name = top;
pos = (392,710);
}
);
layerId = m002;
shapes = (
{
closed = 1;
nodes = (
(227,0,l),
(227,16,l),
(125,62,l),
(134,28,l),
(348,539,l),
(303,539,l),
(517,28,l),
(529,63,l),
(420,16,l),
(420,0,l),
(780,0,l),
(780,16,l),
(686,64,l),
(721,28,l),
(449,665,l),
(334,665,l),
(59,28,l),
(88,62,l),
(10,16,l),
(10,0,l)
);
},
{
closed = 1;
nodes = (
(568,207,l),
(568,262,l),
(178,262,l),
(178,207,l)
);
}
);
width = 790;
}
);
unicode = 65;
},
{
color = 5;
glyphname = AE;
kernLeft = kern_AE2;
kernRight = kern_E1;
layers = (
{
anchors = (
{
name = top;
pos = (535,710);
}
);
layerId = m01;
shapes = (
{
closed = 1;
nodes = (
(79,28,l),
(141,75,l),
(28,16,l),
(28,0,l),
(243,0,l),
(243,16,l),
(142,59,l),
(150,28,l),
(490,603,l),
(475,603,l),
(475,56,l),
(395,16,l),
(395,0,l),
(565,0,l),
(565,660,l),
(464,660,l)
);
},
{
closed = 1;
nodes = (
(508,235,l),
(508,290,l),
(258,290,l),
(258,235,l)
);
},
{
closed = 1;
nodes = (
(512,660,l),
(512,605,l),
(806,605,l),
(868,488,l),
(884,488,l),
(884,660,l)
);
},
{
closed = 1;
nodes = (
(735,313,l),
(785,232,l),
(801,232,l),
(801,451,l),
(785,451,l),
(735,368,l),
(520,368,l),
(520,313,l)
);
},
{
closed = 1;
nodes = (
(912,182,l),
(896,182,l),
(834,55,l),
(540,55,l),
(540,0,l),
(912,0,l)
);
}
);
width = 982;
},
{
anchors = (
{
name = top;
pos = (580,710);
}
);
layerId = m002;
shapes = (
{
closed = 1;
nodes = (
(59,28,l),
(129,83,l),
(10,16,l),
(10,0,l),
(227,0,l),
(227,16,l),
(125,62,l),
(134,28,l),
(500,599,l),
(478,599,l),
(478,58,l),
(389,16,l),
(389,0,l),
(668,0,l),
(668,660,l),
(464,660,l)
);
},
{
closed = 1;
nodes = (
(543,227,l),
(543,282,l),
(223,282,l),
(223,227,l)
);
},
{
closed = 1;
nodes = (
(566,660,l),
(566,605,l),
(873,605,l),
(955,486,l),
(971,486,l),
(971,660,l)
);
},
{
closed = 1;
nodes = (
(812,313,l),
(872,227,l),
(888,227,l),
(888,456,l),
(872,456,l),
(812,368,l),
(574,368,l),
(574,313,l)
);
},
{
closed = 1;
nodes = (
(999,219,l),
(983,219,l),
(894,55,l),
(594,55,l),
(594,0,l),
(999,0,l)
);
}
);
width = 1059;
}
);
unicode = 198;
},
{
color = 5;
glyphname = B;
kernLeft = kern_H2;
kernRight = kern_B1;
layers = (
{
layerId = m01;
shapes = (
{
closed = 1;
nodes = (
(235,0,l),
(235,660,l),
(65,660,l),
(65,644,l),
(145,604,l),
(145,56,l),
(65,16,l),
(65,0,l)
);
},
{
closed = 1;
nodes = (
(493,0,o),
(606,82,o),
(606,192,cs),
(606,298,o),
(507,363,o),
(346,363,c),
(338,348,l),
(472,348,o),
(549,426,o),
(549,512,cs),
(549,611,o),
(451,660,o),
(318,660,cs),
(182,660,l),
(182,605,l),
(295,605,ls),
(400,605,o),
(452,564,o),
(452,484,cs),
(452,411,o),
(396,368,o),
(301,368,cs),
(190,368,l),
(190,313,l),
(333,313,ls),
(446,313,o),
(509,274,o),
(509,184,cs),
(509,108,o),
(445,55,o),
(340,55,cs),
(210,55,l),
(210,0,l),
(341,0,ls)
);
}
);
width = 658;
},
{
layerId = m002;
shapes = (
{
closed = 1;
nodes = (
(309,0,l),
(309,660,l),
(30,660,l),
(30,644,l),
(119,602,l),
(119,58,l),
(30,16,l),
(30,0,l)
);
},
{
closed = 1;
nodes = (
(590,0,o),
(717,82,o),
(717,192,cs),
(717,298,o),
(596,363,o),
(407,363,c),
(407,348,l),
(564,348,o),
(656,426,o),
(656,512,cs),
(656,611,o),
(543,660,o),
(393,660,cs),
(227,660,l),
(227,605,l),
(327,605,ls),
(420,605,o),
(466,561,o),
(466,480,cs),
(466,409,o),
(416,363,o),
(332,363,cs),
(227,363,l),
(227,318,l),
(360,318,ls),
(460,318,o),
(516,275,o),
(516,189,cs),
(516,112,o),
(459,55,o),
(367,55,cs),
(227,55,l),
(227,0,l),
(418,0,ls)
);
}
);
width = 737;
}
);
unicode = 66;
},
{
color = 5;
glyphname = C;
kernLeft = kern_O2;
kernRight = kern_C1;
layers = (
{
anchors = (
{
name = bottom;
pos = (400,0);
},
{
name = top;
pos = (389,710);
}
);
layerId = m01;
shapes = (
{
closed = 1;
nodes = (
(510,-10,o),
(564,10,o),
(623,39,c),
(634,198,l),
(617,198,l),
(540,62,l),
(578,106,l),
(535,76,o),
(486,41,o),
(398,41,cs),
(268,41,o),
(163,152,o),
(163,342,cs),
(163,504,o),
(269,620,o),
(413,620,cs),
(467,620,o),
(502,600,o),
(565,554,c),
(529,599,l),
(605,447,l),
(623,447,l),
(618,622,l),
(563.216,648.894,o),
(515,670,o),
(415,670,cs),
(228,670,o),
(70,501.471,o),
(70,312,cs),
(70,126,o),
(195,-10,o),
(400,-10,cs)
);
}
);
width = 726;
},
{
anchors = (
{
name = bottom;
pos = (396,0);
},
{
name = top;
pos = (393,710);
}
);
layerId = m002;
shapes = (
{
closed = 1;
nodes = (
(486,-10,o),
(578,10,o),
(629,44,c),
(646,219,l),
(628,219,l),
(505,51,l),
(541,82,l),
(500,54,o),
(462,45,o),
(420,45,cs),
(312,45,o),
(234,150,o),
(234,316,cs),
(234,503,o),
(317,620,o),
(424,620,cs),
(470,620,o),
(492,612,o),
(524,591,c),
(495,615,l),
(621,428,l),
(639,428,l),
(624,622,l),
(566,650,o),
(523,670,o),
(415,670,cs),
(222,670,o),
(35,524,o),
(35,319,cs),
(35,133,o),
(185,-10,o),
(398,-10,cs)
);
}
);
width = 701;
}
);
unicode = 67;
},
{
color = 5;
glyphname = D;
kernLeft = kern_H2;
kernRight = kern_O1;
layers = (
{
anchors = (
{
name = bottom;
pos = (388,0);
},
{
name = top;
pos = (388,710);
}
);
layerId = m01;
shapes = (
{
closed = 1;
nodes = (
(235,0,l),
(235,660,l),
(65,660,l),
(65,644,l),
(145,604,l),
(145,56,l),
(65,16,l),
(65,0,l)
);
},
{
closed = 1;
nodes = (
(554,0,o),
(705,152,o),
(705,360,cs),
(705,532,o),
(579,660,o),
(358,660,cs),
(182,660,l),
(182,605,l),
(335,605,ls),
(511,605,o),
(610,496,o),
(610,329,cs),
(610,162,o),
(511,55,o),
(350,55,cs),
(210,55,l),
(210,0,l),
(351,0,ls)
);
}
);
width = 775;
},
{
anchors = (
{
name = bottom;
pos = (413,0);
},
{
name = top;
pos = (393,710);
}
);
layerId = m002;
shapes = (
{
closed = 1;
nodes = (
(309,0,l),
(309,660,l),
(30,660,l),
(30,644,l),
(119,602,l),
(119,58,l),
(30,16,l),
(30,0,l)
);
},
{
closed = 1;
nodes = (
(624,0,o),
(790,152,o),
(790,360,cs),
(790,532,o),
(649,660,o),
(402,660,cs),
(256,660,l),
(256,605,l),
(349,605,ls),
(514,605,o),
(594,498,o),
(594,329,cs),
(594,162,o),
(514,55,o),
(364,55,cs),
(284,55,l),
(284,0,l),
(395,0,ls)
);
}
);
width = 820;
}
);
unicode = 68;
},
{
color = 5;
glyphname = Dcroat;
kernLeft = kern_H2;
kernRight = kern_O1;
layers = (
{
layerId = m01;
shapes = (
{
closed = 1;
nodes = (
(235,0,l),
(235,660,l),
(65,660,l),
(65,644,l),
(145,604,l),
(145,56,l),
(65,16,l),
(65,0,l)
);
},
{
closed = 1;
nodes = (
(554,0,o),
(705,152,o),
(705,360,cs),
(705,532,o),
(579,660,o),
(358,660,cs),
(182,660,l),
(182,605,l),
(335,605,ls),
(511,605,o),
(610,496,o),
(610,329,cs),
(610,162,o),
(511,55,o),
(350,55,cs),
(210,55,l),
(210,0,l),
(351,0,ls)
);
},
{
closed = 1;
nodes = (
(410,317,l),
(410,367,l),
(65,367,l),
(65,317,l)
);
}
);
width = 775;
},
{
layerId = m002;
shapes = (
{
closed = 1;
nodes = (
(309,0,l),
(309,660,l),
(30,660,l),
(30,644,l),
(119,602,l),
(119,58,l),
(30,16,l),
(30,0,l)
);
},
{
closed = 1;
nodes = (
(624,0,o),
(790,152,o),
(790,360,cs),
(790,532,o),
(649,660,o),
(402,660,cs),
(256,660,l),
(256,605,l),
(349,605,ls),
(514,605,o),
(594,498,o),
(594,329,cs),
(594,162,o),
(514,55,o),
(364,55,cs),
(284,55,l),
(284,0,l),
(395,0,ls)
);
},
{
closed = 1;
nodes = (
(445,315,l),
(445,370,l),
(30,370,l),
(30,315,l)
);
}
);
width = 820;
}
);
unicode = 272;
},
{
color = 5;
glyphname = E;
kernLeft = kern_H2;
kernRight = kern_E1;
layers = (
{
anchors = (
{
name = bottom;
pos = (350,0);
},
{
name = right;
pos = (505,0);
},
{
name = top;
pos = (335,710);
}
);
layerId = m01;
shapes = (
{
closed = 1;
nodes = (
(235,0,l),
(235,660,l),
(65,660,l),
(65,644,l),
(145,604,l),
(145,56,l),
(65,16,l),
(65,0,l)
);
},
{
closed = 1;
nodes = (
(554,488,l),
(554,660,l),
(182,660,l),
(182,605,l),
(476,605,l),
(538,488,l)
);
},
{
closed = 1;
nodes = (
(471,232,l),
(471,451,l),
(455,451,l),
(405,368,l),
(190,368,l),
(190,313,l),
(405,313,l),
(455,232,l)
);
},
{
closed = 1;
nodes = (
(582,182,l),
(566,182,l),
(504,55,l),
(210,55,l),
(210,0,l),
(582,0,l)
);
}
);
width = 652;
},
{
anchors = (
{
name = bottom;
pos = (366,0);
},
{
name = right;
pos = (569,0);
},
{
name = top;
pos = (366,710);
}
);
layerId = m002;
shapes = (
{
closed = 1;
nodes = (
(309,0,l),
(309,660,l),
(30,660,l),
(30,644,l),
(119,602,l),
(119,58,l),
(30,16,l),
(30,0,l)
);
},
{
closed = 1;
nodes = (
(612,486,l),
(612,660,l),
(207,660,l),
(207,605,l),
(514,605,l),
(596,486,l)
);
},
{
closed = 1;
nodes = (
(529,227,l),
(529,456,l),
(513,456,l),
(453,368,l),
(215,368,l),
(215,313,l),
(453,313,l),
(513,227,l)
);
},
{
closed = 1;
nodes = (
(640,219,l),
(624,219,l),
(535,55,l),
(235,55,l),
(235,0,l),
(640,0,l)
);
}
);
width = 700;
}
);
unicode = 69;
},
{
color = 5;
glyphname = F;
kernLeft = kern_H2;
kernRight = kern_F1;
layers = (
{
layerId = m01;
shapes = (
{
closed = 1;
nodes = (
(325,0,l),
(325,16,l),
(235,56,l),
(235,660,l),
(65,660,l),
(65,644,l),
(145,604,l),
(145,56,l),
(65,16,l),
(65,0,l)
);
},
{
closed = 1;
nodes = (
(544,488,l),
(544,660,l),
(172,660,l),
(172,605,l),
(466,605,l),
(528,488,l)
);
},
{
closed = 1;
nodes = (
(461,232,l),
(461,451,l),
(445,451,l),
(395,368,l),
(180,368,l),
(180,313,l),
(395,313,l),
(445,232,l)
);
}
);
width = 614;
},
{
layerId = m002;
shapes = (
{
closed = 1;
nodes = (
(419,0,l),
(419,16,l),
(309,58,l),
(309,660,l),
(30,660,l),
(30,644,l),
(119,602,l),
(119,58,l),
(30,16,l),
(30,0,l)
);
},
{
closed = 1;
nodes = (
(602,486,l),
(602,660,l),
(207,660,l),
(207,605,l),
(514,605,l),
(586,486,l)
);
},
{
closed = 1;
nodes = (
(519,232,l),
(519,451,l),
(503,451,l),
(443,363,l),
(215,363,l),
(215,318,l),
(443,318,l),
(503,232,l)
);
}
);
width = 642;
}
);
unicode = 70;
},
{
color = 5;
glyphname = G;
kernLeft = kern_O2;
kernRight = kern_G1;
layers = (
{
anchors = (
{
name = bottom;
pos = (415,0);
},
{
name = top;
pos = (400,710);
}
);
layerId = m01;
shapes = (
{
closed = 1;
nodes = (
(489,-10,o),
(588,23,o),
(649,74,c),
(649,231,l),
(718,274,l),
(718,290,l),
(470,290,l),
(470,274,l),
(559,234,l),
(559,61,l),
(588,82,l),
(533,54,o),
(485,48,o),
(432,48,cs),
(280,48,o),
(159,163,o),
(159,362,cs),
(159,510,o),
(270,620,o),
(424,620,cs),
(481,620,o),
(514,604,o),
(584,554,c),
(546,598,l),
(628,457,l),
(644,457,l),
(639,622,l),
(582,650,o),
(531,670,o),
(426,670,cs),
(230,670,o),
(70,517,o),
(70,312,cs),
(70,126,o),
(211,-10,o),
(403,-10,cs)
);
}
);
width = 768;
},
{
anchors = (
{
name = bottom;
pos = (405,0);
},
{
name = top;
pos = (406,710);
}
);
layerId = m002;
shapes = (
{
closed = 1;
nodes = (
(476,-10,o),
(592,23,o),
(653,74,c),
(653,239,l),
(732,291,l),
(732,307,l),
(374,307,l),
(374,291,l),
(463,239,l),
(463,22,l),
(575,77,l),
(530,53,o),
(461,43,o),
(419,43,cs),
(317,43,o),
(236,149.676,o),
(236,316,cs),
(236,503.329,o),
(329,622,o),
(436,622,cs),
(482,622,o),
(514,614,o),
(546,593,c),
(517,617,l),
(642,439,l),
(661,439,l),
(646,622,l),
(588,650,o),
(535,670,o),
(427,670,cs),
(224,670,o),
(37,524,o),
(37,319,cs),
(37,133,o),
(198,-10,o),
(390,-10,cs)
);
}
);
width = 749;
}
);
unicode = 71;
},
{
color = 5;
glyphname = H;
kernLeft = kern_H2;
kernRight = kern_H1;
layers = (
{
anchors = (
{
name = bottom;
pos = (405,0);
},
{
name = top;
pos = (405,710);
}
);
layerId = m01;
shapes = (
{
closed = 1;
nodes = (
(315,0,l),
(315,16,l),
(235,56,l),
(235,604,l),
(315,644,l),
(315,660,l),
(65,660,l),
(65,644,l),
(145,604,l),
(145,56,l),
(65,16,l),
(65,0,l)
);
},
{
closed = 1;
nodes = (
(620,313,l),
(620,368,l),
(190,368,l),
(190,313,l)
);
},
{
closed = 1;
nodes = (
(745,0,l),
(745,16,l),
(665,56,l),
(665,604,l),
(745,644,l),
(745,660,l),
(495,660,l),
(495,644,l),
(575,604,l),
(575,56,l),
(495,16,l),
(495,0,l)
);
}
);
width = 810;
},
{
anchors = (
{
name = bottom;
pos = (426,0);
},
{
name = top;
pos = (426,710);
}
);
layerId = m002;
shapes = (
{
closed = 1;
nodes = (
(386,0,l),
(386,16,l),
(309,58,l),
(309,602,l),
(386,644,l),
(386,660,l),
(30,660,l),
(30,644,l),
(119,602,l),
(119,58,l),
(30,16,l),
(30,0,l)
);
},
{
closed = 1;
nodes = (
(645,312,l),
(645,367,l),
(215,367,l),
(215,312,l)
);
},
{
closed = 1;
nodes = (
(822,0,l),
(822,16,l),
(735,58,l),
(735,602,l),
(822,644,l),
(822,660,l),
(466,660,l),
(466,644,l),
(545,602,l),
(545,58,l),
(466,16,l),
(466,0,l)
);
}
);
width = 852;
}
);
unicode = 72;
},
{
color = 5;
glyphname = Hbar;
kernLeft = kern_H2;
kernRight = kern_H1;
layers = (
{
layerId = m01;
shapes = (
{
closed = 1;
nodes = (
(315,0,l),
(315,16,l),
(235,56,l),
(235,604,l),
(315,644,l),
(315,660,l),
(65,660,l),
(65,644,l),
(145,604,l),
(145,56,l),
(65,16,l),
(65,0,l)
);
},
{
closed = 1;
nodes = (
(620,313,l),
(620,368,l),
(190,368,l),
(190,313,l)
);
},
{
closed = 1;
nodes = (
(745,0,l),
(745,16,l),
(665,56,l),
(665,604,l),
(745,644,l),
(745,660,l),
(495,660,l),
(495,644,l),
(575,604,l),
(575,56,l),
(495,16,l),
(495,0,l)
);
},
{
closed = 1;
nodes = (
(745,470,l),
(745,520,l),
(65,520,l),
(65,470,l)
);
}
);
width = 810;
},
{
layerId = m002;
shapes = (
{
closed = 1;
nodes = (
(386,0,l),
(386,16,l),
(309,58,l),
(309,602,l),
(386,644,l),
(386,660,l),
(30,660,l),
(30,644,l),
(119,602,l),
(119,58,l),
(30,16,l),
(30,0,l)
);
},
{
closed = 1;
nodes = (
(645,312,l),
(645,367,l),
(215,367,l),
(215,312,l)
);
},
{
closed = 1;
nodes = (
(822,0,l),
(822,16,l),
(735,58,l),
(735,602,l),
(822,644,l),
(822,660,l),
(466,660,l),
(466,644,l),
(545,602,l),
(545,58,l),
(466,16,l),
(466,0,l)
);
},
{
closed = 1;
nodes = (
(822,469,l),
(822,524,l),
(30,524,l),
(30,469,l)
);
}
);
width = 852;
}
);
unicode = 294;
},
{
color = 5;
glyphname = I;
kernLeft = kern_H2;
kernRight = kern_H1;
layers = (
{
anchors = (
{
name = bottom;
pos = (195,0);
},
{
name = right;
pos = (212,0);
},
{
name = top;
pos = (195,710);
}
);
layerId = m01;
shapes = (
{
closed = 1;
nodes = (
(320,0,l),
(320,16,l),
(240,56,l),
(240,604,l),
(320,644,l),
(320,660,l),
(70,660,l),
(70,644,l),
(150,604,l),
(150,56,l),
(70,16,l),
(70,0,l)
);
}
);
width = 390;
},
{
anchors = (
{
name = bottom;
pos = (214,0);
},
{
name = right;
pos = (241,0);
},
{
name = top;
pos = (214,710);
}
);
layerId = m002;
shapes = (
{
closed = 1;
nodes = (
(398,0,l),
(398,16,l),
(309,58,l),
(309,602,l),
(398,644,l),
(398,660,l),
(30,660,l),
(30,644,l),
(119,602,l),
(119,58,l),
(30,16,l),
(30,0,l)
);
}
);
width = 428;
}
);
unicode = 73;
},
{
color = 5;
glyphname = J;
kernLeft = kern_J2;
kernRight = kern_J1;
layers = (
{
anchors = (
{
name = top;
pos = (195,710);
}
);
layerId = m01;
shapes = (
{
closed = 1;
nodes = (
(86,-173,o),
(103,-163,o),
(161,-99,cs),
(219,-35,o),
(240,90.385,o),
(240,240,cs),
(240,604,l),
(320,644,l),
(320,660,l),
(70,660,l),
(70,644,l),
(150,604,l),
(150,51,ls),
(150,-83,o),
(123,-100,o),
(80,-100,cs),
(62,-100,o),
(52,-97,o),
(29,-91,c),
(23,-91,l),
(13,-139,o),
(13,-142,o),
(13,-145,cs),
(13,-166,o),
(29,-173,o),
(46,-173,cs)
);
}
);
width = 390;
},
{
anchors = (
{
name = top;
pos = (245,710);
}
);
layerId = m002;
shapes = (
{
closed = 1;
nodes = (
(112.395,-173,o),
(159,-130,o),
(199,-83,cs),
(245,-28,o),
(340,92.142,o),
(340,249,cs),
(340,602,l),
(429,644,l),
(429,660,l),
(61,660,l),
(61,644,l),
(150,602,l),
(150,49,ls),
(150,-50,o),
(130,-63,o),
(98,-63,cs),
(85,-63,o),
(77,-61,o),
(60,-56,c),
(50,-56,l),
(42,-91,o),
(35,-126,o),
(35,-144,cs),
(35,-164,o),
(46,-173,o),
(66,-173,cs)
);
}
);
width = 459;
}
);
unicode = 74;
},
{
color = 5;
glyphname = K;
kernLeft = kern_H2;
kernRight = kern_K1;
layers = (
{
anchors = (
{
name = bottom;
pos = (385,0);
},
{
name = top;
pos = (385,710);
}
);
layerId = m01;
shapes = (
{
closed = 1;
nodes = (
(315,0,l),
(315,16,l),
(235,56,l),
(235,604,l),
(315,644,l),
(315,660,l),
(65,660,l),
(65,644,l),
(145,604,l),
(145,56,l),
(65,16,l),
(65,0,l)
);
},
{
closed = 1;
nodes = (
(560,0,l),
(704,0,l),
(704,16,l),
(604,59,l),
(654,31,l),
(303,386,l),
(303,338,l),
(609,638,l),
(568,611,l),
(652,644,l),
(652,660,l),
(442,660,l),
(442,644,l),
(530,602,l),
(530,627,l),
(236,338,l)
);
}
);
width = 719;
},
{
anchors = (
{
name = bottom;
pos = (452,0);
},
{
name = top;
pos = (452,710);
}
);
layerId = m002;
shapes = (
{
closed = 1;
nodes = (
(398,0,l),
(398,16,l),
(309,58,l),
(309,602,l),
(398,644,l),
(398,660,l),
(30,660,l),
(30,644,l),
(119,602,l),
(119,58,l),
(30,16,l),
(30,0,l)
);
},
{
closed = 1;
nodes = (
(533,0,l),
(806,0,l),
(806,16,l),
(697,61,l),
(743,29,l),
(467,428,l),
(399,339,l),
(708,632,l),
(638,591,l),
(757,644,l),
(757,660,l),
(505,660,l),
(505,644,l),
(613,591,l),
(607,632,l),
(309,330,l)
);
}
);
width = 810;
}
);
unicode = 75;
},
{
color = 5;
glyphname = L;
kernLeft = kern_H2;
kernRight = kern_L1;
layers = (
{
anchors = (
{
name = bottom;
pos = (354,0);
},
{
name = mid;
pos = (490,347);
},
{
name = right;
pos = (475,660);
},
{
name = top;
pos = (190,710);
}
);
layerId = m01;
shapes = (
{
closed = 1;
nodes = (
(548,0,ls),
(557,0,o),
(562,5,o),
(562,17,cs),
(562,212,ls),
(562,218,o),
(559,222,o),
(553,222,cs),
(547,222,o),
(544,217,o),
(542,212,cs),
(485,72,ls),
(482,65,o),
(478,55,o),
(458,55,cs),
(255,55,ls),
(240,55,o),
(235,61,o),
(235,76,cs),
(235,585,ls),
(235,600,o),
(239,606,o),
(255,613,cs),
(314,639,ls),
(321,642,o),
(325,645,o),
(325,650,cs),
(325,657,o),
(322,660,o),
(315,660,cs),
(75,660,ls),
(68,660,o),
(65,657,o),
(65,650,cs),
(65,645,o),
(69,642,o),
(75,639,cs),
(125,614,ls),
(141,606,o),
(145,600,o),
(145,585,cs),
(145,76,ls),
(145,61,o),
(139,53,o),
(125,46,cs),
(75,21,ls),
(69,18,o),
(65,15,o),
(65,10,cs),
(65,3,o),
(68,0,o),
(75,0,cs)
);
}
);
width = 632;
},
{
anchors = (
{
name = bottom;
pos = (362,0);
},
{
name = mid;
pos = (540,355);
},
{
name = right;
pos = (520,660);
},
{
name = top;
pos = (214,710);
}
);
layerId = m002;
shapes = (
{
closed = 1;
nodes = (
(606,0,ls),
(615,0,o),
(620,5,o),
(620,17,cs),
(620,249,ls),
(620,255,o),
(617,259,o),
(611,259,cs),
(605,259,o),
(602,254,o),
(600,249,cs),
(522,73,ls),
(519,66,o),
(515,55,o),
(495,55,cs),
(329,55,ls),
(314,55,o),
(309,61,o),
(309,76,cs),
(309,585,ls),
(309,600,o),
(312,603,o),
(328,610,cs),
(397,639,ls),
(404,642,o),
(408,645,o),
(408,650,cs),
(408,657,o),
(405,660,o),
(398,660,cs),
(40,660,ls),
(33,660,o),
(30,657,o),
(30,650,cs),
(30,645,o),
(34,642,o),
(40,639,cs),
(100,611,ls),
(115,604,o),
(119,600,o),
(119,585,cs),
(119,76,ls),
(119,61,o),
(113,55,o),
(100,49,cs),
(40,21,ls),
(34,18,o),
(30,15,o),
(30,10,cs),
(30,3,o),
(33,0,o),
(40,0,cs)
);
}
);
width = 660;
},
{
anchors = (
{
name = bottom;
pos = (354,0);
},
{
name = mid;
pos = (490,347);
},
{
name = right;
pos = (475,660);
},
{
name = top;
pos = (190,710);
}
);
associatedMasterId = m01;
layerId = "DF7FC19A-BDED-41CD-9F2E-44876A9E8216";
name = "Jan 10, 22, 19:13";
shapes = (
{
closed = 1;
nodes = (
(562,0,l),
(562,222,l),
(546,222,l),
(478,55,l),
(235,55,l),
(235,604,l),
(325,644,l),
(325,660,l),
(65,660,l),
(65,644,l),
(145,604,l),
(145,56,l),
(65,16,l),
(65,0,l)
);
}
);
width = 632;
},
{
anchors = (
{
name = bottom;
pos = (362,0);
},
{
name = mid;
pos = (540,355);
},
{
name = right;
pos = (520,660);
},
{
name = top;
pos = (214,710);
}
);
associatedMasterId = m002;
layerId = "48946787-CFEA-4A94-92B4-512A2DB08E99";
name = "Jan 10, 22, 19:14";
shapes = (
{
closed = 1;
nodes = (
(620,0,l),
(620,259,l),
(604,259,l),
(514,55,l),
(309,55,l),
(309,602,l),
(408,644,l),
(408,660,l),
(30,660,l),
(30,644,l),
(119,602,l),
(119,58,l),
(30,16,l),
(30,0,l)
);
}
);
width = 660;
}
);
unicode = 76;
},
{
color = 5;
glyphname = Lslash;
layers = (
{
layerId = m01;
shapes = (
{
closed = 1;
nodes = (
(548,0,ls),
(557,0,o),
(562,5,o),
(562,17,cs),
(562,212,ls),
(562,218,o),
(559,222,o),
(553,222,cs),
(547,222,o),
(544,217,o),
(542,212,cs),
(485,72,ls),
(482,65,o),
(478,55,o),
(458,55,cs),
(255,55,ls),
(240,55,o),
(235,61,o),
(235,76,cs),
(235,585,ls),
(235,600,o),
(239,606,o),
(255,613,cs),
(314,639,ls),
(321,642,o),
(325,645,o),
(325,650,cs),
(325,657,o),
(322,660,o),
(315,660,cs),
(75,660,ls),
(68,660,o),
(65,657,o),
(65,650,cs),
(65,645,o),
(69,642,o),
(75,639,cs),
(125,614,ls),
(141,606,o),
(145,600,o),
(145,585,cs),
(145,76,ls),
(145,61,o),
(139,53,o),
(125,46,cs),
(75,21,ls),
(69,18,o),
(65,15,o),
(65,10,cs),
(65,3,o),
(68,0,o),
(75,0,cs)
);
},
{
closed = 1;
nodes = (
(163,263,l),
(222,292,l),
(383,401,l),
(383,460,l),
(222,351,l),
(163,322,l),
(66,255,l),
(66,196,l)
);
}
);
width = 600;
},
{
layerId = m002;
shapes = (
{
closed = 1;
nodes = (
(606,0,ls),
(615,0,o),
(620,5,o),
(620,17,cs),
(620,249,ls),
(620,255,o),
(617,259,o),
(611,259,cs),
(605,259,o),
(602,254,o),
(600,249,cs),
(522,73,ls),
(519,66,o),
(515,55,o),
(495,55,cs),
(329,55,ls),
(314,55,o),
(309,61,o),
(309,76,cs),
(309,585,ls),
(309,600,o),
(312,603,o),
(328,610,cs),
(397,639,ls),
(404,642,o),
(408,645,o),
(408,650,cs),
(408,657,o),
(405,660,o),
(398,660,cs),
(40,660,ls),
(33,660,o),
(30,657,o),
(30,650,cs),
(30,645,o),
(34,642,o),
(40,639,cs),
(100,611,ls),
(115,604,o),
(119,600,o),
(119,585,cs),
(119,76,ls),
(119,61,o),
(113,55,o),
(100,49,cs),
(40,21,ls),
(34,18,o),
(30,15,o),
(30,10,cs),
(30,3,o),
(33,0,o),
(40,0,cs)
);
},
{
closed = 1;
nodes = (
(177,239,l),
(261,273,l),
(447,401,l),
(447,470,l),
(257,340,l),
(175,307,l),
(30,203,l),
(30,134,l)
);
}
);
width = 660;
}
);
unicode = 321;
},
{
color = 5;
glyphname = M;
kernLeft = kern_M3;
kernRight = kern_M3;
layers = (
{
anchors = (
{
name = bottom;
pos = (472,0);
}
);
layerId = m01;
shapes = (
{
closed = 1;
nodes = (
(272,0,ls),
(279,0,o),
(282,3,o),
(282,10,cs),
(282,15,o),
(279,18,o),
(272,21,cs),
(212,50,ls),
(206,53,o),
(202,61,o),
(202,76,cs),
(213,508,ls),
(213,518,o),
(216,520,o),
(219,520,cs),
(222,520,o),
(224,518,o),
(228,508,cs),
(441,13,ls),
(447,0,o),
(452,-5,o),
(474,-5,cs),
(491,-5,o),
(496,0,o),
(502,13,cs),
(712,499,ls),
(715,506,o),
(719,515,o),
(725,515,cs),
(732,515,o),
(734,510,o),
(734,499,cs),
(743,76,ls),
(743,61,o),
(738,52,o),
(726,46,cs),
(679,21,ls),
(673,18,o),
(669,15,o),
(669,10,cs),
(669,3,o),
(672,0,o),
(679,0,cs),
(889,0,ls),
(896,0,o),
(899,3,o),
(899,10,cs),
(899,15,o),
(895,18,o),
(889,22,cs),
(839,50,ls),
(833,53,o),
(829,61,o),
(829,76,cs),
(813,578,ls),
(813,591,o),
(814,605,o),
(831,613,cs),
(886,639,ls),
(893,642,o),
(896,645,o),
(896,651,cs),
(896,658,o),
(893,660,o),
(886,660,cs),
(744,660,ls),
(724,660,o),
(714,646,o),
(704,623,cs),
(506,165,ls),
(501,153,o),
(496,144,o),
(490,144,cs),
(484,144,o),
(479,153,o),
(472,170,cs),
(277,619,ls),
(265,647,o),
(257,660,o),
(227,660,cs),
(81,660,ls),
(77,660,o),
(74,657,o),
(74,652,cs),
(74,647,o),
(76,643,o),
(81,641,cs),
(137,614,ls),
(154,606,o),
(160,596,o),
(159,577,cs),
(140,76,ls),
(139,61,o),
(135,54,o),
(123,48,cs),
(70,21,ls),
(64,18,o),
(60,15,o),
(60,10,cs),
(60,3,o),
(63,0,o),
(70,0,cs)
);
}
);
width = 959;
},
{
anchors = (
{
name = bottom;
pos = (461,0);
}
);
layerId = m002;
shapes = (
{
closed = 1;
nodes = (
(271,0,ls),
(278,0,o),
(281,3,o),
(281,10,cs),
(281,15,o),
(278,18,o),
(271,21,cs),
(203,51,ls),
(193,56,o),
(190,59,o),
(191,85,cs),
(202,493,ls),
(202,499,o),
(204,502,o),
(207,502,cs),
(210,502,o),
(212,500,o),
(215,493,cs),
(421,13,ls),
(427,0,o),
(434,-5,o),
(462,-5,cs),
(488,-5,o),
(496,0,o),
(501,13,cs),
(702,489,ls),
(704,493,o),
(706,496,o),
(709,496,cs),
(713,496,o),
(715,494,o),
(715,475,cs),
(723,76,ls),
(723,61,o),
(719,55,o),
(707,49,cs),
(649,21,ls),
(643,18,o),
(639,15,o),
(639,10,cs),
(639,3,o),
(642,0,o),
(649,0,cs),
(979,0,ls),
(986,0,o),
(989,3,o),
(989,10,cs),
(989,15,o),
(985,18,o),
(978,22,cs),
(920,52,ls),
(914,55,o),
(909,61,o),
(909,76,cs),
(893,578,ls),
(892,600,o),
(893,616,o),
(911,622,cs),
(971,641,ls),
(978,643,o),
(981,645,o),
(981,651,cs),
(981,658,o),
(978,660,o),
(971,660,cs),
(724,660,ls),
(704,660,o),
(694,646,o),
(684,623,cs),
(538,275,ls),
(533,263,o),
(529,257,o),
(522,257,cs),
(515,257,o),
(510,263,o),
(505,275,cs),
(357,619,ls),
(345,648,o),
(337,660,o),
(307,660,cs),
(58,660,ls),
(54,660,o),
(51,657,o),
(51,652,cs),
(51,647,o),
(53,643,o),
(58,641,cs),
(114,615,ls),
(131,607,o),
(140,596,o),
(139,577,cs),
(120,76,ls),
(119,61,o),
(116,57,o),
(104,51,cs),
(40,21,ls),
(34,18,o),
(30,15,o),
(30,10,cs),
(30,3,o),
(33,0,o),
(40,0,cs)
);
}
);
width = 1019;
},
{
anchors = (
{
name = bottom;
pos = (472,0);
}
);
associatedMasterId = m01;
layerId = "F8142E1D-66C0-431A-8EE1-C91D71CFB1FA";
name = "Jan 10, 22, 20:27";
shapes = (
{
closed = 1;
nodes = (
(282,0,l),
(282,16,l),
(201,55,l),
(217,642,l),
(161,642,l),
(139,56,l),
(60,16,l),
(60,0,l)
);
},
{
closed = 1;
nodes = (
(494,-5,l),
(754,597,l),
(797,597,l),
(896,644,l),
(896,660,l),
(720,660,l),
(465,71,l),
(514,71,l),
(259,660,l),
(74,660,l),
(74,644,l),
(173,597,l),
(190,597,l),
(449,-5,l)
);
},
{
closed = 1;
nodes = (
(899,0,l),
(899,16,l),
(829,56,l),
(811,642,l),
(731,642,l),
(743,55,l),
(669,16,l),
(669,0,l)
);
}
);
width = 959;
},
{
anchors = (
{
name = bottom;
pos = (461,0);
}
);
associatedMasterId = m002;
layerId = "D82DCE04-6AD1-49EC-B388-0206BFB02A92";
name = "Jan 10, 22, 21:33";
shapes = (
{
closed = 1;
nodes = (
(281,0,l),
(281,16,l),
(190,57,l),
(206,642,l),
(141,642,l),
(119,58,l),
(30,16,l),
(30,0,l)
);
},
{
closed = 1;
nodes = (
(493,-5,l),
(746,595,l),
(825,595,l),
(981,644,l),
(981,660,l),
(700,660,l),
(502,189,l),
(543,189,l),
(339,660,l),
(51,660,l),
(51,644,l),
(157,595,l),
(171,595,l),
(429,-5,l)
);
},
{
closed = 1;
nodes = (
(989,0,l),
(989,16,l),
(909,58,l),
(891,642,l),
(711,642,l),
(723,57,l),
(639,16,l),
(639,0,l)
);
}
);
visible = 1;
width = 1019;
}
);
unicode = 77;
},
{
color = 5;
glyphname = N;
kernLeft = kern_H2;
kernRight = kern_N1;
layers = (
{
anchors = (
{
name = bottom;
pos = (420,0);
},
{
name = top;
pos = (410,710);
}
);
layerId = m01;
shapes = (
{
closed = 1;
nodes = (
(280,0,ls),
(287,0,o),
(290,3,o),
(290,10,cs),
(290,15,o),
(286,18,o),
(280,21,cs),
(230,46,ls),
(216,53,o),
(210,61,o),
(210,76,cs),
(210,489,ls),
(210,494,o),
(213,499,o),
(218,499,cs),
(224,499,o),
(228,494,o),
(234,486,cs),
(600,24,ls),
(619,0,o),
(627,-5,o),
(637,-5,cs),
(657,-5,o),
(660,-2,o),
(660,15,cs),
(660,585,ls),
(660,601,o),
(664,607,o),
(680,615,cs),
(729,639,ls),
(735,642,o),
(739,645,o),
(739,650,cs),
(739,657,o),
(736,660,o),
(729,660,cs),
(500,660,ls),
(493,660,o),
(490,657,o),
(490,650,cs),
(490,645,o),
(494,642,o),
(500,640,cs),
(572,613,ls),
(588,607,o),
(590,600,o),
(590,585,cs),
(590,211,ls),
(590,203,o),
(587,198,o),
(582,198,cs),
(575,198,o),
(572,203,o),
(567,209,cs),
(222,643,ls),
(214,654,o),
(201,660,o),
(190,660,cs),
(71,660,ls),
(64,660,o),
(61,657,o),
(61,650,cs),
(61,645,o),
(65,642,o),
(72,638,cs),
(119,613,ls),
(138,603,o),
(140,593,o),
(140,582,cs),
(140,76,ls),
(140,61,o),
(134,53,o),
(120,46,cs),
(70,21,ls),
(64,18,o),
(60,15,o),
(60,10,cs),
(60,3,o),
(63,0,o),
(70,0,cs)
);
}
);
width = 799;
},
{
anchors = (
{
name = bottom;
pos = (414,0);
},
{
name = top;
pos = (415,710);
}
);
layerId = m002;
shapes = (
{
closed = 1;
nodes = (
(302,0,ls),
(309,0,o),
(312,3,o),
(312,10,cs),
(312,15,o),
(307,18,o),
(301,20,cs),
(209,51,ls),
(195,56,o),
(189,61,o),
(189,76,cs),
(189,431,ls),
(189,436,o),
(190,441,o),
(196,441,cs),
(201,441,o),
(206,436,o),
(213,428,cs),
(603,24,ls),
(624,2,o),
(638,-5,o),
(672,-5,cs),
(702,-5,o),
(710,2,o),
(710,25,cs),
(710,585,ls),
(710,598,o),
(712,603,o),
(729,611,cs),
(787,639,ls),
(793,642,o),
(797,645,o),
(797,650,cs),
(797,657,o),
(794,660,o),
(787,660,cs),
(527,660,ls),
(520,660,o),
(517,657,o),
(517,650,cs),
(517,645,o),
(521,642,o),
(527,640,cs),
(622,608,ls),
(632,605,o),
(640,599,o),
(640,585,cs),
(640,275,ls),
(640,267,o),
(637,263,o),
(632,263,cs),
(627,263,o),
(622,267,o),
(616,273,cs),
(262,643,ls),
(252,654,o),
(241,660,o),
(230,660,cs),
(40,660,ls),
(33,660,o),
(30,657,o),
(30,650,cs),
(30,645,o),
(34,642,o),
(41,639,cs),
(98,612,ls),
(115,604,o),
(119,596,o),
(119,582,cs),
(119,76,ls),
(119,61,o),
(114,56,o),
(100,49,cs),
(40,21,ls),
(34,18,o),
(30,15,o),
(30,10,cs),
(30,3,o),
(33,0,o),
(40,0,cs)
);
}
);
width = 827;
},
{
anchors = (
{
name = bottom;
pos = (420,0);
},
{
name = top;
pos = (410,710);
}
);
associatedMasterId = m01;
layerId = "45800E63-F0D1-4727-B5EF-AFC7293F864E";
name = "Jan 11, 22, 22:04";
shapes = (
{
closed = 1;
nodes = (
(310,0,l),
(310,16,l),
(210,55,l),
(210,561,l),
(174,561,l),
(623,-5,l),
(660,-5,l),
(660,605,l),
(739,644,l),
(739,660,l),
(490,660,l),
(490,644,l),
(590,606,l),
(590,100,l),
(654,100,l),
(208,660,l),
(61,660,l),
(61,644,l),
(140,602,l),
(140,56,l),
(60,16,l),
(60,0,l)
);
}
);
width = 799;
},
{
anchors = (
{
name = bottom;
pos = (414,0);
},
{
name = top;
pos = (415,710);
}
);
associatedMasterId = m002;
layerId = "B0F1CF0D-DEEE-49B6-8008-3623C1BA28DE";
name = "Jan 11, 22, 22:08";
shapes = (
{
closed = 1;
nodes = (
(312,0,l),
(312,16,l),
(189,58,l),
(189,493,l),
(150,493,l),
(631,-5,l),
(710,-5,l),
(710,602,l),
(797,644,l),
(797,660,l),
(517,660,l),
(517,644,l),
(640,602,l),
(640,187,l),
(698,187,l),
(247,660,l),
(30,660,l),
(30,644,l),
(119,602,l),
(119,58,l),
(30,16,l),
(30,0,l)
);
}
);
visible = 1;
width = 827;
}
);
unicode = 78;
},
{
color = 5;
glyphname = Eng;
layers = (
{
layerId = m01;
shapes = (
{
closed = 1;
nodes = (
(280,0,ls),
(287,0,o),
(290,3,o),
(290,10,cs),
(290,15,o),
(286,18,o),
(280,21,cs),
(230,46,ls),
(216,53,o),
(210,61,o),
(210,76,cs),
(210,489,ls),
(210,494,o),
(213,499,o),
(218,499,cs),
(224,499,o),
(228,494,o),
(234,486,cs),
(590,37,l),
(590,-39,ls),
(590,-132,o),
(575,-171,o),
(509,-171,cs),
(490,-171,o),
(480,-156,o),
(463,-156,cs),
(449,-156,o),
(420,-165,o),
(420,-198,cs),
(420,-221,o),
(439,-240,o),
(473,-240,cs),
(617,-240,o),
(660,-140,o),
(660,-39,cs),
(660,585,ls),
(660,601,o),
(664,607,o),
(680,615,cs),
(729,639,ls),
(735,642,o),
(739,645,o),
(739,650,cs),
(739,657,o),
(736,660,o),
(729,660,cs),
(500,660,ls),
(493,660,o),
(490,657,o),
(490,650,cs),
(490,645,o),
(494,642,o),
(500,640,cs),
(572,613,ls),
(588,607,o),
(590,600,o),
(590,585,cs),
(590,211,ls),
(590,203,o),
(587,198,o),
(582,198,cs),
(575,198,o),
(572,203,o),
(567,209,cs),
(222,643,ls),
(214,654,o),
(201,660,o),
(190,660,cs),
(71,660,ls),
(64,660,o),
(61,657,o),
(61,650,cs),
(61,645,o),
(65,642,o),
(72,638,cs),
(119,613,ls),
(138,603,o),
(140,593,o),
(140,582,cs),
(140,76,ls),
(140,61,o),
(134,53,o),
(120,46,cs),
(70,21,ls),
(64,18,o),
(60,15,o),
(60,10,cs),
(60,3,o),
(63,0,o),
(70,0,cs)
);
}
);
width = 799;
},
{
layerId = m002;
shapes = (
{
closed = 1;
nodes = (
(302,0,ls),
(309,0,o),
(312,3,o),
(312,10,cs),
(312,15,o),
(307,18,o),
(301,20,cs),
(209,51,ls),
(195,56,o),
(189,61,o),
(189,76,cs),
(189,431,ls),
(189,436,o),
(190,441,o),
(196,441,cs),
(201,441,o),
(206,436,o),
(213,428,cs),
(634,0,l),
(634,-43,ls),
(634,-115,o),
(612,-136,o),
(581,-136,cs),
(569,-136,o),
(540,-103,o),
(508,-103,cs),
(464,-103,o),
(440,-140,o),
(440,-173,cs),
(440,-209,o),
(469,-240,o),
(512,-240,cs),
(639,-240,o),
(710,-155,o),
(710,0,cs),
(710,585,ls),
(710,598,o),
(712,603,o),
(729,611,cs),
(787,639,ls),
(793,642,o),
(797,645,o),
(797,650,cs),
(797,657,o),
(794,660,o),
(787,660,cs),
(527,660,ls),
(520,660,o),
(517,657,o),
(517,650,cs),
(517,645,o),
(521,642,o),
(527,640,cs),
(622,608,ls),
(632,605,o),
(640,599,o),
(640,585,cs),
(640,275,ls),
(640,267,o),
(637,263,o),
(632,263,cs),
(627,263,o),
(622,267,o),
(616,273,cs),
(262,643,ls),
(252,654,o),
(241,660,o),
(230,660,cs),
(40,660,ls),
(33,660,o),
(30,657,o),
(30,650,cs),
(30,645,o),
(34,642,o),
(41,639,cs),
(98,612,ls),
(115,604,o),
(119,596,o),
(119,582,cs),
(119,76,ls),
(119,61,o),
(114,56,o),
(100,49,cs),
(40,21,ls),
(34,18,o),
(30,15,o),
(30,10,cs),
(30,3,o),
(33,0,o),
(40,0,cs)
);
}
);
width = 827;
},
{
associatedMasterId = m002;
layerId = "A4418311-3548-47BC-858F-04BB09D20225";
name = "Feb 16, 23 at 12:33";
shapes = (
{
closed = 1;
nodes = (
(312,0,l),
(312,16,l),
(189,58,l),
(189,493,l),
(150,493,l),
(666,-41,l),
(640,22,l),
(640,-6,ls),
(640,-100,o),
(609,-125,o),
(523,-125,cs),
(453,-125,l),
(447,-131,l),
(447,-212,ls),
(447,-234,o),
(449,-241,o),
(501,-241,cs),
(553.5,-241,o),
(605.492,-226.421,o),
(641,-197,cs),
(683.832,-162.058,o),
(710,-104.204,o),
(710,14,cs),
(710,602,l),
(797,644,l),
(797,660,l),
(517,660,l),
(517,644,l),
(640,602,l),
(640,187,l),
(698,187,l),
(247,660,l),
(30,660,l),
(30,644,l),
(119,602,l),
(119,58,l),
(30,16,l),
(30,0,l)
);
}
);
visible = 1;
width = 827;
},
{
associatedMasterId = m01;
layerId = "112B31C4-4C7B-44D6-9F93-485FDAC9C3DD";
name = "Feb 16, 23 at 12:33";
shapes = (
{
closed = 1;
nodes = (
(310,0,l),
(310,16,l),
(210,55,l),
(210,561,l),
(169,561,l),
(618,1,l),
(590,65,l),
(590,-46,ls),
(590,-127,o),
(564.723,-157,o),
(479,-157,cs),
(433,-157,l),
(429,-161,l),
(429,-211,ls),
(429,-233,o),
(441,-240,o),
(471,-240,cs),
(518.288,-240,o),
(564.091,-225.758,o),
(595,-200,cs),
(633.025,-168.629,o),
(660,-119,o),
(660,-26,cs),
(660,605,l),
(739,644,l),
(739,660,l),
(490,660,l),
(490,644,l),
(590,606,l),
(590,100,l),
(655,100,l),
(208,660,l),
(61,660,l),
(61,644,l),
(140,602,l),
(140,56,l),
(60,16,l),
(60,0,l)
);
}
);
width = 799;
}
);
unicode = 330;
},
{
color = 5;
glyphname = O;
kernLeft = kern_O2;
kernRight = kern_O1;
layers = (
{
anchors = (
{
name = bottom;
pos = (417,0);
},
{
name = right;
pos = (431,0);
},
{
name = top;
pos = (391,710);
}
);
layerId = m01;
shapes = (
{
closed = 1;
nodes = (
(595,-10,o),
(737,134,o),
(737,330,cs),
(737,526,o),
(595,670,o),
(403,670,cs),
(212,670,o),
(70,526,o),
(70,330,cs),
(70,134,o),
(212,-10,o),
(403,-10,cs)
);
},
{
closed = 1;
nodes = (
(281,40,o),
(167,168,o),
(167,363,cs),
(167,521,o),
(258,621,o),
(386,621,cs),
(528,621,o),
(640,494,o),
(640,299,cs),
(640,141,o),
(552,40,o),
(424,40,cs)
);
}
);
width = 807;
},
{
anchors = (
{
name = bottom;
pos = (389,0);
},
{
name = right;
pos = (423,0);
},
{
name = top;
pos = (389,710);
}
);
layerId = m002;
shapes = (
{
closed = 1;
nodes = (
(591,-10,o),
(742,134,o),
(742,330,cs),
(742,526,o),
(591,670,o),
(388,670,cs),
(186,670,o),
(35,526,o),
(35,330,cs),
(35,134,o),
(186,-10,o),
(388,-10,cs)
);
},
{
closed = 1;
nodes = (
(309,43,o),
(235,169,o),
(235,361,cs),
(235,518,o),
(296,618,o),
(377,618,cs),
(470,618,o),
(542,493,o),
(542,301,cs),
(542,144,o),
(485,43,o),
(401,43,cs)
);
}
);
width = 777;
}
);
unicode = 79;
},
{
color = 4;
glyphname = Ohorn;
kernLeft = kern_O2;
kernRight = kern_O1;
layers = (
{
anchors = (
{
name = bottom;
pos = (417,0);
},
{
name = right;
pos = (431,0);
},
{
name = top;
pos = (391,710);
}
);
layerId = m01;
shapes = (
{
closed = 1;
nodes = (
(595,-10,o),
(737,134,o),
(737,330,cs),
(737,526,o),
(595,670,o),
(403,670,cs),
(212,670,o),
(70,526,o),
(70,330,cs),
(70,134,o),
(212,-10,o),
(403,-10,cs)
);
},
{
closed = 1;
nodes = (
(281,40,o),
(167,168,o),
(167,363,cs),
(167,521,o),
(258,621,o),
(386,621,cs),
(528,621,o),
(640,494,o),
(640,299,cs),
(640,141,o),
(552,40,o),
(424,40,cs)
);
},
{
closed = 1;
nodes = (
(681,749,o),
(675,753,o),
(654,753,cs),
(619,753,l),
(613,747,l),
(613,696,ls),
(613,663,o),
(600,643,o),
(562,643,cs),
(543,643,o),
(519,647,o),
(488,660,c),
(483,649,l),
(522,630,o),
(546,625,o),
(579,625,cs),
(637,625,o),
(681,665,o),
(681,722,cs)
);
}
);
width = 807;
},
{
anchors = (
{
name = bottom;
pos = (389,0);
},
{
name = right;
pos = (431,0);
},
{
name = top;
pos = (389,710);
}
);
layerId = m002;
shapes = (
{
closed = 1;
nodes = (
(591,-10,o),
(742,134,o),
(742,330,cs),
(742,526,o),
(591,670,o),
(388,670,cs),
(186,670,o),
(35,526,o),
(35,330,cs),
(35,134,o),
(186,-10,o),
(388,-10,cs)
);
},
{
closed = 1;
nodes = (
(309,43,o),
(235,169,o),
(235,361,cs),
(235,518,o),
(296,618,o),
(377,618,cs),
(470,618,o),
(542,493,o),
(542,301,cs),
(542,144,o),
(485,43,o),
(401,43,cs)
);
},
{
closed = 1;
nodes = (
(750,749,o),
(744,753,o),
(723,753,cs),
(649,753,l),
(643,747,l),
(643,701,ls),
(643,664,o),
(622,641,o),
(563,641,cs),
(541,641,o),
(517,643,o),
(480,660,c),
(470,637,l),
(511,615,o),
(557,608,o),
(603,608,cs),
(697,608,o),
(750,646,o),
(750,722,cs)
);
}
);
width = 777;
}
);
unicode = 416;
},
{
color = 5;
glyphname = Omega;
layers = (
{
layerId = m01;
shapes = (
{
closed = 1;
nodes = (
(364,0,l),
(364,40,l),
(238.084,129.269,o),
(167,221,o),
(167,392,cs),
(167,532,o),
(263,621,o),
(403,621,c),
(543,621,o),
(639,532,o),
(639,392,cs),
(639,221,o),
(568,129,o),
(442,40,c),
(442,0,l),
(756,0,l),
(756,160,l),
(740,160,l),
(700,80,l),
(541,80,l),
(541,75,l),
(615,136,o),
(736,218,o),
(736,377,cs),
(736,546,o),
(594,670,o),
(403,670,c),
(212,670,o),
(70,546,o),
(70,377,cs),
(70,218,o),
(191,136,o),
(265,75,c),
(265,80,l),
(106,80,l),
(66,160,l),
(50,160,l),
(50,0,l)
);
}
);
width = 806;
},
{
layerId = m002;
shapes = (
{
closed = 1;
nodes = (
(363,0,l),
(363,54,l),
(277.603,155.859,o),
(246,245.912,o),
(246,377,cs),
(246,495.617,o),
(292,618,o),
(403,618,cs),
(514,618,o),
(560,495.617,o),
(560,377,cs),
(560,245.912,o),
(528.397,155.859,o),
(443,54,c),
(443,0,l),
(777,0,l),
(777,200,l),
(761,200,l),
(721,120,l),
(552,120,l),
(552,115,l),
(642,166,o),
(757,246,o),
(757,370,cs),
(757,543,o),
(606,670,o),
(403,670,cs),
(200,670,o),
(49,543,o),
(49,370,cs),
(49,246,o),
(164,166,o),
(254,115,c),
(254,120,l),
(85,120,l),
(45,200,l),
(29,200,l),
(29,0,l)
);
}
);
width = 806;
}
);
unicode = 42934;
},
{
color = 5;
glyphname = Oslash;
kernLeft = kern_O2;
kernRight = kern_O1;
layers = (
{
anchors = (
{
name = top;
pos = (391,710);
}
);
layerId = m01;
shapes = (
{
closed = 1;
nodes = (
(595,-10,o),
(737,134,o),
(737,330,cs),
(737,422,o),
(709,500,o),
(655,559,cs),
(653,561,o),
(650,564,o),
(650,568,cs),
(650,571,o),
(654,576,o),
(656,578,cs),
(722,653,ls),
(726,657,o),
(729,661,o),
(729,665,cs),
(729,669,o),
(726,670,o),
(723,670,cs),
(678,670,ls),
(669,670,o),
(666,667,o),
(663,664,cs),
(615,610,ls),
(613,608,o),
(611,606,o),
(609,606,cs),
(606,606,o),
(604,607,o),
(602,608,cs),
(547,647,o),
(479,670,o),
(403,670,cs),
(212,670,o),
(70,526,o),
(70,330,cs),
(70,240,o),
(100,160,o),
(152,101,cs),
(155,98,o),
(157,95,o),
(157,92,cs),
(157,89,o),
(156,87,o),
(154,85,cs),
(81,2,ls),
(79,0,o),
(77,-4,o),
(77,-7,cs),
(77,-10,o),
(80,-10,o),
(83,-10,cs),
(127,-10,ls),
(135,-10,o),
(143,-6,o),
(148,0,cs),
(189,47,ls),
(192,50,o),
(196,53,o),
(199,53,cs),
(202,53,o),
(205,52,o),
(209,49,cs),
(261,10,o),
(327,-10,o),
(403,-10,cs)
);
},
{
closed = 1;
nodes = (
(214,169,o),
(211,173,o),
(209,177,cs),
(183,225,o),
(167,287,o),
(167,363,cs),
(167,521,o),
(258,621,o),
(386,621,cs),
(448,621,o),
(503,598,o),
(547,554,cs),
(552,549,o),
(552,546,o),
(552,542,cs),
(552,539,o),
(549,535,o),
(546,532,cs),
(233,176,ls),
(230,173,o),
(225,169,o),
(219,169,cs)
);
},
{
closed = 1;
nodes = (
(363,40,o),
(307,63,o),
(263,106,cs),
(259,110,o),
(256,115,o),
(256,119,cs),
(256,122,o),
(258,126,o),
(265,134,cs),
(581,492,ls),
(584,495,o),
(585,497,o),
(588,497,cs),
(591,497,o),
(593,495,o),
(595,491,cs),
(623,440,o),
(640,374,o),
(640,299,cs),
(640,141,o),
(552,40,o),
(424,40,cs)
);
}
);
width = 807;
},
{
anchors = (
{
name = top;
pos = (389,710);
}
);
layerId = m002;
shapes = (
{
closed = 1;
nodes = (
(595,-10,o),
(743,134,o),
(743,330,cs),
(743,422,o),
(710,500,o),
(656,559,cs),
(654,561,o),
(651,564,o),
(651,568,cs),
(651,571,o),
(655,576,o),
(657,578,cs),
(727,653,ls),
(731,657,o),
(734,661,o),
(734,665,cs),
(734,669,o),
(731,670,o),
(728,670,cs),
(672,670,ls),
(663,670,o),
(660,667,o),
(657,664,cs),
(607,611,ls),
(605,609,o),
(603,607,o),
(601,607,cs),
(598,607,o),
(596,608,o),
(594,609,cs),
(539,648,o),
(479,670,o),
(403,670,cs),
(182,670,o),
(34,526,o),
(34,330,cs),
(34,240,o),
(69,160,o),
(121,101,cs),
(124,98,o),
(126,95,o),
(126,92,cs),
(126,89,o),
(125,87,o),
(123,85,cs),
(46,2,ls),
(44,0,o),
(41,-4,o),
(41,-7,cs),
(41,-10,o),
(45,-10,o),
(48,-10,cs),
(103,-10,ls),
(111,-10,o),
(119,-6,o),
(124,0,cs),
(168,47,ls),
(171,50,o),
(173,52,o),
(176,52,cs),
(179,52,o),
(182,50,o),
(186,47,cs),
(230,11,o),
(317,-10,o),
(403,-10,cs)
);
},
{
closed = 1;
nodes = (
(249,235,o),
(246,239,o),
(245,245,cs),
(240,273,o),
(235,297,o),
(235,363,cs),
(235,521,o),
(296,618,o),
(378,618,cs),
(440,618,o),
(481,568,o),
(502,515,cs),
(505,508,o),
(507,507,o),
(507,503,cs),
(507,500,o),
(504,496,o),
(501,493,cs),
(269,244,ls),
(264,239,o),
(260,235,o),
(254,235,cs)
);
},
{
closed = 1;
nodes = (
(348,43,o),
(307,82,o),
(278,141,cs),
(275,146,o),
(272,151,o),
(272,155,cs),
(272,158,o),
(274,162,o),
(281,170,cs),
(518,426,ls),
(521,429,o),
(522,431,o),
(525,431,cs),
(528,431,o),
(532,429,o),
(532,425,cs),
(535,392,o),
(542,369,o),
(542,294,cs),
(542,136,o),
(477,43,o),
(403,43,cs)
);
}
);
width = 777;
},
{
anchors = (
{
name = top;
pos = (391,710);
}
);
associatedMasterId = m01;
layerId = "6193866C-C7B3-4E5F-8DBC-CFCD8DE92972";
name = "Dec 21, 21, 20:14";
shapes = (
{
closed = 1;
nodes = (
(595,-10,o),
(737,134,o),
(737,330,cs),
(737,526,o),
(595,670,o),
(403,670,cs),
(212,670,o),
(70,526,o),
(70,330,cs),
(70,134,o),
(212,-10,o),
(403,-10,cs)
);
},
{
closed = 1;
nodes = (
(281,40,o),
(167,168,o),
(167,363,cs),
(167,521,o),
(258,621,o),
(386,621,cs),
(528,621,o),
(640,494,o),
(640,299,cs),
(640,141,o),
(552,40,o),
(424,40,cs)
);
},
{
closed = 1;
nodes = (
(139,-10,l),
(737,670,l),
(668,670,l),
(70,-10,l)
);
}
);
width = 807;
},
{
anchors = (
{
name = top;
pos = (389,710);
}
);
associatedMasterId = m002;
layerId = "F2DE0161-FA20-4810-BB47-0FC49B9374DC";
name = "Dec 21, 21, 20:14";
shapes = (
{
closed = 1;
nodes = (
(591,-10,o),
(742,134,o),
(742,330,cs),
(742,526,o),
(591,670,o),
(388,670,cs),
(186,670,o),
(35,526,o),
(35,330,cs),
(35,134,o),
(186,-10,o),
(388,-10,cs)
);
},
{
closed = 1;
nodes = (
(309,43,o),
(235,169,o),
(235,361,cs),
(235,518,o),
(296,618,o),
(377,618,cs),
(470,618,o),
(542,493,o),
(542,301,cs),
(542,144,o),
(485,43,o),
(401,43,cs)
);
},
{
closed = 1;
nodes = (
(115,-10,l),
(742,670,l),
(662,670,l),
(35,-10,l)
);
}
);
visible = 1;
width = 777;
}
);
unicode = 216;
},
{
color = 5;
glyphname = OE;
kernLeft = kern_O2;
kernRight = kern_E1;
layers = (
{
layerId = m01;
shapes = (
{
closed = 1;
nodes = (
(596,0,l),
(596,660,l),
(424,660,ls),
(221,660,o),
(70,522,o),
(70,326,cs),
(70,130,o),
(200,2,o),
(417,0,cs)
);
},
{
closed = 1;
nodes = (
(264,55,o),
(165,164,o),
(165,330,cs),
(165,499,o),
(264,605,o),
(425,605,cs),
(535,605,l),
(506,627,l),
(506,28,l),
(532,55,l),
(440,55,ls)
);
},
{
closed = 1;
nodes = (
(915,660,l),
(563,660,l),
(563,605,l),
(837,605,l),
(899,488,l),
(915,488,l)
);
},
{
closed = 1;
nodes = (
(832,451,l),
(816,451,l),
(766,368,l),
(551,368,l),
(551,313,l),
(766,313,l),
(816,232,l),
(832,232,l)
);
},
{
closed = 1;
nodes = (
(943,182,l),
(927,182,l),
(865,55,l),
(571,55,l),
(571,0,l),
(943,0,l)
);
}
);
width = 1013;
},
{
layerId = m002;
shapes = (
{
closed = 1;
nodes = (
(688,0,l),
(688,660,l),
(430,660,ls),
(201,660,o),
(35,528,o),
(35,315,cs),
(35,119,o),
(176,0,o),
(423,0,c)
);
},
{
closed = 1;
nodes = (
(307,55,o),
(231,166,o),
(231,341,cs),
(231,502,o),
(309,605,o),
(454,605,cs),
(541,605,l),
(498,633,l),
(498,28,l),
(569,55,l),
(463,55,ls)
);
},
{
closed = 1;
nodes = (
(991,660,l),
(586,660,l),
(586,605,l),
(893,605,l),
(975,486,l),
(991,486,l)
);
},
{
closed = 1;
nodes = (
(908,456,l),
(892,456,l),
(832,368,l),
(594,368,l),
(594,313,l),
(832,313,l),
(892,227,l),
(908,227,l)
);
},
{
closed = 1;
nodes = (
(1019,219,l),
(1003,219,l),
(914,55,l),
(614,55,l),
(614,0,l),
(1019,0,l)
);
}
);
width = 1059;
}
);
unicode = 338;
},
{
color = 5;
glyphname = P;
kernLeft = kern_H2;
kernRight = kern_P1;
layers = (
{
layerId = m01;
shapes = (
{
closed = 1;
nodes = (
(325,0,l),
(325,16,l),
(235,56,l),
(235,605,l),
(313,605,ls),
(426,605,o),
(489,566,o),
(489,473,cs),
(489,398,o),
(425,346,o),
(320,346,cs),
(210,346,l),
(210,291,l),
(301,291,ls),
(464,291,o),
(586,372,o),
(586,481,cs),
(586,605,o),
(482,660,o),
(325,660,cs),
(65,660,l),
(65,644,l),
(145,604,l),
(145,56,l),
(65,16,l),
(65,0,l)
);
}
);
width = 638;
},
{
layerId = m002;
shapes = (
{
closed = 1;
nodes = (
(419,0,l),
(419,16,l),
(309,58,l),
(309,605,l),
(327,605,ls),
(440,605,o),
(503,566,o),
(503,473,cs),
(503,398,o),
(439,341,o),
(334,341,cs),
(284,341,l),
(284,296,l),
(408,296,ls),
(571,296,o),
(693,368,o),
(693,483,cs),
(693,607,o),
(589,660,o),
(432,660,cs),
(30,660,l),
(30,644,l),
(119,602,l),
(119,58,l),
(30,16,l),
(30,0,l)
);
}
);
width = 713;
}
);
unicode = 80;
},
{
color = 5;
glyphname = Thorn;
kernLeft = kern_H2;
kernRight = kern_Thorn1;
layers = (
{
layerId = m01;
shapes = (
{
closed = 1;
nodes = (
(315,0,l),
(315,16,l),
(235,56,l),
(235,604,l),
(315,644,l),
(315,660,l),
(65,660,l),
(65,644,l),
(145,604,l),
(145,56,l),
(65,16,l),
(65,0,l)
);
},
{
closed = 1;
nodes = (
(464,171,o),
(586,252,o),
(586,361,cs),
(586,485,o),
(482,540,o),
(325,540,cs),
(218,540,l),
(218,485,l),
(313,485,ls),
(426,485,o),
(489,446,o),
(489,353,cs),
(489,278,o),
(425,226,o),
(320,226,cs),
(210,226,l),
(210,171,l),
(301,171,ls)
);
}
);
width = 638;
},
{
layerId = m002;
shapes = (
{
closed = 1;
nodes = (
(398,0,l),
(398,16,l),
(309,58,l),
(309,602,l),
(398,644,l),
(398,660,l),
(30,660,l),
(30,644,l),
(119,602,l),
(119,58,l),
(30,16,l),
(30,0,l)
);
},
{
closed = 1;
nodes = (
(571,162,o),
(693,234,o),
(693,349,cs),
(693,473,o),
(589,526,o),
(432,526,cs),
(284,526,l),
(284,471,l),
(327,471,ls),
(440,471,o),
(503,432,o),
(503,339,cs),
(503,264,o),
(439,207,o),
(334,207,cs),
(284,207,l),
(284,162,l),
(408,162,ls)
);
}
);
width = 713;
}
);
unicode = 222;
},
{
color = 5;
glyphname = Q;
kernLeft = kern_O2;
kernRight = kern_O1;
layers = (
{
layerId = m01;
shapes = (
{
closed = 1;
nodes = (
(595,-10,o),
(737,134,o),
(737,330,cs),
(737,526,o),
(595,670,o),
(403,670,cs),
(212,670,o),
(70,526,o),
(70,330,cs),
(70,134,o),
(212,-10,o),
(403,-10,cs)
);
},
{
closed = 1;
nodes = (
(281,40,o),
(167,168,o),
(167,363,cs),
(167,521,o),
(258,621,o),
(386,621,cs),
(528,621,o),
(640,494,o),
(640,299,cs),
(640,141,o),
(552,40,o),
(424,40,cs)
);
},
{
closed = 1;
nodes = (
(732,-149,o),
(776,-138,o),
(807,-122,c),
(807,-106,l),
(792,-111,o),
(771,-115,o),
(743,-115,cs),
(673,-115,o),
(606,-83,o),
(483,16,c),
(347,16,l),
(515,-126,o),
(599,-149,o),
(682,-149,cs)
);
}
);
width = 807;
},
{
layerId = m002;
shapes = (
{
closed = 1;
nodes = (
(591,-10,o),
(742,134,o),
(742,330,cs),
(742,526,o),
(591,670,o),
(388,670,cs),
(186,670,o),
(35,526,o),
(35,330,cs),
(35,134,o),
(186,-10,o),
(388,-10,cs)
);
},
{
closed = 1;
nodes = (
(309,43,o),
(235,169,o),
(235,361,cs),
(235,518,o),
(296,618,o),
(377,618,cs),
(470,618,o),
(542,493,o),
(542,301,cs),
(542,144,o),
(485,43,o),
(401,43,cs)
);
},
{
closed = 1;
nodes = (
(748.765,-159,o),
(786.595,-146.196,o),
(816,-132,c),
(816,-104,l),
(801,-108,o),
(780,-114,o),
(748,-114,cs),
(694,-114,o),
(623,-86,o),
(510,16,c),
(293,16,l),
(460.505,-116.608,o),
(579.218,-159,o),
(689,-159,cs)
);
}
);
width = 777;
}
);
unicode = 81;
},
{
color = 5;
glyphname = R;
kernLeft = kern_H2;
kernRight = kern_R1;
layers = (
{
anchors = (
{
name = bottom;
pos = (367,0);
},
{
name = top;
pos = (317,710);
}
);
layerId = m01;
shapes = (
{
closed = 1;
nodes = (
(310,0,l),
(310,16,l),
(235,57,l),
(235,660,l),
(65,660,l),
(65,644,l),
(145,604,l),
(145,56,l),
(65,16,l),
(65,0,l)
);
},
{
closed = 1;
nodes = (
(549,598,o),
(463,660,o),
(323,660,cs),
(182,660,l),
(182,605,l),
(300,605,ls),
(394,605,o),
(452,559,o),
(452,484,cs),
(452,411,o),
(390,358,o),
(306,358,cs),
(190,358,l),
(190,303,l),
(333,303,l),
(333,312,l),
(457,324,o),
(549,401,o),
(549,497,cs)
);
},
{
closed = 1;
nodes = (
(666,0,l),
(666,16,l),
(600,52,l),
(402,341,l),
(304,341,l),
(522,0,l)
);
}
);
width = 661;
},
{
anchors = (
{
name = bottom;
pos = (428,0);
},
{
name = top;
pos = (357,710);
}
);
layerId = m002;
shapes = (
{
closed = 1;
nodes = (
(384,0,l),
(384,16,l),
(309,59,l),
(309,660,l),
(30,660,l),
(30,644,l),
(119,602,l),
(119,58,l),
(30,16,l),
(30,0,l)
);
},
{
closed = 1;
nodes = (
(653,598,o),
(567,660,o),
(427,660,cs),
(256,660,l),
(256,605,l),
(333,605,ls),
(423,605,o),
(466,560.466,o),
(466,479,cs),
(466,402.983,o),
(419,353,o),
(339,353,cs),
(264,353,l),
(264,308,l),
(398,308,l),
(414,319,l),
(551,342,o),
(653,394,o),
(653,497,cs)
);
},
{
closed = 1;
nodes = (
(780,0,l),
(780,16,l),
(704,59,l),
(512,361,l),
(321,336,l),
(516,0,l)
);
}
);
width = 770;
}
);
unicode = 82;
},
{
color = 5;
glyphname = S;
kernLeft = kern_S3;
kernRight = kern_S3;
layers = (
{
anchors = (
{
name = bottom;
pos = (272,0);
},
{
name = top;
pos = (272,710);
}
);
layerId = m01;
shapes = (
{
closed = 1;
nodes = (
(356,-10,o),
(476,55,o),
(476,180,cs),
(476,282,o),
(420,319,o),
(299,378,cs),
(211,421,o),
(171,450,o),
(171,518,cs),
(171,577,o),
(213,622,o),
(272,622,cs),
(320,622,o),
(351,606,o),
(402,566,c),
(384,593,l),
(439,468,l),
(455,468,l),
(445,628,l),
(391,655,o),
(342,670,o),
(280,670,cs),
(179,670,o),
(81,577,o),
(81,487,cs),
(81,395,o),
(134,357,o),
(228,310,cs),
(328,260,o),
(390,239,o),
(390,152,cs),
(390,81,o),
(343,37,o),
(264,37,cs),
(215,37,o),
(168,56,o),
(115,102,c),
(142,56,l),
(76,200,l),
(60,200,l),
(70,36,l),
(132,5,o),
(182,-10,o),
(264,-10,cs)
);
}
);
width = 531;
},
{
anchors = (
{
name = bottom;
pos = (297,0);
},
{
name = top;
pos = (318,710);
}
);
layerId = m002;
shapes = (
{
closed = 1;
nodes = (
(425,-10,o),
(555,71,o),
(555,203,cs),
(555,295.82,o),
(499.631,354.16,o),
(378,407,cs),
(275.419,452.256,o),
(244,479.581,o),
(244,527,cs),
(244,581.871,o),
(282,615,o),
(334,615,cs),
(381,615,o),
(414,596,o),
(451,564,c),
(410,611,l),
(516,462,l),
(534,462,l),
(524,622,l),
(471.381,652.207,o),
(398,670,o),
(326,670,cs),
(195,670,o),
(60,576,o),
(60,455,cs),
(60,372.753,o),
(112.219,310.91,o),
(207,272,cs),
(348.478,212.8,o),
(375,191.943,o),
(375,136,cs),
(375,71.91,o),
(323,44,o),
(255,44,cs),
(207,44,o),
(159,66,o),
(132,93,c),
(158,62,l),
(58,217,l),
(39,217,l),
(49,44,l),
(113,11,o),
(184,-10,o),
(276,-10,cs)
);
}
);
width = 599;
}
);
unicode = 83;
},
{
color = 5;
glyphname = T;
kernLeft = kern_T2;
kernRight = kern_T1;
layers = (
{
anchors = (
{
name = bottom;
pos = (337,0);
},
{
name = top;
pos = (337,710);
}
);
layerId = m01;
shapes = (
{
closed = 1;
nodes = (
(482,0,l),
(482,16,l),
(382,56,l),
(382,605,l),
(545,605,l),
(613,458,l),
(629,458,l),
(629,660,l),
(45,660,l),
(45,458,l),
(61,458,l),
(129,605,l),
(292,605,l),
(292,56,l),
(192,16,l),
(192,0,l)
);
}
);
width = 674;
},
{
anchors = (
{
name = bottom;
pos = (359,0);
},
{
name = top;
pos = (359,710);
}
);
layerId = m002;
shapes = (
{
closed = 1;
nodes = (
(564,0,l),
(564,16,l),
(454,58,l),
(454,605,l),
(584,605,l),
(672,429,l),
(688,429,l),
(688,660,l),
(30,660,l),
(30,429,l),
(46,429,l),
(134,605,l),
(264,605,l),
(264,58,l),
(154,16,l),
(154,0,l)
);
}
);
width = 718;
}
);
unicode = 84;
},
{
color = 5;
glyphname = U;
kernLeft = kern_U2;
kernRight = kern_U1;
layers = (
{
anchors = (
{
name = bottom;
pos = (402,0);
},
{
name = right;
pos = (431,0);
},
{
name = top;
pos = (415,710);
}
);
layerId = m01;
shapes = (
{
closed = 1;
nodes = (
(554,-10,o),
(665,70,o),
(665,256,cs),
(665,605,l),
(744,644,l),
(744,660,l),
(495,660,l),
(495,644,l),
(595,606,l),
(595,236,ls),
(595,101,o),
(519,48,o),
(431,48,cs),
(321,48,o),
(235,105,o),
(235,271,cs),
(235,604,l),
(315,644,l),
(315,660,l),
(65,660,l),
(65,644,l),
(145,604,l),
(145,256,ls),
(145,70,o),
(256,-10,o),
(405,-10,cs)
);
}
);
width = 809;
},
{
anchors = (
{
name = bottom;
pos = (468,0);
},
{
name = right;
pos = (479,0);
},
{
name = top;
pos = (483,710);
}
);
layerId = m002;
shapes = (
{
closed = 1;
nodes = (
(617.75,-10,o),
(736,66,o),
(736,302,cs),
(736,603,l),
(826,644,l),
(826,660,l),
(576,660,l),
(576,644,l),
(666,604,l),
(666,255,ls),
(666,124,o),
(586,76,o),
(498,76,cs),
(395,76,o),
(310,127,o),
(310,290,cs),
(310,602,l),
(400,644,l),
(400,660,l),
(30,660,l),
(30,644,l),
(120,602,l),
(120,302,ls),
(120,66,o),
(244.773,-10,o),
(435,-10,cs)
);
}
);
width = 856;
}
);
unicode = 85;
},
{
color = 4;
glyphname = Uhorn;
kernLeft = kern_U2;
kernRight = kern_Uhorn1;
layers = (
{
anchors = (
{
name = bottom;
pos = (402,0);
},
{
name = right;
pos = (431,0);
},
{
name = top;
pos = (415,710);
}
);
layerId = m01;
shapes = (
{
closed = 1;
nodes = (
(554,-10,o),
(665,70,o),
(665,256,cs),
(665,605,l),
(744,644,l),
(744,660,l),
(495,660,l),
(495,644,l),
(595,606,l),
(595,236,ls),
(595,101,o),
(519,48,o),
(431,48,cs),
(321,48,o),
(235,105,o),
(235,271,cs),
(235,604,l),
(315,644,l),
(315,660,l),
(65,660,l),
(65,644,l),
(145,604,l),
(145,256,ls),
(145,70,o),
(256,-10,o),
(405,-10,cs)
);
},
{
closed = 1;
nodes = (
(869,749,o),
(863,753,o),
(842,753,cs),
(807,753,l),
(801,747,l),
(801,713,ls),
(801,680,o),
(788,660,o),
(750,660,cs),
(676,660,l),
(671,642,l),
(767,642,ls),
(825,642,o),
(869,665,o),
(869,722,cs)
);
}
);
width = 809;
},
{
anchors = (
{
name = bottom;
pos = (468,0);
},
{
name = right;
pos = (511,0);
},
{
name = top;
pos = (483,710);
}
);
layerId = m002;
shapes = (
{
closed = 1;
nodes = (
(618,-10,o),
(736,66,o),
(736,302,cs),
(736,603,l),
(826,644,l),
(826,660,l),
(576,660,l),
(576,644,l),
(666,604,l),
(666,255,ls),
(666,124,o),
(586,76,o),
(498,76,cs),
(395,75,o),
(310,127,o),
(310,290,cs),
(310,602,l),
(400,644,l),
(400,660,l),
(30,660,l),
(30,644,l),
(120,602,l),
(120,302,ls),
(120,66,o),
(245,-10,o),
(435,-10,cs)
);
},
{
closed = 1;
nodes = (
(1001,749,o),
(995,753,o),
(974,753,cs),
(900,753,l),
(894,747,l),
(894,701,ls),
(894,668,o),
(873,660,o),
(814,660,cs),
(731,660,l),
(731,628,l),
(854,628,ls),
(948,628,o),
(1001,656,o),
(1001,722,cs)
);
}
);
width = 856;
}
);
unicode = 431;
},
{
color = 5;
glyphname = V;
kernLeft = kern_V3;
kernRight = kern_V3;
layers = (
{
layerId = m01;
shapes = (
{
closed = 1;
nodes = (
(391,-5,l),
(656,632,l),
(632,605,l),
(705,644,l),
(705,660,l),
(495,660,l),
(495,644,l),
(577,610,l),
(577,606,l),
(373,99,l),
(411,144,l),
(366,144,l),
(404,99,l),
(199,602,l),
(199,607,l),
(285,644,l),
(285,660,l),
(35,660,l),
(35,644,l),
(144,588,l),
(94,632,l),
(356,-5,l)
);
}
);
width = 740;
},
{
layerId = m002;
shapes = (
{
closed = 1;
nodes = (
(429,-5,l),
(720,632,l),
(680,594,l),
(769,644,l),
(769,660,l),
(552,660,l),
(552,644,l),
(654,594,l),
(645,632,l),
(435,168,l),
(486,229,l),
(431,229,l),
(482,168,l),
(272,632,l),
(260,594,l),
(361,644,l),
(361,660,l),
(9,660,l),
(9,644,l),
(118,581,l),
(68,632,l),
(356,-5,l)
);
}
);
width = 780;
}
);
unicode = 86;
},
{
color = 5;
glyphname = W;
kernLeft = kern_W3;
kernRight = kern_W3;
layers = (
{
anchors = (
{
name = top;
pos = (506,710);
}
);
layerId = m01;
shapes = (
{
closed = 1;
nodes = (
(309,-5,l),
(512,543,l),
(471,485,l),
(516,485,l),
(475,543,l),
(678,-5,l),
(713,-5,l),
(906,632,l),
(876,595,l),
(966,644,l),
(966,660,l),
(745,660,l),
(745,644,l),
(854,595,l),
(838,632,l),
(694,129,l),
(726,174,l),
(681,174,l),
(717,129,l),
(524,665,l),
(487,665,l),
(296,122,l),
(333,174,l),
(288,174,l),
(324,122,l),
(177,632,l),
(150,592,l),
(269,644,l),
(269,660,l),
(15,660,l),
(15,644,l),
(124,592,l),
(83,632,l),
(274,-5,l)
);
}
);
width = 981;
},
{
anchors = (
{
name = top;
pos = (606,710);
}
);
layerId = m002;
shapes = (
{
closed = 1;
nodes = (
(358,-5,l),
(575,477,l),
(518,410,l),
(576,410,l),
(523,477,l),
(729,-5,l),
(802,-5,l),
(1011,632,l),
(973,594,l),
(1071,644,l),
(1071,660,l),
(843,660,l),
(843,644,l),
(953,594,l),
(936,632,l),
(790,162,l),
(843,252,l),
(789,252,l),
(848,162,l),
(642,665,l),
(569,665,l),
(359,164,l),
(424,252,l),
(364,252,l),
(416,164,l),
(272,632,l),
(245,589,l),
(364,644,l),
(364,660,l),
(10,660,l),
(10,644,l),
(119,583,l),
(78,632,l),
(285,-5,l)
);
}
);
width = 1081;
}
);
unicode = 87;
},
{
color = 5;
glyphname = X;
kernLeft = kern_X3;
kernRight = kern_X3;
layers = (
{
layerId = m01;
shapes = (
{
closed = 1;
nodes = (
(705,0,l),
(705,16,l),
(596,76,l),
(664,16,l),
(220,602,l),
(220,607,l),
(300,644,l),
(300,660,l),
(50,660,l),
(50,644,l),
(159,584,l),
(96,632,l),
(523,56,l),
(523,52,l),
(450,16,l),
(450,0,l)
);
},
{
closed = 1;
nodes = (
(260,0,l),
(260,16,l),
(179,52,l),
(179,56,l),
(374,313,l),
(338,352,l),
(85,24,l),
(136,68,l),
(35,16,l),
(35,0,l)
);
},
{
closed = 1;
nodes = (
(470,660,l),
(470,644,l),
(546,607,l),
(546,603,l),
(366,373,l),
(399,327,l),
(636,632,l),
(599,597,l),
(680,644,l),
(680,660,l)
);
}
);
width = 740;
},
{
layerId = m002;
shapes = (
{
closed = 1;
nodes = (
(786,0,l),
(786,16,l),
(673,81,l),
(739,21,l),
(334,598,l),
(334,603,l),
(412,644,l),
(412,660,l),
(30,660,l),
(30,644,l),
(143,579,l),
(80,632,l),
(471,59,l),
(471,55,l),
(399,16,l),
(399,0,l)
);
},
{
closed = 1;
nodes = (
(270,0,l),
(270,16,l),
(190,57,l),
(193,61,l),
(402,313,l),
(351,352,l),
(87,38,l),
(129,70,l),
(20,16,l),
(20,0,l)
);
},
{
closed = 1;
nodes = (
(514,660,l),
(514,644,l),
(594,602,l),
(594,598,l),
(412,372,l),
(453,327,l),
(713,630,l),
(638,581,l),
(765,644,l),
(765,660,l)
);
}
);
width = 806;
}
);
unicode = 88;
},
{
color = 5;
glyphname = Y;
kernLeft = kern_Y3;
kernRight = kern_Y3;
layers = (
{
anchors = (
{
name = bottom;
pos = (363,0);
},
{
name = top;
pos = (374,710);
}
);
layerId = m01;
shapes = (
{
closed = 1;
nodes = (
(498,0,l),
(498,16,l),
(408,56,l),
(408,332,l),
(378,266,l),
(634,632,l),
(598,600,l),
(683,644,l),
(683,660,l),
(471,660,l),
(471,644,l),
(544,608,l),
(544,604,l),
(372,346,l),
(395,346,l),
(204,605,l),
(204,609,l),
(277,644,l),
(277,660,l),
(35,660,l),
(35,644,l),
(130,592,l),
(80,632,l),
(349,266,l),
(318,332,l),
(318,56,l),
(228,16,l),
(228,0,l)
);
}
);
width = 718;
},
{
anchors = (
{
name = bottom;
pos = (393,0);
},
{
name = top;
pos = (442,710);
}
);
layerId = m002;
shapes = (
{
closed = 1;
nodes = (
(577,0,l),
(577,16,l),
(488,58,l),
(488,354,l),
(457,264,l),
(714,632,l),
(644,584,l),
(768,644,l),
(768,660,l),
(530,660,l),
(530,644,l),
(610,603,l),
(610,599,l),
(442,348,l),
(474,348,l),
(286,601,l),
(286,605,l),
(363,644,l),
(363,660,l),
(10,660,l),
(10,644,l),
(110,586,l),
(60,632,l),
(329,266,l),
(298,354,l),
(298,58,l),
(209,16,l),
(209,0,l)
);
}
);
width = 778;
}
);
unicode = 89;
},
{
color = 5;
glyphname = Z;
kernLeft = kern_Z3;
kernRight = kern_Z3;
layers = (
{
anchors = (
{
name = bottom;
pos = (333,0);
},
{
name = top;
pos = (333,710);
}
);
layerId = m01;
shapes = (
{
closed = 1;
nodes = (
(556,0,l),
(556,192,l),
(540,192,l),
(478,55,l),
(182,55,l),
(182,19,l),
(545,635,l),
(545,660,l),
(102,660,l),
(102,478,l),
(118,478,l),
(180,605,l),
(452,605,l),
(452,641,l),
(90,25,l),
(90,0,l)
);
}
);
width = 646;
},
{
anchors = (
{
name = bottom;
pos = (369,0);
},
{
name = top;
pos = (369,710);
}
);
layerId = m002;
shapes = (
{
closed = 1;
nodes = (
(656,0,l),
(656,229,l),
(640,229,l),
(551,55,l),
(275,55,l),
(275,9,l),
(645,623,l),
(645,660,l),
(92,660,l),
(92,441,l),
(108,441,l),
(190,605,l),
(442,605,l),
(442,639,l),
(80,37,l),
(80,0,l)
);
}
);
width = 736;
}
);
unicode = 90;
},
{
color = 5;
glyphname = a;
kernLeft = kernLC_a2;
kernRight = kernLC_a1;
layers = (
{
anchors = (
{
name = bottom;
pos = (237,0);
},
{
name = right;
pos = (402,0);
},
{
name = top;
pos = (225,510);
}
);
layerId = m01;
shapes = (
{
closed = 1;
nodes = (
(212,-10,o),
(266,16,o),
(301,50,c),
(319,50,l),
(319,83,l),
(269,60,o),
(237,52,o),
(200,52,cs),
(152,52,o),
(125,73,o),
(125,114,cs),
(125,162,o),
(144,197,o),
(333,229,c),
(333,265,l),
(206,235,ls),
(91,208,o),
(47,159,o),
(47,94,c),
(47,29,o),
(93,-10,o),
(156,-10,cs)
);
},
{
closed = 1;
nodes = (
(430,-10,o),
(462,16,o),
(478,45,c),
(478,48,l),
(475,50,l),
(437,50,ls),
(407,50,o),
(390,57,o),
(381,67,c),
(381,351,ls),
(381,435,o),
(308,460,o),
(237,460,cs),
(191,460,o),
(150,442,o),
(113,418,cs),
(77,395,o),
(60,362,o),
(60,333,cs),
(60,309,o),
(66,305,o),
(86,305,cs),
(138,305,l),
(143,310,l),
(143,338,ls),
(143,384,o),
(160,413,o),
(211,413,cs),
(257,413,o),
(301,376,o),
(301,330,cs),
(301,71,l),
(303,71,l),
(309,23,o),
(336,-10,o),
(385,-10,cs)
);
}
);
width = 489;
},
{
anchors = (
{
name = bottom;
pos = (248,0);
},
{
name = right;
pos = (459,0);
},
{
name = top;
pos = (258,510);
}
);
layerId = m002;
shapes = (
{
closed = 1;
nodes = (
(207,-9,o),
(249,23,o),
(282,64,c),
(302,64,l),
(302,97,l),
(286,90,o),
(271,84,o),
(253,84,cs),
(216,84,o),
(192,105,o),
(192,147,cs),
(192,204,o),
(227,224,o),
(314,240,c),
(314,287,l),
(188,254,ls),
(54,219,o),
(26,190,o),
(25,113,cs),
(23,34,o),
(82,-9,o),
(148,-9,cs)
);
},
{
closed = 1;
nodes = (
(479,-10,o),
(516,16,o),
(531,38,c),
(531,59,l),
(527,63,l),
(505,63,ls),
(486,63,o),
(472,69,o),
(462,78,c),
(462,330,ls),
(462,424,o),
(374,470,o),
(258,470,cs),
(207,470,o),
(169,460,o),
(115,427,cs),
(73,402,o),
(44,375,o),
(44,346,cs),
(44,323,o),
(51,313,o),
(71,313,cs),
(147,313,l),
(150,317,l),
(150,375,ls),
(150,404.913,o),
(167,418,o),
(205,418,cs),
(254,418,o),
(282,388,o),
(282,333,cs),
(282,69,l),
(284,69,l),
(306,17,o),
(347,-10,o),
(417,-10,cs)
);
}
);
width = 531;
}
);
unicode = 97;
},
{
color = 5;
glyphname = ae;
kernLeft = kernLC_a2;
kernRight = kernLC_e1;
layers = (
{
anchors = (
{
name = top;
pos = (377,510);
}
);
layerId = m01;
shapes = (
{
closed = 1;
nodes = (
(593,-10,o),
(656,37,o),
(687,95,c),
(687,105,l),
(684,105,l),
(634,78,o),
(592,65,o),
(555,65,cs),
(424,65,o),
(382,155,o),
(382,251,cs),
(382,355,o),
(427,416,o),
(500,416,cs),
(559,416,o),
(596,377,o),
(611,284,c),
(629,288,l),
(372,288,l),
(372,242,l),
(681,242,l),
(686,247,l),
(686,384,o),
(621,460,o),
(516,460,cs),
(453,460,o),
(395,427,o),
(355,373,c),
(380,373,l),
(369,439,o),
(302,460,o),
(238,460,cs),
(192,460,o),
(151,442,o),
(114,418,cs),
(78,395,o),
(61,362,o),
(61,333,cs),
(61,309,o),
(67,305,o),
(87,305,cs),
(139,305,l),
(144,310,l),
(144,338,ls),
(144,384,o),
(161,413,o),
(212,413,cs),
(258,413,o),
(302,376,o),
(302,330,cs),
(302,207,ls),
(302,74,o),
(385,-10,o),
(512,-10,cs)
);
},
{
closed = 1;
nodes = (
(234,-10,o),
(298,26,o),
(336,71,c),
(344,71,l),
(344,97,l),
(294,70,o),
(253,52,o),
(201,52,cs),
(153,52,o),
(126,73,o),
(126,114,cs),
(126,162,o),
(145,197,o),
(334,229,c),
(334,265,l),
(207,235,ls),
(92,208,o),
(48,159,o),
(48,94,c),
(48,29,o),
(94,-10,o),
(157,-10,cs)
);
}
);
width = 737;
},
{
anchors = (
{
name = top;
pos = (386,510);
}
);
layerId = m002;
shapes = (
{
closed = 1;
nodes = (
(614,-10,o),
(691,46,o),
(725,124,c),
(725,145,l),
(722,145,l),
(680,124,o),
(637,119,o),
(598,119,cs),
(500,119,o),
(454,171,o),
(454,247,cs),
(454,359,o),
(479,425,o),
(523,425,cs),
(562,425,o),
(585,396,o),
(591,294,c),
(647,306,l),
(390,306,l),
(390,262,l),
(721,262,l),
(724,267,l),
(722,395,o),
(661,470,o),
(551,470,cs),
(480,470,o),
(416,446,o),
(369,405,c),
(437,405,l),
(403,449,o),
(337,470,o),
(258,470,cs),
(207,470,o),
(169,460,o),
(115,427,cs),
(73,402,o),
(44,375,o),
(44,346,cs),
(44,323,o),
(51,313,o),
(71,313,cs),
(147,313,l),
(150,317,l),
(150,375,ls),
(150,405,o),
(167,418,o),
(205,418,cs),
(254,418,o),
(282,388,o),
(282,333,cs),
(282,209,ls),
(282,77,o),
(370,-10,o),
(513,-10,cs)
);
},
{
closed = 1;
nodes = (
(223,-9,o),
(274,28,o),
(311,77,c),
(330,77,l),
(330,112,l),
(307,97,o),
(281,84,o),
(253,84,cs),
(216,84,o),
(192,105,o),
(192,147,cs),
(192,204,o),
(227,224,o),
(314,240,c),
(314,287,l),
(188,254,ls),
(54,219,o),
(25,190,o),
(25,113,cs),
(25,34,o),
(82,-9,o),
(148,-9,cs)
);
}
);
width = 755;
}
);
unicode = 230;
},
{
color = 5;
glyphname = b;
kernLeft = kern_b2;
kernRight = kernLC_o1;
layers = (
{
layerId = m01;
shapes = (
{
closed = 1;
nodes = (
(109,-10,l),
(183,65,l),
(183,750,l),
(177,750,l),
(43,695,l),
(43,688,l),
(103,636,l),
(103,-10,l)
);
},
{
closed = 1;
nodes = (
(409,-10,o),
(511,83,o),
(511,247,cs),
(511,379,o),
(438,460,o),
(337,460,cs),
(283,460,o),
(238,441,o),
(187,398,c),
(173,398,l),
(173,354,l),
(207,379,o),
(246,391,o),
(282,391,cs),
(364,391,o),
(431,340,o),
(431,224,cs),
(431,90,o),
(372,38,o),
(303,38,cs),
(252,38,o),
(214,51,o),
(173,88,c),
(123,20,l),
(166,3,o),
(217,-10,o),
(277,-10,cs)
);
}
);
width = 560;
},
{
layerId = m002;
shapes = (
{
closed = 1;
nodes = (
(97,0,l),
(261,58,l),
(261,750,l),
(245,750,l),
(15,695,l),
(15,679,l),
(81,636,l),
(81,0,l)
);
},
{
closed = 1;
nodes = (
(459,-10,o),
(571,90,o),
(571,247,cs),
(571,385,o),
(489,470,o),
(407,470,cs),
(356,470,o),
(314,453,o),
(267,412,c),
(249,412,l),
(249,359,l),
(274,372,o),
(284,379,o),
(307,379,cs),
(346,379,o),
(391,328,o),
(391,220,cs),
(391,74,o),
(344,45,o),
(306,45,cs),
(283,45,o),
(263,59,o),
(259,77,c),
(189,37,l),
(233,-1,o),
(279,-10,o),
(335,-10,cs)
);
}
);
width = 596;
}
);
unicode = 98;
},
{
color = 5;
glyphname = c;
kernLeft = kernLC_o2;
kernRight = kernLC_c1;
layers = (
{
anchors = (
{
name = bottom;
pos = (260,0);
},
{
name = top;
pos = (264,510);
}
);
layerId = m01;
shapes = (
{
closed = 1;
nodes = (
(340,-10,o),
(403,37,o),
(434,95,c),
(434,105,l),
(431,105,l),
(381,78,o),
(339,65,o),
(302,65,cs),
(171,65,o),
(129,155,o),
(129,251,cs),
(129,355,o),
(174,416,o),
(247,416,cs),
(291,416,o),
(320,398,o),
(340,371,cs),
(374,325,l),
(381,325,l),
(419,357,ls),
(429,365,o),
(432,371,o),
(432,381,cs),
(432,389,o),
(427,398,o),
(416,411,cs),
(390,440,o),
(334,460,o),
(280,460,cs),
(150,460,o),
(50,354,o),
(50,205,cs),
(50,75,o),
(130,-10,o),
(259,-10,cs)
);
}
);
width = 479;
},
{
anchors = (
{
name = bottom;
pos = (273,0);
},
{
name = top;
pos = (274,510);
}
);
layerId = m002;
shapes = (
{
closed = 1;
nodes = (
(350,-10,o),
(425,47,o),
(458,124,c),
(458,145,l),
(455,145,l),
(413,124,o),
(370,119,o),
(331,119,cs),
(243,119,o),
(202,176,o),
(202,257,cs),
(202,356,o),
(225,426,o),
(279,426,cs),
(311,426,o),
(324,407,o),
(349,372,cs),
(384,322,l),
(391,322,l),
(444,367,ls),
(454,376,o),
(456,381,o),
(456,391,cs),
(456,399,o),
(452,408,o),
(441,421,cs),
(414,451,o),
(362,470,o),
(295,470,cs),
(131,470,o),
(30,362,o),
(30,209,cs),
(30,77,o),
(122,-10,o),
(251,-10,cs)
);
}
);
width = 488;
}
);
unicode = 99;
},
{
color = 5;
glyphname = ccedilla;
kernLeft = kernLC_o2;
kernRight = kernLC_c1;
layers = (
{
layerId = m01;
shapes = (
{
ref = c;
},
{
pos = (267,0);
ref = cedillacomb;
}
);
width = 479;
},
{
layerId = m002;
shapes = (
{
ref = c;
},
{
pos = (285,0);
ref = cedillacomb;
}
);
width = 488;
},
{
associatedMasterId = m01;
layerId = "C4A4E73E-2EAF-4BF8-A17A-363554F041EA";
name = "Dec 21, 21, 22:18";
shapes = (
{
closed = 1;
nodes = (
(340,-10,o),
(403,37,o),
(434,95,c),
(434,105,l),
(431,105,l),
(381,78,o),
(339,65,o),
(302,65,cs),
(171,65,o),
(129,155,o),
(129,251,cs),
(129,355,o),
(174,416,o),
(247,416,cs),
(291,416,o),
(320,398,o),
(340,371,cs),
(374,325,l),
(381,325,l),
(419,357,ls),
(429,365,o),
(432,371,o),
(432,381,cs),
(432,389,o),
(427,398,o),
(416,411,cs),
(390,440,o),
(334,460,o),
(280,460,cs),
(150,460,o),
(50,354,o),
(50,205,cs),
(50,75,o),
(130,-10,o),
(259,-10,cs)
);
},
{
closed = 1;
nodes = (
(216,-210,o),
(198,-206,o),
(180,-198,c),
(177,-198,l),
(177,-210,l),
(195,-231,o),
(223,-240,o),
(260,-240,c),
(323,-240,o),
(357,-203,o),
(357,-155,cs),
(357,-98,o),
(325,-75,o),
(234,-49,c),
(247,-69,l),
(288,20,l),
(253,20,l),
(196,-103,l),
(275,-128,o),
(297,-142,o),
(297,-171,cs),
(297,-192,o),
(283,-210,o),
(243,-210,cs)
);
}
);
width = 479;
},
{
associatedMasterId = m002;
layerId = "1A27C41C-6FAC-4A10-8B52-5538170654D1";
name = "Dec 21, 21, 22:18";
shapes = (
{
closed = 1;
nodes = (
(350,-10,o),
(425,47,o),
(458,124,c),
(458,145,l),
(455,145,l),
(413,124,o),
(370,119,o),
(331,119,cs),
(243,119,o),
(202,176,o),
(202,257,cs),
(202,356,o),
(225,426,o),
(279,426,cs),
(317,426,o),
(325,402,o),
(351,367,cs),
(384,322,l),
(391,322,l),
(444,367,ls),
(454,376,o),
(456,381,o),
(456,391,cs),
(456,399,o),
(452,408,o),
(441,421,cs),
(414,451,o),
(362,470,o),
(295,470,cs),
(131,470,o),
(30,362,o),
(30,209,cs),
(30,77,o),
(122,-10,o),
(251,-10,cs)
);
},
{
closed = 1;
nodes = (
(231,-208,o),
(209,-205,o),
(194,-197,c),
(190,-197,l),
(190,-220,l),
(211,-233,o),
(236,-240,o),
(270,-240,cs),
(335,-240,o),
(380,-200,o),
(380,-143,cs),
(380,-85,o),
(348,-51,o),
(248,-27,c),
(265,-61,l),
(305,27,l),
(265,27,l),
(206,-103,l),
(285,-122,o),
(303,-142,o),
(303,-170,cs),
(303,-196,o),
(281,-208,o),
(247,-208,cs)
);
}
);
visible = 1;
width = 488;
}
);
unicode = 231;
},
{
color = 5;
glyphname = d;
kernLeft = kernLC_o2;
kernRight = kernLC_l1;
layers = (
{
anchors = (
{
name = bottom;
pos = (271,0);
},
{
name = right;
pos = (577,740);
}
);
layerId = m01;
shapes = (
{
closed = 1;
nodes = (
(272,-10,o),
(316,8,o),
(367,51,c),
(382,51,l),
(382,96,l),
(348,71,o),
(309,59,o),
(273,59,cs),
(191,59,o),
(124,107,o),
(124,217,cs),
(124,357,o),
(192,411,o),
(272,411,cs),
(319,411,o),
(350,390,o),
(392,352,c),
(432,430,l),
(393,447,o),
(358,460,o),
(285,460,cs),
(155,460,o),
(44,364,o),
(44,194,cs),
(44,68,o),
(117,-10,o),
(218,-10,cs)
);
},
{
closed = 1;
nodes = (
(523,0,l),
(523,16,l),
(452,45,l),
(452,750,l),
(446,750,l),
(307,695,l),
(307,688,l),
(372,636,l),
(372,60,l),
(382,0,l)
);
}
);
width = 559;
},
{
anchors = (
{
name = bottom;
pos = (303,0);
},
{
name = right;
pos = (635,740);
}
);
layerId = m002;
shapes = (
{
closed = 1;
nodes = (
(240,-10,o),
(282,8,o),
(330,49,c),
(347,49,l),
(347,101,l),
(322,88,o),
(312,81,o),
(289,81,cs),
(250,81,o),
(205,129,o),
(205,231,cs),
(205,385,o),
(244,415,o),
(289,415,cs),
(312,415,o),
(333,401,o),
(337,383,c),
(407,423,l),
(363,460,o),
(312,470,o),
(256,470,cs),
(114,470,o),
(25,361,o),
(25,195,cs),
(25,70,o),
(107,-10,o),
(189,-10,cs)
);
},
{
closed = 1;
nodes = (
(584,0,l),
(584,16,l),
(515,45,l),
(515,750,l),
(499,750,l),
(264,695,l),
(264,681,l),
(335,636,l),
(335,60,l),
(345,0,l)
);
}
);
width = 599;
}
);
unicode = 100;
},
{
color = 5;
glyphname = eth;
kernLeft = kernLC_o2;
kernRight = kernLC_eth3;
layers = (
{
layerId = m01;
shapes = (
{
closed = 1;
nodes = (
(405,-10,o),
(495,103,o),
(495,259,cs),
(495,490,o),
(348,676,o),
(112,749,c),
(112,716,l),
(297,651,o),
(402,481,o),
(402,264,cs),
(402,102,o),
(346,33,o),
(280,33,cs),
(182,33,o),
(140,141,o),
(140,226,cs),
(140,368,o),
(203,411,o),
(276,411,cs),
(327,411,o),
(365,389,o),
(405,348,c),
(436,429,l),
(397,446,o),
(362,460,o),
(289,460,cs),
(160,460,o),
(50,378,o),
(50,215,cs),
(50,91,o),
(139,-10,o),
(270,-10,cs)
);
},
{
closed = 1;
nodes = (
(207,523,l),
(429,741,l),
(360,741,l),
(138,523,l)
);
}
);
width = 545;
},
{
layerId = m002;
shapes = (
{
closed = 1;
nodes = (
(420,-10,o),
(532,95,o),
(532,264,cs),
(532,495,o),
(334,695,o),
(62,749,c),
(62,699,l),
(247,634,o),
(347,516,o),
(347,269,cs),
(347,110,o),
(328,43,o),
(278,43,cs),
(232,43,o),
(205,108,o),
(205,235,cs),
(205,341,o),
(218,418,o),
(275,418,cs),
(321,418,o),
(335,383,o),
(358,336,c),
(391,439,l),
(357,454,o),
(326,470,o),
(267,470,cs),
(130,470,o),
(25,366,o),
(25,230,cs),
(25,93,o),
(131,-10,o),
(275,-10,cs)
);
},
{
closed = 1;
nodes = (
(189,523,l),
(434,741,l),
(358,741,l),
(113,523,l)
);
}
);
width = 557;
}
);
unicode = 240;
},
{
color = 5;
glyphname = dcroat;
kernLeft = kernLC_o2;
kernRight = kernLC_l1;
layers = (
{
layerId = m01;
shapes = (
{
closed = 1;
nodes = (
(276,-10,o),
(320,8,o),
(371,51,c),
(386,51,l),
(386,96,l),
(352,71,o),
(313,59,o),
(277,59,cs),
(195,59,o),
(128,107,o),
(128,217,cs),
(128,357,o),
(196,411,o),
(276,411,cs),
(323,411,o),
(354,390,o),
(396,352,c),
(436,430,l),
(397,447,o),
(362,460,o),
(289,460,cs),
(159,460,o),
(48,364,o),
(48,194,cs),
(48,68,o),
(121,-10,o),
(222,-10,cs)
);
},
{
closed = 1;
nodes = (
(527,0,l),
(527,16,l),
(456,45,l),
(456,750,l),
(450,750,l),
(311,695,l),
(311,688,l),
(376,636,l),
(376,60,l),
(386,0,l)
);
},
{
closed = 1;
nodes = (
(527,538,l),
(527,585,l),
(240,585,l),
(240,538,l)
);
}
);
width = 575;
},
{
layerId = m002;
shapes = (
{
closed = 1;
nodes = (
(240,-10,o),
(282,8,o),
(330,49,c),
(347,49,l),
(347,101,l),
(322,88,o),
(312,81,o),
(289,81,cs),
(250,81,o),
(205,129,o),
(205,231,cs),
(205,385,o),
(244,415,o),
(289,415,cs),
(312,415,o),
(333,401,o),
(337,383,c),
(407,423,l),
(363,460,o),
(312,470,o),
(256,470,cs),
(114,470,o),
(25,361,o),
(25,195,cs),
(25,70,o),
(107,-10,o),
(189,-10,cs)
);
},
{
closed = 1;
nodes = (
(584,0,l),
(584,16,l),
(515,45,l),
(515,750,l),
(499,750,l),
(264,695,l),
(264,681,l),
(335,636,l),
(335,60,l),
(345,0,l)
);
},
{
closed = 1;
nodes = (
(584,535,l),
(584,586,l),
(219,586,l),
(219,535,l)
);
}
);
width = 599;
}
);
unicode = 273;
},
{
color = 5;
glyphname = e;
kernLeft = kernLC_o2;
kernRight = kernLC_e1;
layers = (
{
anchors = (
{
name = bottom;
pos = (264,0);
},
{
name = right;
pos = (358,0);
},
{
name = top;
pos = (260,510);
}
);
layerId = m01;
shapes = (
{
closed = 1;
nodes = (
(340,-10,o),
(403,37,o),
(434,95,c),
(434,105,l),
(431,105,l),
(381,78,o),
(339,65,o),
(302,65,cs),
(171,65,o),
(129,155,o),
(129,251,cs),
(129,355,o),
(174,416,o),
(247,416,cs),
(306,416,o),
(343,377,o),
(358,284,c),
(376,288,l),
(119,288,l),
(119,242,l),
(428,242,l),
(433,247,l),
(433,384,o),
(368,460,o),
(263,460,cs),
(150,460,o),
(50,354,o),
(50,205,cs),
(50,75,o),
(130,-10,o),
(259,-10,cs)
);
}
);
width = 484;
},
{
anchors = (
{
name = bottom;
pos = (279,0);
},
{
name = right;
pos = (399,0);
},
{
name = top;
pos = (270,510);
}
);
layerId = m002;
shapes = (
{
closed = 1;
nodes = (
(362,-10,o),
(439,46,o),
(473,124,c),
(473,145,l),
(470,145,l),
(428,124,o),
(385,119,o),
(346,119,cs),
(248,119,o),
(202,171,o),
(202,247,cs),
(202,359,o),
(227,425,o),
(271,425,cs),
(310,425,o),
(332.506,395.738,o),
(339,294,c),
(395,306,l),
(138,306,l),
(138,262,l),
(469,262,l),
(472,267,l),
(470,395,o),
(409,470,o),
(299,470,cs),
(147,470,o),
(30,362,o),
(30,209,cs),
(30,77,o),
(118,-10,o),
(261,-10,cs)
);
}
);
width = 503;
}
);
unicode = 101;
},
{
color = 5;
glyphname = eogonek;
kernLeft = kernLC_o2;
kernRight = kernLC_e1;
layers = (
{
layerId = m01;
shapes = (
{
closed = 1;
nodes = (
(295,-10,o),
(328,-1,o),
(354,14,c),
(357,24,l),
(297,-41,o),
(249,-98,o),
(249,-152,cs),
(249,-205,o),
(290,-240,o),
(348,-240,cs),
(387,-240,o),
(415,-223,o),
(433,-195,c),
(433,-183,l),
(430,-183,l),
(412,-193,o),
(395,-195,o),
(380,-195,cs),
(339,-195,o),
(315,-176,o),
(315,-130,cs),
(315,-82,o),
(337,-30,o),
(387,37,c),
(407,54,o),
(423,74,o),
(434,95,c),
(434,105,l),
(431,105,l),
(381,78,o),
(339,65,o),
(302,65,cs),
(171,65,o),
(129,155,o),
(129,251,cs),
(129,355,o),
(174,416,o),
(247,416,cs),
(306,416,o),
(343,377,o),
(358,284,c),
(376,288,l),
(119,288,l),
(119,242,l),
(428,242,l),
(433,247,l),
(433,384,o),
(368,460,o),
(263,460,cs),
(150,460,o),
(50,354,o),
(50,205,cs),
(50,75,o),
(130,-10,o),
(259,-10,cs)
);
}
);
width = 484;
},
{
layerId = m002;
shapes = (
{
closed = 1;
nodes = (
(318.6,-10,o),
(367,7,o),
(411,41,c),
(403,41,l),
(325,-31,o),
(276,-89.601,o),
(276,-148,cs),
(276,-204,o),
(315,-240,o),
(377,-240,cs),
(420,-240,o),
(454,-221,o),
(470,-188,c),
(470,-165,l),
(466,-165,l),
(455,-177,o),
(436,-183,o),
(420,-183,cs),
(384,-183,o),
(367,-162,o),
(367,-125,cs),
(367,-48.613,o),
(411,23,o),
(445,78,c),
(456,93,o),
(465.492,107.316,o),
(473,124,c),
(473,145,l),
(470,145,l),
(428,124,o),
(385,119,o),
(346,119,cs),
(248,119,o),
(202,171,o),
(202,247,cs),
(202,359,o),
(227,425,o),
(271,425,cs),
(310,425,o),
(333,396,o),
(339,294,c),
(395,306,l),
(138,306,l),
(138,262,l),
(469,262,l),
(472,267,l),
(470,395,o),
(409,470,o),
(299,470,cs),
(147,470,o),
(30,362,o),
(30,209,cs),
(30,77,o),
(118,-10,o),
(261,-10,cs)
);
}
);
width = 503;
}
);
unicode = 281;
},
{
color = 5;
glyphname = f;
kernLeft = kernLC_f2;
kernRight = kernLC_f1;
layers = (
{
layerId = m01;
shapes = (
{
closed = 1;
nodes = (
(268,0,l),
(268,16,l),
(197,46,l),
(197,530,ls),
(197,622,o),
(216,668,o),
(289,668,cs),
(315,668,o),
(334,665,o),
(354,657,cs),
(381,646,l),
(388,646,l),
(408,695,ls),
(411,702,o),
(412,708,o),
(412,713,cs),
(412,725,o),
(402,732,o),
(382,741,cs),
(373,745,o),
(358,750,o),
(346,750,cs),
(204,750,o),
(117,555,o),
(117,490,cs),
(117,48,l),
(54,16,l),
(54,0,l)
);
},
{
closed = 1;
nodes = (
(329,403,l),
(329,450,l),
(39,450,l),
(39,403,l)
);
}
);
width = 342;
},
{
layerId = m002;
shapes = (
{
closed = 1;
nodes = (
(356,0,l),
(356,16,l),
(274,48,l),
(274,510,ls),
(274,629.392,o),
(282,665,o),
(331,665,cs),
(352,665,o),
(367,657,o),
(391,644,cs),
(404,637,l),
(414,637,l),
(445,695,ls),
(449,703,o),
(451,709,o),
(451,715,cs),
(451,725,o),
(448,729,o),
(431,739,cs),
(420,745,o),
(403,750,o),
(385,750,cs),
(275,750,o),
(94,594,o),
(94,485,cs),
(94,48,l),
(25,16,l),
(25,0,l)
);
},
{
closed = 1;
nodes = (
(384,416,l),
(384,460,l),
(20,460,l),
(20,416,l)
);
}
);
width = 389;
}
);
unicode = 102;
},
{
color = 5;
glyphname = g;
kernLeft = kernLC_g3;
kernRight = kernLC_g3;
layers = (
{
anchors = (
{
name = top;
pos = (263,510);
}
);
layerId = m01;
shapes = (
{
closed = 1;
nodes = (
(360,142,o),
(436,210,o),
(436,301,cs),
(436,346,o),
(412,394,o),
(380,414,c),
(351,439,l),
(328,451,o),
(288,460,o),
(258,460,cs),
(156,460,o),
(80,391,o),
(80,301,cs),
(80,210,o),
(156,142,o),
(258,142,cs)
);
},
{
closed = 1;
nodes = (
(206,183,o),
(162,233.802,o),
(162,304,cs),
(162,367.472,o),
(194,420,o),
(251,420,cs),
(309,420,o),
(354,371.015,o),
(354,298,cs),
(354,235.571,o),
(321,183,o),
(268,183,cs)
);
},
{
closed = 1;
nodes = (
(496,450,l),
(334,441,l),
(334,387,l),
(387,387,l),
(403,402,l),
(496,396,l)
);
},
{
closed = 1;
nodes = (
(383,-240,o),
(473,-154,o),
(473,-68,cs),
(473,16,o),
(428,59,o),
(331,59,cs),
(211,59,ls),
(162,59,o),
(140,74,o),
(140,109,cs),
(140,131,o),
(152,151,o),
(185,161,c),
(185,178,l),
(150,178,l),
(150,167,l),
(96,139,l),
(78,121,o),
(70,101,o),
(70,75,cs),
(70,24,o),
(112,-10,o),
(185,-10,cs),
(292,-10,ls),
(373,-10,o),
(400,-29,o),
(400,-88,cs),
(400,-152,o),
(340,-212,o),
(251,-212,cs),
(184,-212,o),
(132,-169,o),
(132,-110,cs),
(132,-58,o),
(147,-24,o),
(195,-2,c),
(195,5,l),
(148,5,l),
(148,-11,l),
(79,-57,l),
(67,-75,o),
(61,-96,o),
(61,-121,cs),
(61,-188,o),
(112,-240,o),
(239,-240,cs)
);
}
);
width = 546;
},
{
anchors = (
{
name = top;
pos = (255,510);
}
);
layerId = m002;
shapes = (
{
closed = 1;
nodes = (
(369,159,o),
(456,226,o),
(456,314,cs),
(456,356,o),
(428,395,o),
(394,414,c),
(369,445,l),
(342,459,o),
(300,469,o),
(256,469,cs),
(143,469,o),
(56,402,o),
(56,314,cs),
(56,226,o),
(143,159,o),
(256,159,cs)
);
},
{
closed = 1;
nodes = (
(223,202,o),
(201,238.143,o),
(201,317,cs),
(201,385.263,o),
(217,426,o),
(256,426,cs),
(291,426,o),
(313,388.762,o),
(313,311,cs),
(313,240.535,o),
(297,202,o),
(261,202,cs)
);
},
{
closed = 1;
nodes = (
(523,459,l),
(333,444,l),
(333,385,l),
(395,385,l),
(418,403,l),
(523,394,l)
);
},
{
closed = 1;
nodes = (
(391,-240,o),
(498,-143,o),
(498,-47,cs),
(498,46,o),
(447,95,o),
(338,95,cs),
(234,95,ls),
(178,95,o),
(154,109,o),
(154,142,cs),
(154,163,o),
(167,182,o),
(200,191,c),
(200,206,l),
(124,206,l),
(124,190,l),
(65,153,l),
(43,131,o),
(36,105,o),
(36,72,cs),
(36,-5,o),
(98,-55,o),
(206,-55,cs),
(278,-55,ls),
(336,-55,o),
(357,-70,o),
(357,-116,cs),
(357,-162,o),
(308,-199,o),
(227,-199,cs),
(155,-199,o),
(128,-164,o),
(128,-116,cs),
(128,-81,o),
(146,-59,o),
(177,-44,c),
(177,-30,l),
(111,-30,l),
(111,-44,l),
(53,-80,l),
(40,-101,o),
(35,-117,o),
(35,-141,cs),
(35,-198,o),
(88,-240,o),
(218,-240,c)
);
}
);
width = 538;
}
);
unicode = 103;
},
{
color = 5;
glyphname = h;
kernLeft = kernLC_l2;
kernRight = kernLC_n1;
layers = (
{
anchors = (
{
name = bottom;
pos = (296,0);
},
{
name = top;
pos = (296,765);
}
);
layerId = m01;
shapes = (
{
closed = 1;
nodes = (
(262,0,l),
(262,16,l),
(191,45,l),
(191,750,l),
(185,750,l),
(51,695,l),
(51,688,l),
(111,636,l),
(111,48,l),
(48,16,l),
(48,0,l)
);
},
{
closed = 1;
nodes = (
(544,0,l),
(544,16,l),
(481,48,l),
(481,343,ls),
(481,420,o),
(425,460,o),
(347,460,cs),
(290,460,o),
(246,437,o),
(195,386,c),
(183,386,l),
(183,342,l),
(205,371,o),
(262,386,o),
(302,386,cs),
(360,386,o),
(401,355,o),
(401,296,cs),
(401,45,l),
(330,16,l),
(330,0,l)
);
}
);
width = 582;
},
{
anchors = (
{
name = bottom;
pos = (326,0);
},
{
name = top;
pos = (326,765);
}
);
layerId = m002;
shapes = (
{
closed = 1;
nodes = (
(306,0,l),
(306,16,l),
(269,48,l),
(269,750,l),
(253,750,l),
(23,695,l),
(23,679,l),
(89,636,l),
(89,48,l),
(20,16,l),
(20,0,l)
);
},
{
closed = 1;
nodes = (
(631,0,l),
(631,16,l),
(562,48,l),
(562,343,ls),
(562,427,o),
(504,470,o),
(421,470,cs),
(356,470,o),
(318,440,o),
(273,396,c),
(261,396,l),
(261,339,l),
(277,354,o),
(304,366,o),
(326,366,cs),
(359,366,o),
(382,345,o),
(382,306,cs),
(382,48,l),
(345,16,l),
(345,0,l)
);
}
);
width = 641;
}
);
unicode = 104;
},
{
color = 5;
glyphname = hbar;
kernLeft = kernLC_l2;
kernRight = kernLC_n1;
layers = (
{
layerId = m01;
shapes = (
{
closed = 1;
nodes = (
(191,750,l),
(185,750,l),
(51,695,l),
(51,688,l),
(111,636,l),
(111,48,l),
(48,16,l),
(48,0,l),
(262,0,l),
(262,16,l),
(191,45,l)
);
},
{
closed = 1;
nodes = (
(335,538,l),
(335,585,l),
(48,585,l),
(48,538,l)
);
},
{
closed = 1;
nodes = (
(544,0,l),
(544,16,l),
(481,48,l),
(481,343,ls),
(481,420,o),
(425,460,o),
(347,460,cs),
(290,460,o),
(246,437,o),
(195,386,c),
(183,386,l),
(183,342,l),
(205,371,o),
(262,386,o),
(302,386,cs),
(360,386,o),
(401,355,o),
(401,296,cs),
(401,45,l),
(330,16,l),
(330,0,l)
);
}
);
width = 582;
},
{
layerId = m002;
shapes = (
{
closed = 1;
nodes = (
(269,750,l),
(253,750,l),
(23,685,l),
(23,669,l),
(89,626,l),
(89,48,l),
(20,16,l),
(20,0,l),
(306,0,l),
(306,16,l),
(269,48,l)
);
},
{
closed = 1;
nodes = (
(385,519,l),
(385,570,l),
(23,570,l),
(23,519,l)
);
},
{
closed = 1;
nodes = (
(631,0,l),
(631,16,l),
(562,48,l),
(562,343,ls),
(562,427,o),
(504,470,o),
(421,470,cs),
(356,470,o),
(318,440,o),
(273,396,c),
(261,396,l),
(261,339,l),
(277,354,o),
(304,366,o),
(326,366,cs),
(359,366,o),
(382,345,o),
(382,306,cs),
(382,48,l),
(345,16,l),
(345,0,l)
);
}
);
width = 641;
}
);
unicode = 295;
},
{
color = 5;
glyphname = i;
kernLeft = kernLC_i2;
kernRight = kernLC_i1;
layers = (
{
anchors = (
{
name = bottom;
pos = (157,0);
},
{
name = right;
pos = (175,0);
},
{
name = top;
pos = (157,510);
}
);
layerId = m01;
shapes = (
{
closed = 1;
nodes = (
(260,0,l),
(260,16,l),
(197,48,l),
(197,460,l),
(191,460,l),
(57,405,l),
(57,398,l),
(117,346,l),
(117,48,l),
(54,16,l),
(54,0,l)
);
},
{
closed = 1;
nodes = (
(188,581,o),
(214,607,o),
(214,641,cs),
(214,676,o),
(188,701,o),
(154,701,cs),
(119,701,o),
(94,676,o),
(94,641,cs),
(94,607,o),
(119,581,o),
(154,581,cs)
);
}
);
width = 313;
},
{
anchors = (
{
name = bottom;
pos = (179,0);
},
{
name = right;
pos = (210,0);
},
{
name = top;
pos = (179,510);
}
);
layerId = m002;
shapes = (
{
closed = 1;
nodes = (
(326,0,ls),
(326,16,l),
(269,48,l),
(269,470,l),
(253,470,l),
(23,415,l),
(23,399,l),
(89,356,l),
(89,48,l),
(20,16,l),
(20,0,ls)
);
},
{
closed = 1;
nodes = (
(224,554,o),
(258,588,o),
(258,635,cs),
(258,682,o),
(224,716,o),
(177,716,cs),
(130,716,o),
(96,682,o),
(96,635,cs),
(96,588,o),
(130,554,o),
(177,554,cs)
);
}
);
width = 346;
}
);
unicode = 105;
},
{
color = 5;
glyphname = idotless;
kernLeft = kernLC_i2;
kernRight = kernLC_i1;
layers = (
{
anchors = (
{
name = bottom;
pos = (157,0);
},
{
name = right;
pos = (170,0);
},
{
name = top;
pos = (157,510);
}
);
layerId = m01;
shapes = (
{
closed = 1;
nodes = (
(260,0,l),
(260,16,l),
(197,48,l),
(197,460,l),
(191,460,l),
(57,405,l),
(57,398,l),
(117,346,l),
(117,48,l),
(54,16,l),
(54,0,l)
);
}
);
width = 313;
},
{
anchors = (
{
name = bottom;
pos = (173,0);
},
{
name = right;
pos = (208,0);
},
{
name = top;
pos = (173,510);
}
);
layerId = m002;
shapes = (
{
closed = 1;
nodes = (
(326,0,ls),
(326,16,l),
(269,48,l),
(269,470,l),
(253,470,l),
(23,415,l),
(23,399,l),
(89,356,l),
(89,48,l),
(20,16,l),
(20,0,ls)
);
}
);
width = 346;
}
);
unicode = 305;
},
{
color = 5;
glyphname = j;
kernLeft = kernLC_j2;
kernRight = kernLC_i1;
layers = (
{
anchors = (
{
name = top;
pos = (157,510);
}
);
layerId = m01;
shapes = (
{
closed = 1;
nodes = (
(164,-177,o),
(197,-101,o),
(197,0,cs),
(197,460,l),
(191,460,l),
(57,405,l),
(57,398,l),
(117,346,l),
(117,-10,ls),
(117,-122,o),
(100,-171,o),
(54,-214,c),
(54,-230,l)
);
},
{
closed = 1;
nodes = (
(188,581,o),
(214,607,o),
(214,641,cs),
(214,676,o),
(188,701,o),
(154,701,cs),
(119,701,o),
(94,676,o),
(94,641,cs),
(94,607,o),
(119,581,o),
(154,581,cs)
);
}
);
width = 314;
},
{
anchors = (
{
name = top;
pos = (176,510);
}
);
layerId = m002;
shapes = (
{
closed = 1;
nodes = (
(216,-148,o),
(266,-94,o),
(266,39,c),
(266,470,l),
(250,470,l),
(20,415,l),
(20,399,l),
(86,356,l),
(86,-86,ls),
(86,-147,o),
(81,-166,o),
(23,-210,c),
(23,-230,l)
);
},
{
closed = 1;
nodes = (
(221,554,o),
(255,588,o),
(255,635,cs),
(255,682,o),
(221,716,o),
(174,716,cs),
(127,716,o),
(93,682,o),
(93,635,cs),
(93,588,o),
(127,554,o),
(174,554,cs)
);
}
);
width = 341;
}
);
unicode = 106;
},
{
color = 5;
glyphname = jdotless;
kernLeft = kernLC_j2;
kernRight = kernLC_i1;
layers = (
{
anchors = (
{
name = top;
pos = (151,510);
}
);
layerId = m01;
shapes = (
{
closed = 1;
nodes = (
(197,460,l),
(191,460,l),
(57,405,l),
(57,398,l),
(117,346,l),
(117,-10,ls),
(117,-122,o),
(100,-171,o),
(54,-214,c),
(54,-230,l),
(164,-177,o),
(197,-101,o),
(197,0,cs)
);
}
);
width = 314;
},
{
anchors = (
{
name = top;
pos = (163,510);
}
);
layerId = m002;
shapes = (
{
closed = 1;
nodes = (
(266,470,l),
(250,470,l),
(20,415,l),
(20,399,l),
(86,356,l),
(86,-86,ls),
(86,-147,o),
(81,-166,o),
(23,-210,c),
(23,-230,l),
(216,-148,o),
(266,-94,o),
(266,39,c)
);
}
);
width = 341;
}
);
unicode = 567;
},
{
color = 5;
glyphname = k;
kernLeft = kernLC_l2;
kernRight = kernLC_k1;
layers = (
{
anchors = (
{
name = bottom;
pos = (295,0);
}
);
layerId = m01;
shapes = (
{
closed = 1;
nodes = (
(262,0,l),
(262,16,l),
(191,45,l),
(191,750,l),
(185,750,l),
(51,695,l),
(51,688,l),
(111,636,l),
(111,48,l),
(48,16,l),
(48,0,l)
);
},
{
closed = 1;
nodes = (
(530,0,l),
(530,16,l),
(466,50,l),
(244,294,l),
(244,257,l),
(429,399,l),
(493,434,l),
(493,450,l),
(303,450,l),
(303,434,l),
(352,398,l),
(352,392,l),
(191,255,l),
(191,240,l),
(360,52,l),
(398,0,l)
);
}
);
width = 558;
},
{
anchors = (
{
name = bottom;
pos = (369,0);
}
);
layerId = m002;
shapes = (
{
closed = 1;
nodes = (
(329,0,l),
(329,16,l),
(269,48,l),
(269,750,l),
(253,750,l),
(23,695,l),
(23,679,l),
(89,636,l),
(89,48,l),
(20,16,l),
(20,0,l)
);
},
{
closed = 1;
nodes = (
(642,0,l),
(642,16,l),
(578,50,l),
(379,357,l),
(379,292,l),
(524,409,l),
(588,444,l),
(588,460,l),
(363,460,l),
(363,444,l),
(412,408,l),
(412,402,l),
(263,260,l),
(263,245,l),
(380,52,l),
(406,0,l)
);
}
);
width = 632;
}
);
unicode = 107;
},
{
color = 5;
glyphname = l;
kernLeft = kernLC_l2;
kernRight = kernLC_l1;
layers = (
{
anchors = (
{
name = bottom;
pos = (147,0);
},
{
name = mid;
pos = (295,300);
},
{
name = right;
pos = (313,740);
},
{
name = top;
pos = (147,765);
}
);
layerId = m01;
shapes = (
{
closed = 1;
nodes = (
(250,0,l),
(250,16,l),
(187,48,l),
(187,750,l),
(181,750,l),
(47,695,l),
(47,688,l),
(107,636,l),
(107,48,l),
(44,16,l),
(44,0,l)
);
}
);
width = 294;
},
{
anchors = (
{
name = bottom;
pos = (179,0);
},
{
name = mid;
pos = (397,300);
},
{
name = right;
pos = (389,740);
},
{
name = top;
pos = (179,765);
}
);
layerId = m002;
shapes = (
{
closed = 1;
nodes = (
(326,0,l),
(326,16,l),
(269,48,l),
(269,750,l),
(253,750,l),
(23,695,l),
(23,679,l),
(89,636,l),
(89,48,l),
(20,16,l),
(20,0,l)
);
}
);
width = 346;
}
);
unicode = 108;
},
{
color = 5;
glyphname = lslash;
kernLeft = kernLC_l2;
kernRight = kernLC_l1;
layers = (
{
layerId = m01;
shapes = (
{
closed = 1;
nodes = (
(250,0,l),
(250,16,l),
(187,48,l),
(187,750,l),
(171,750,l),
(47,695,l),
(47,688,l),
(107,636,l),
(107,48,l),
(44,16,l),
(44,0,l)
);
},
{
closed = 1;
nodes = (
(136,323,l),
(167,335,l),
(260,394,l),
(260,450,l),
(169,393,l),
(135,379,l),
(44,322,l),
(44,266,l)
);
}
);
width = 294;
},
{
layerId = m002;
shapes = (
{
closed = 1;
nodes = (
(326,0,l),
(326,16,l),
(269,48,l),
(269,750,l),
(253,750,l),
(23,695,l),
(23,679,l),
(89,636,l),
(89,48,l),
(20,16,l),
(20,0,l)
);
},
{
closed = 1;
nodes = (
(152,321,l),
(232,351,l),
(338,412,l),
(338,470,l),
(231,409,l),
(152,379,l),
(20,304,l),
(20,246,l)
);
}
);
width = 346;
}
);
unicode = 322;
},
{
color = 5;
glyphname = m;
kernLeft = kernLC_n2;
kernRight = kernLC_n1;
layers = (
{
anchors = (
{
name = bottom;
pos = (431,0);
}
);
layerId = m01;
shapes = (
{
closed = 1;
nodes = (
(256,0,l),
(256,16,l),
(191,48,l),
(191,380,l),
(181,460,l),
(175,460,l),
(51,405,l),
(51,398,l),
(111,346,l),
(111,48,l),
(48,16,l),
(48,0,l)
);
},
{
closed = 1;
nodes = (
(540,0,l),
(540,16,l),
(471,48,l),
(471,343,l),
(471,420,o),
(417,460,o),
(342,460,cs),
(287,460,o),
(245,437,o),
(195,386,c),
(183,386,l),
(183,342,l),
(205,371,o),
(259,386,o),
(297,386,cs),
(352,386,o),
(391,355,o),
(391,296,cs),
(391,48,l),
(324,16,l),
(324,0,l)
);
},
{
closed = 1;
nodes = (
(822,0,l),
(822,16,l),
(759,48,l),
(759,343,ls),
(759,420,o),
(705,460,o),
(630,460,cs),
(571,460,o),
(527,433,o),
(471,374,c),
(460,374,l),
(460,328,l),
(484,366,o),
(532,386,o),
(585,386,cs),
(640,386,o),
(679,355,o),
(679,296,cs),
(679,48,l),
(608,16,l),
(608,0,l)
);
}
);
width = 860;
},
{
anchors = (
{
name = bottom;
pos = (468,0);
}
);
layerId = m002;
shapes = (
{
closed = 1;
nodes = (
(306,0,l),
(306,16,l),
(269,48,l),
(269,390,l),
(259,470,l),
(243,470,l),
(23,405,l),
(23,389,l),
(89,356,l),
(89,48,l),
(20,16,l),
(20,0,l)
);
},
{
closed = 1;
nodes = (
(596,0,l),
(596,16,l),
(558,48,l),
(558,343,ls),
(558,427,o),
(502,470,o),
(419,470,cs),
(354,470,o),
(317,440,o),
(273,396,c),
(261,396,l),
(261,339,l),
(277,354,o),
(302,366,o),
(324,366,cs),
(357,366,o),
(378,345,o),
(378,306,cs),
(378,48,l),
(341,16,l),
(341,0,l)
);
},
{
closed = 1;
nodes = (
(918,0,l),
(918,16,l),
(849,48,l),
(849,343,ls),
(849,427,o),
(793,470,o),
(710,470,cs),
(641,470,o),
(604,436,o),
(556,388,c),
(550,388,l),
(550,336,l),
(567,354,o),
(593,366,o),
(615,366,cs),
(648,366,o),
(669,345,o),
(669,306,cs),
(669,48,l),
(631,16,l),
(631,0,l)
);
}
);
width = 928;
}
);
unicode = 109;
},
{
color = 5;
glyphname = n;
kernLeft = kernLC_n2;
kernRight = kernLC_n1;
layers = (
{
anchors = (
{
name = bottom;
pos = (296,0);
},
{
name = top;
pos = (296,510);
}
);
layerId = m01;
shapes = (
{
closed = 1;
nodes = (
(262,0,l),
(262,16,l),
(191,48,l),
(191,380,l),
(181,460,l),
(175,460,l),
(51,405,l),
(51,398,l),
(111,346,l),
(111,48,l),
(48,16,l),
(48,0,l)
);
},
{
closed = 1;
nodes = (
(544,0,l),
(544,16,l),
(481,48,l),
(481,343,ls),
(481,420,o),
(425,460,o),
(347,460,cs),
(290,460,o),
(246,437,o),
(195,386,c),
(183,386,l),
(183,342,l),
(205,371,o),
(262,386,o),
(302,386,cs),
(360,386,o),
(401,355,o),
(401,296,cs),
(401,48,l),
(330,16,l),
(330,0,l)
);
}
);
width = 582;
},
{
anchors = (
{
name = bottom;
pos = (326,0);
},
{
name = top;
pos = (326,510);
}
);
layerId = m002;
shapes = (
{
closed = 1;
nodes = (
(306,0,l),
(306,16,l),
(269,48,l),
(269,390,l),
(259,470,l),
(243,470,l),
(23,405,l),
(23,389,l),
(89,356,l),
(89,48,l),
(20,16,l),
(20,0,l)
);
},
{
closed = 1;
nodes = (
(631,0,l),
(631,16,l),
(562,48,l),
(562,343,ls),
(562,427,o),
(504,470,o),
(421,470,cs),
(356,470,o),
(318,440,o),
(273,396,c),
(261,396,l),
(261,339,l),
(277,354,o),
(304,366,o),
(326,366,cs),
(359,366,o),
(382,345,o),
(382,306,cs),
(382,48,l),
(345,16,l),
(345,0,l)
);
}
);
width = 641;
}
);
unicode = 110;
},
{
color = 5;
glyphname = eng;
kernLeft = kernLC_n2;
kernRight = kernLC_n1;
layers = (
{
layerId = m01;
shapes = (
{
closed = 1;
nodes = (
(262,0,l),
(262,16,l),
(191,48,l),
(191,380,l),
(181,460,l),
(175,460,l),
(51,405,l),
(51,398,l),
(111,346,l),
(111,48,l),
(48,16,l),
(48,0,l)
);
},
{
closed = 1;
nodes = (
(432,-179,o),
(481,-131,o),
(481,10,cs),
(481,343,ls),
(481,420,o),
(425,460,o),
(347,460,cs),
(290,460,o),
(246,437,o),
(195,386,c),
(183,386,l),
(183,342,l),
(205,371,o),
(262,386,o),
(302,386,cs),
(360,386,o),
(401,355,o),
(401,296,cs),
(401,-10,ls),
(401,-133,o),
(367,-174,o),
(296,-214,c),
(296,-230,l)
);
}
);
width = 582;
},
{
layerId = m002;
shapes = (
{
closed = 1;
nodes = (
(306,0,l),
(306,16,l),
(269,48,l),
(269,390,l),
(259,470,l),
(243,470,l),
(23,405,l),
(23,389,l),
(89,356,l),
(89,48,l),
(20,16,l),
(20,0,l)
);
},
{
closed = 1;
nodes = (
(505,-168,o),
(562,-79,o),
(562,39,cs),
(562,343,ls),
(562,427,o),
(504,470,o),
(421,470,cs),
(356,470,o),
(318,440,o),
(273,396,c),
(261,396,l),
(261,339,l),
(277,354,o),
(304,366,o),
(326,366,cs),
(359,366,o),
(382,345,o),
(382,306,c),
(382,-36,ls),
(382,-132,o),
(380,-155,o),
(319,-210,c),
(319,-230,l)
);
}
);
width = 637;
}
);
unicode = 331;
},
{
color = 5;
glyphname = o;
kernLeft = kernLC_o2;
kernRight = kernLC_o1;
layers = (
{
anchors = (
{
name = bottom;
pos = (276,0);
},
{
name = right;
pos = (306,0);
},
{
name = top;
pos = (267,510);
}
);
layerId = m01;
shapes = (
{
closed = 1;
nodes = (
(401,-10,o),
(490,91,o),
(490,225,cs),
(490,359,o),
(401,460,o),
(270,460,cs),
(139,460,o),
(50,359,o),
(50,225,cs),
(50,91,o),
(139,-10,o),
(270,-10,cs)
);
},
{
closed = 1;
nodes = (
(183,33,o),
(142,140,o),
(142,246,cs),
(142,333,o),
(176,418,o),
(258,418,cs),
(359,418,o),
(398,311,o),
(398,205,cs),
(398,119,o),
(365,33,o),
(284,33,cs)
);
}
);
width = 540;
},
{
anchors = (
{
name = bottom;
pos = (276,0);
},
{
name = right;
pos = (318,0);
},
{
name = top;
pos = (276,510);
}
);
layerId = m002;
shapes = (
{
closed = 1;
nodes = (
(425,-10,o),
(527,102,o),
(527,230,cs),
(527,359,o),
(425,470,o),
(276,470,cs),
(127,470,o),
(25,359,o),
(25,230,cs),
(25,102,o),
(127,-10,o),
(276,-10,cs)
);
},
{
closed = 1;
nodes = (
(229,43,o),
(205,139.646,o),
(205,251,cs),
(205,343.541,o),
(224,418,o),
(269,418,cs),
(324,418,o),
(347,321.354,o),
(347,210,cs),
(347,118.522,o),
(328,43,o),
(285,43,cs)
);
}
);
width = 552;
},
{
anchors = (
{
name = bottom;
pos = (276,0);
},
{
name = right;
pos = (306,0);
},
{
name = top;
pos = (267,510);
}
);
associatedMasterId = m01;
layerId = "4CBBB6A8-6555-465B-8A5C-1EA5702F162B";
name = "Jan 20, 22, 10:37";
shapes = (
{
closed = 1;
nodes = (
(401,-10,o),
(490,91,o),
(490,225,cs),
(490,359,o),
(401,460,o),
(270,460,cs),
(139,460,o),
(50,359,o),
(50,225,cs),
(50,91,o),
(139,-10,o),
(270,-10,cs)
);
},
{
closed = 1;
nodes = (
(182.703,33,o),
(140,140,o),
(140,246,cs),
(140,333,o),
(176,418,o),
(258,418,cs),
(359,418,o),
(400,311,o),
(400,205,cs),
(400,119,o),
(365.299,33,o),
(284,33,cs)
);
}
);
visible = 1;
width = 540;
}
);
unicode = 111;
},
{
color = 4;
glyphname = ohorn;
kernLeft = kernLC_o2;
kernRight = kernLC_ohorn1;
layers = (
{
anchors = (
{
name = bottom;
pos = (276,0);
},
{
name = right;
pos = (306,0);
},
{
name = top;
pos = (267,510);
}
);
layerId = m01;
shapes = (
{
closed = 1;
nodes = (
(401,-10,o),
(490,91,o),
(490,225,cs),
(490,359,o),
(401,460,o),
(270,460,cs),
(139,460,o),
(50,359,o),
(50,225,cs),
(50,91,o),
(139,-10,o),
(270,-10,cs)
);
},
{
closed = 1;
nodes = (
(183,33,o),
(140,140,o),
(140,246,cs),
(140,333,o),
(176,418,o),
(258,418,cs),
(359,418,o),
(400,311,o),
(400,205,cs),
(400,119,o),
(365,33,o),
(284,33,cs)
);
},
{
closed = 1;
nodes = (
(528,539,o),
(522,543,o),
(501,543,cs),
(466,543,l),
(460,537,l),
(460,486,ls),
(460,453,o),
(447,433,o),
(409,433,cs),
(390,433,o),
(366,437,o),
(335,450,c),
(330,439,l),
(369,420,o),
(393,415,o),
(426,415,c),
(484,415,o),
(528,455,o),
(528,512,cs)
);
}
);
width = 540;
},
{
anchors = (
{
name = bottom;
pos = (276,0);
},
{
name = right;
pos = (306,0);
},
{
name = top;
pos = (276,510);
}
);
layerId = m002;
shapes = (
{
closed = 1;
nodes = (
(425,-10,o),
(527,102,o),
(527,230,cs),
(527,359,o),
(425,470,o),
(276,470,cs),
(127,470,o),
(25,359,o),
(25,230,cs),
(25,102,o),
(127,-10,o),
(276,-10,cs)
);
},
{
closed = 1;
nodes = (
(229,43,o),
(205,140,o),
(205,251,cs),
(205,344,o),
(224,418,o),
(269,418,cs),
(324,418,o),
(347,321,o),
(347,210,cs),
(347,119,o),
(328,43,o),
(285,43,cs)
);
},
{
closed = 1;
nodes = (
(612,539,o),
(606,543,o),
(585,543,cs),
(511,543,l),
(505,537,l),
(505,491,ls),
(505,455,o),
(489,433,o),
(444,433,cs),
(427,433,o),
(407,437,o),
(379,450,c),
(369,427,l),
(405,404,o),
(445,399,o),
(485,399,cs),
(566,399,o),
(612,446,o),
(612,512,cs)
);
}
);
width = 552;
}
);
unicode = 417;
},
{
color = 5;
glyphname = oslash;
kernLeft = kernLC_o2;
kernRight = kernLC_o1;
layers = (
{
anchors = (
{
name = top;
pos = (267,510);
}
);
layerId = m01;
shapes = (
{
closed = 1;
nodes = (
(401,-10,o),
(490,91,o),
(490,225,cs),
(490,359,o),
(401,460,o),
(270,460,cs),
(139,460,o),
(50,359,o),
(50,225,cs),
(50,91,o),
(139,-10,o),
(270,-10,cs)
);
},
{
closed = 1;
nodes = (
(183,33,o),
(140,140,o),
(140,246,cs),
(140,333,o),
(176,418,o),
(258,418,cs),
(359,418,o),
(400,311,o),
(400,205,cs),
(400,119,o),
(365,33,o),
(284,33,cs)
);
},
{
closed = 1;
nodes = (
(116,-10,l),
(490,460,l),
(424,460,l),
(50,-10,l)
);
}
);
width = 540;
},
{
anchors = (
{
name = top;
pos = (276,510);
}
);
layerId = m002;
shapes = (
{
closed = 1;
nodes = (
(425,-10,o),
(527,102,o),
(527,230,cs),
(527,359,o),
(425,470,o),
(276,470,cs),
(127,470,o),
(25,359,o),
(25,230,cs),
(25,102,o),
(127,-10,o),
(276,-10,cs)
);
},
{
closed = 1;
nodes = (
(229,43,o),
(205,140,o),
(205,251,cs),
(205,344,o),
(224,418,o),
(269,418,cs),
(324,418,o),
(347,321,o),
(347,210,cs),
(347,119,o),
(328,43,o),
(285,43,cs)
);
},
{
closed = 1;
nodes = (
(96,-10,l),
(527,470,l),
(456,470,l),
(25,-10,l)
);
}
);
width = 552;
}
);
unicode = 248;
},
{
color = 5;
glyphname = oe;
kernLeft = kernLC_o2;
kernRight = kernLC_e1;
layers = (
{
layerId = m01;
shapes = (
{
closed = 1;
nodes = (
(352,-10,o),
(417,29,o),
(455,91,c),
(437,91,l),
(470,28,o),
(534,-10,o),
(620,-10,cs),
(701,-10,o),
(764,37,o),
(795,95,c),
(795,105,l),
(792,105,l),
(742,78,o),
(700,65,o),
(663,65,cs),
(532,65,o),
(490,155,o),
(490,251,cs),
(490,355,o),
(535,416,o),
(608,416,cs),
(667,416,o),
(704,377,o),
(719,284,c),
(737,288,l),
(480,288,l),
(480,242,l),
(789,242,l),
(794,247,l),
(794,384,o),
(729,460,o),
(624,460,cs),
(551,460,o),
(484,416,o),
(445,345,c),
(462,345,l),
(426,415,o),
(358,460,o),
(270,460,cs),
(139,460,o),
(50,359,o),
(50,225,cs),
(50,91,o),
(139,-10,o),
(270,-10,cs)
);
},
{
closed = 1;
nodes = (
(183,33,o),
(140,140,o),
(140,246,cs),
(140,333,o),
(176,418,o),
(258,418,cs),
(359,418,o),
(400,311,o),
(400,205,cs),
(400,119,o),
(365,33,o),
(284,33,cs)
);
}
);
width = 845;
},
{
layerId = m002;
shapes = (
{
closed = 1;
nodes = (
(360,-10,o),
(429,26,o),
(473,80,c),
(391,80,l),
(430,23,o),
(497,-10,o),
(586,-10,cs),
(687,-10,o),
(764,46,o),
(798,124,c),
(798,145,l),
(795,145,l),
(753,124,o),
(710,119,o),
(671,119,cs),
(573,119,o),
(527,171,o),
(527,247,cs),
(527,359,o),
(552,425,o),
(596,425,cs),
(635,425,o),
(658,396,o),
(664,294,c),
(720,306,l),
(463,306,l),
(463,262,l),
(794,262,l),
(797,267,l),
(795,395,o),
(734,470,o),
(624,470,cs),
(535,470,o),
(458,433,o),
(409,372,c),
(481,372,l),
(437,431,o),
(365,470,o),
(276,470,cs),
(127,470,o),
(25,359,o),
(25,230,cs),
(25,102,o),
(127,-10,o),
(276,-10,cs)
);
},
{
closed = 1;
nodes = (
(229,43,o),
(205,140,o),
(205,251,cs),
(205,344,o),
(224,418,o),
(269,418,cs),
(324,418,o),
(347,321,o),
(347,210,cs),
(347,119,o),
(328,43,o),
(285,43,cs)
);
}
);
width = 828;
}
);
unicode = 339;
},
{
color = 5;
glyphname = p;
kernLeft = kernLC_n2;
kernRight = kernLC_o1;
layers = (
{
layerId = m01;
shapes = (
{
closed = 1;
nodes = (
(262,-230,l),
(262,-214,l),
(191,-182,l),
(191,380,l),
(181,460,l),
(175,460,l),
(51,405,l),
(51,398,l),
(111,346,l),
(111,-182,l),
(48,-214,l),
(48,-230,l)
);
},
{
closed = 1;
nodes = (
(417,-10,o),
(519,83,o),
(519,247,cs),
(519,379,o),
(446,460,o),
(345,460,cs),
(291,460,o),
(247,442,o),
(196,399,c),
(181,399,l),
(181,354,l),
(215,379,o),
(254,391,o),
(290,391,cs),
(372,391,o),
(439,337,o),
(439,214,cs),
(439,87,o),
(385,38,o),
(321,38,cs),
(266,38,o),
(224,50,o),
(181,88,c),
(131,20,l),
(174,1,o),
(225,-10,o),
(292,-10,cs)
);
}
);
width = 567;
},
{
layerId = m002;
shapes = (
{
closed = 1;
nodes = (
(351,-230,l),
(351,-214,l),
(269,-182,l),
(269,391,l),
(259,470,l),
(243,470,l),
(23,405,l),
(23,389,l),
(89,346,l),
(89,-182,l),
(20,-214,l),
(20,-230,l)
);
},
{
closed = 1;
nodes = (
(467,-10,o),
(579,90,o),
(579,247,cs),
(579,385,o),
(497,470,o),
(415,470,cs),
(363,470,o),
(320,452,o),
(271,409,c),
(257,409,l),
(257,359,l),
(282,372,o),
(292,379,o),
(315,379,cs),
(354,379,o),
(399,328,o),
(399,220,cs),
(399,74,o),
(352,45,o),
(314,45,cs),
(291,45,o),
(271,59,o),
(267,77,c),
(197,37,l),
(241,-1,o),
(287,-10,o),
(343,-10,cs)
);
}
);
width = 604;
}
);
unicode = 112;
},
{
color = 5;
glyphname = thorn;
kernLeft = kernLC_l2;
kernRight = kernLC_o1;
layers = (
{
layerId = m01;
shapes = (
{
closed = 1;
nodes = (
(262,-230,l),
(262,-214,l),
(191,-182,l),
(191,750,l),
(175,750,l),
(51,695,l),
(51,688,l),
(111,636,l),
(111,-182,l),
(48,-214,l),
(48,-230,l)
);
},
{
closed = 1;
nodes = (
(417,-10,o),
(519,83,o),
(519,247,cs),
(519,379,o),
(446,460,o),
(345,460,cs),
(291,460,o),
(247,442,o),
(196,399,c),
(181,399,l),
(181,354,l),
(215,379,o),
(254,391,o),
(290,391,cs),
(372,391,o),
(439,337,o),
(439,214,cs),
(439,87,o),
(385,38,o),
(321,38,cs),
(266,38,o),
(224,50,o),
(181,88,c),
(131,20,l),
(174,1,o),
(225,-10,o),
(292,-10,cs)
);
}
);
width = 567;
},
{
layerId = m002;
shapes = (
{
closed = 1;
nodes = (
(351,-230,l),
(351,-214,l),
(269,-182,l),
(269,750,l),
(253,750,l),
(23,695,l),
(23,679,l),
(89,636,l),
(89,-182,l),
(20,-214,l),
(20,-230,l)
);
},
{
closed = 1;
nodes = (
(467,-10,o),
(579,90,o),
(579,247,cs),
(579,385,o),
(497,470,o),
(415,470,cs),
(365,470,o),
(324,453,o),
(277,414,c),
(257,414,l),
(257,359,l),
(282,372,o),
(292,379,o),
(315,379,cs),
(354,379,o),
(399,328,o),
(399,220,cs),
(399,74,o),
(352,45,o),
(314,45,cs),
(291,45,o),
(271,59,o),
(267,77,c),
(197,37,l),
(241,-1,o),
(287,-10,o),
(343,-10,cs)
);
}
);
width = 599;
}
);
unicode = 254;
},
{
color = 5;
glyphname = q;
kernLeft = kernLC_o2;
kernRight = kernLC_q1;
layers = (
{
layerId = m01;
shapes = (
{
closed = 1;
nodes = (
(519,-230,l),
(519,-214,l),
(456,-183,l),
(456,460,l),
(450,460,l),
(382,427,l),
(439,427,l),
(384,447,o),
(347,460,o),
(289,460,cs),
(159,460,o),
(48,364,o),
(48,194,cs),
(48,68,o),
(121,-10,o),
(222,-10,cs),
(275,-10,o),
(324,10,o),
(370,50,c),
(388,50,l),
(388,97,l),
(355,72,o),
(310,59,o),
(277,59,cs),
(195,59,o),
(128,107,o),
(128,217,cs),
(128,357,o),
(191,411,o),
(266,411,cs),
(302,411,o),
(336,405,o),
(364,381,cs),
(375,372,o),
(376,370,o),
(376,321,c),
(376,-186,l),
(305,-214,l),
(305,-230,l)
);
}
);
width = 558;
},
{
layerId = m002;
shapes = (
{
closed = 1;
nodes = (
(584,-230,l),
(584,-214,l),
(515,-182,l),
(515,470,l),
(499,470,l),
(352,432,l),
(408,432,l),
(368.334,459.766,o),
(328,470,o),
(271,470,cs),
(120,470,o),
(25,361,o),
(25,195,cs),
(25,70,o),
(107,-10,o),
(189,-10,cs),
(234,-10,o),
(275,4,o),
(328,47,c),
(362,47,l),
(362,109,l),
(318,86,o),
(308,81,o),
(289,81,cs),
(250,81,o),
(205,129,o),
(205,230,cs),
(205,384,o),
(242,415,o),
(289,415,cs),
(305,415,o),
(320,410,o),
(328,402,cs),
(334,396,o),
(335,389,o),
(335,373,c),
(335,-182,l),
(253,-214,l),
(253,-230,l)
);
}
);
width = 594;
}
);
unicode = 113;
},
{
color = 5;
glyphname = r;
kernLeft = kernLC_n2;
kernRight = kernLC_r1;
layers = (
{
anchors = (
{
name = bottom;
pos = (155,0);
},
{
name = top;
pos = (222,510);
}
);
layerId = m01;
shapes = (
{
closed = 1;
nodes = (
(266,0,l),
(266,16,l),
(195,48,l),
(195,367,l),
(185,460,l),
(179,460,l),
(55,405,l),
(55,398,l),
(115,346,l),
(115,48,l),
(52,16,l),
(52,0,l)
);
},
{
closed = 1;
nodes = (
(279,378,o),
(293,377,o),
(308,371,cs),
(346,356,l),
(353,356,l),
(373,405,ls),
(376,412,o),
(377,418,o),
(377,423,cs),
(377,435,o),
(362,445,o),
(347,451,cs),
(338,455,o),
(322,460,o),
(311,460,cs),
(277,460,o),
(244,450,o),
(198,375,c),
(187,375,l),
(187,322,l),
(208,360,o),
(234,378,o),
(266,378,cs)
);
}
);
width = 397;
},
{
anchors = (
{
name = bottom;
pos = (179,0);
},
{
name = top;
pos = (264,510);
}
);
layerId = m002;
shapes = (
{
closed = 1;
nodes = (
(356,0,l),
(356,16,l),
(269,48,l),
(269,369,l),
(259,470,l),
(243,470,l),
(23,405,l),
(23,389,l),
(89,346,l),
(89,48,l),
(20,16,l),
(20,0,l)
);
},
{
closed = 1;
nodes = (
(369,359,o),
(381,356,o),
(404,348,cs),
(422,342,l),
(429,342,l),
(456,418,ls),
(458,424,o),
(459,430,o),
(459,434,cs),
(459,446,o),
(451,456,o),
(429,463,cs),
(417,467,o),
(403,470,o),
(391,470,cs),
(350,470,o),
(325,455,o),
(273,377,c),
(261,377,l),
(261,312,l),
(280,339,o),
(310,359,o),
(343,359,cs)
);
}
);
width = 443;
}
);
unicode = 114;
},
{
color = 5;
glyphname = s;
kernLeft = kernLC_s2;
kernRight = kernLC_s1;
layers = (
{
anchors = (
{
name = bottom;
pos = (215,0);
},
{
name = top;
pos = (215,510);
}
);
layerId = m01;
shapes = (
{
closed = 1;
nodes = (
(279,-10,o),
(364,37,o),
(364,126,cs),
(364,220.015,o),
(299.231,238.891,o),
(242,266,cs),
(178.684,295.223,o),
(146,312,o),
(146,357,cs),
(146,397,o),
(176.224,421,o),
(221,421,cs),
(252.461,421,o),
(278.775,405.695,o),
(301,370,cs),
(334,317,l),
(348,317,l),
(348,426,l),
(306,447,o),
(266,460,o),
(217,460,cs),
(147,460,o),
(75,401,o),
(75,327,cs),
(75,260.44,o),
(112.716,230.129,o),
(181,199,cs),
(250.407,166.74,o),
(295,153.885,o),
(295,97,cs),
(295,53,o),
(264,26,o),
(210,26,cs),
(162,26,o),
(130,44,o),
(109,81,cs),
(77,136,l),
(63,136,l),
(63,24,l),
(110,0,o),
(150,-10,o),
(213,-10,cs)
);
}
);
width = 432;
},
{
anchors = (
{
name = bottom;
pos = (221,0);
},
{
name = top;
pos = (222,510);
}
);
layerId = m002;
shapes = (
{
closed = 1;
nodes = (
(310,-10,o),
(396,53,o),
(396,151,cs),
(396,245,o),
(332,271,o),
(276,291,cs),
(183,325,o),
(171,340,o),
(171,369,cs),
(171,402.191,o),
(195,421,o),
(232,421,cs),
(274,421,o),
(295,401,o),
(324,360,cs),
(354,317,l),
(370,317,l),
(370,442,l),
(329,464,o),
(282,470,o),
(240,470,cs),
(123,470,o),
(49,395,o),
(49,300,cs),
(49,243,o),
(81,199,o),
(161,168,cs),
(257,131,o),
(275,119,o),
(275,87,cs),
(275,56.786,o),
(250,40,o),
(202,40,cs),
(160,40,o),
(123,60,o),
(98,95,cs),
(61,146,l),
(45,146,l),
(45,28,l),
(92,5,o),
(139,-10,o),
(207,-10,cs)
);
}
);
width = 441;
}
);
unicode = 115;
},
{
color = 5;
glyphname = scedilla;
kernLeft = kernLC_s2;
kernRight = kernLC_s1;
layers = (
{
layerId = m01;
shapes = (
{
closed = 1;
nodes = (
(279,-10,o),
(364,37,o),
(364,126,cs),
(364,220,o),
(299,239,o),
(242,266,cs),
(179,295,o),
(146,312,o),
(146,357,cs),
(146,397,o),
(176,421,o),
(221,421,cs),
(252,421,o),
(279,406,o),
(301,370,cs),
(334,317,l),
(348,317,l),
(348,426,l),
(306,447,o),
(266,460,o),
(217,460,cs),
(147,460,o),
(75,401,o),
(75,327,cs),
(75,260,o),
(113,230,o),
(181,199,cs),
(250,167,o),
(295,154,o),
(295,97,cs),
(295,53,o),
(264,26,o),
(210,26,cs),
(162,26,o),
(130,44,o),
(109,81,cs),
(77,136,l),
(63,136,l),
(63,24,l),
(110,0,o),
(150,-10,o),
(213,-10,cs)
);
},
{
closed = 1;
nodes = (
(278,-240,o),
(312,-203,o),
(312,-155,cs),
(312,-98,o),
(280,-75,o),
(189,-49,c),
(202,-69,l),
(243,20,l),
(208,20,l),
(151,-103,l),
(230,-128,o),
(252,-142,o),
(252,-171,cs),
(252,-192,o),
(238,-210,o),
(198,-210,cs),
(171,-210,o),
(153,-206,o),
(135,-198,c),
(132,-198,l),
(132,-210,l),
(150,-231,o),
(178,-240,o),
(215,-240,c)
);
}
);
width = 432;
},
{
layerId = m002;
shapes = (
{
closed = 1;
nodes = (
(310,-10,o),
(396,53,o),
(396,151,cs),
(396,245,o),
(332,271,o),
(276,291,cs),
(183,325,o),
(171,340,o),
(171,369,cs),
(171,402,o),
(195,421,o),
(232,421,cs),
(274,421,o),
(295,401,o),
(324,360,cs),
(354,317,l),
(370,317,l),
(370,442,l),
(329,464,o),
(282,470,o),
(240,470,cs),
(123,470,o),
(49,395,o),
(49,300,cs),
(49,243,o),
(81,199,o),
(161,168,cs),
(257,131,o),
(275,119,o),
(275,87,cs),
(275,57,o),
(250,40,o),
(202,40,cs),
(160,40,o),
(123,60,o),
(98,95,cs),
(61,146,l),
(45,146,l),
(45,28,l),
(92,5,o),
(139,-10,o),
(207,-10,cs)
);
},
{
closed = 1;
nodes = (
(283,-240,o),
(328,-200,o),
(328,-143,cs),
(328,-85,o),
(296,-51,o),
(196,-27,c),
(213,-61,l),
(253,27,l),
(213,27,l),
(154,-103,l),
(233,-122,o),
(251,-142,o),
(251,-170,cs),
(251,-196,o),
(229,-208,o),
(195,-208,cs),
(179,-208,o),
(157,-205,o),
(142,-197,c),
(138,-197,l),
(138,-220,l),
(159,-233,o),
(184,-240,o),
(218,-240,cs)
);
}
);
width = 441;
}
);
unicode = 351;
},
{
color = 5;
glyphname = germandbls;
kernLeft = kernLC_f2;
kernRight = kernLC_germandbls1;
layers = (
{
layerId = m01;
shapes = (
{
closed = 1;
nodes = (
(207,0,l),
(207,552,ls),
(207,646,o),
(242,710,o),
(334,710,cs),
(406,710,o),
(447,665,o),
(447,608,cs),
(447,467,o),
(321,444,o),
(321,351,cs),
(321,290,o),
(359,261,o),
(404,228,cs),
(465,184,o),
(513,154.696,o),
(513,101,cs),
(513,52,o),
(477,26,o),
(427,26,cs),
(383,26,o),
(353,46,o),
(333,81,cs),
(301,136,l),
(287,136,l),
(287,24,l),
(333,0,o),
(373,-10,o),
(435,-10,cs),
(513.805,-10,o),
(583,50,o),
(583,124,cs),
(583,178,o),
(560,212,o),
(493,265,cs),
(428,317,o),
(397,334,o),
(397,374,cs),
(397,476,o),
(523,520,o),
(523,623,cs),
(523,692,o),
(461,750,o),
(358,750,cs),
(214,750,o),
(127,616,o),
(127,480,cs),
(127,48,l),
(64,16,l),
(64,0,l)
);
},
{
closed = 1;
nodes = (
(159,403,l),
(159,450,l),
(49,450,l),
(49,403,l)
);
}
);
width = 603;
},
{
layerId = m002;
shapes = (
{
closed = 1;
nodes = (
(274,0,l),
(274,536,ls),
(274,637,o),
(296,699,o),
(372,699,cs),
(426,699,o),
(450,653,o),
(450,590,cs),
(450,444,o),
(349,439.612,o),
(349,322,cs),
(349,255,o),
(382,222,o),
(426,197,cs),
(492,161,o),
(541,149,o),
(541,98,cs),
(541,65,o),
(516,40,o),
(475,40,cs),
(439,40,o),
(404,64,o),
(382,95,cs),
(345,146,l),
(329,146,l),
(329,28,l),
(376,5,o),
(419,-10,o),
(487,-10,cs),
(592,-10,o),
(678,55,o),
(678,147,cs),
(678,200,o),
(666,242,o),
(594,288,cs),
(529,329,o),
(463,349,o),
(463,404,cs),
(463,500,o),
(607,495,o),
(607,615,cs),
(607,688,o),
(543,750,o),
(391,750,cs),
(201,750,o),
(94,616,o),
(94,480,cs),
(94,48,l),
(31,16,l),
(31,0,l)
);
},
{
closed = 1;
nodes = (
(126,413,l),
(126,460,l),
(16,460,l),
(16,413,l)
);
}
);
width = 718;
}
);
unicode = 223;
},
{
color = 5;
glyphname = t;
kernLeft = kernLC_t2;
kernRight = kernLC_t1;
layers = (
{
anchors = (
{
name = bottom;
pos = (212,0);
},
{
name = right;
pos = (309,740);
},
{
name = top;
pos = (155,610);
}
);
layerId = m01;
shapes = (
{
closed = 1;
nodes = (
(271,-10,o),
(310,23,o),
(324,53,c),
(324,63,l),
(321,63,l),
(305,59,o),
(282,56,o),
(257,56,cs),
(215,56,o),
(180,72,o),
(180,106,cs),
(180,403,l),
(312,403,l),
(312,450,l),
(180,450,l),
(180,560,l),
(174,560,l),
(103,450,l),
(18,409,l),
(18,403,l),
(100,403,l),
(100,89,ls),
(100,26,o),
(149,-10,o),
(208,-10,c)
);
}
);
width = 354;
},
{
anchors = (
{
name = bottom;
pos = (230,0);
},
{
name = right;
pos = (382,740);
},
{
name = top;
pos = (231,610);
}
);
layerId = m002;
shapes = (
{
closed = 1;
nodes = (
(290.784,-10,o),
(358.155,18.927,o),
(385,53,c),
(385,75,l),
(382,77,l),
(362,73,o),
(346,70,o),
(322,70,cs),
(283,70,o),
(250,86,o),
(250,120,cs),
(250,416,l),
(392,416,l),
(392,460,l),
(250,460,l),
(250,570,l),
(221,570,l),
(102,460,l),
(5,435,l),
(5,416,l),
(70,416,l),
(70,89,ls),
(70,26,o),
(134.198,-10,o),
(230,-10,cs)
);
}
);
width = 407;
}
);
unicode = 116;
},
{
color = 5;
glyphname = u;
kernLeft = kernLC_u2;
kernRight = kernLC_u1;
layers = (
{
anchors = (
{
name = bottom;
pos = (270,0);
},
{
name = right;
pos = (457,0);
},
{
name = top;
pos = (270,510);
}
);
layerId = m01;
shapes = (
{
closed = 1;
nodes = (
(281,-10,o),
(325,12,o),
(376,63,c),
(389,63,l),
(389,108,l),
(367,79,o),
(310,64,o),
(270,64,cs),
(212,64,o),
(171,95,o),
(171,154,cs),
(171,450,l),
(28,450,l),
(28,434,l),
(91,403,l),
(91,107,ls),
(91,30,o),
(147,-10,o),
(225,-10,cs)
);
},
{
closed = 1;
nodes = (
(532,0,l),
(532,16,l),
(461,45,l),
(461,450,l),
(310,450,l),
(310,434,l),
(381,403,l),
(381,0,l)
);
}
);
width = 561;
},
{
anchors = (
{
name = bottom;
pos = (309,0);
},
{
name = right;
pos = (465,0);
},
{
name = top;
pos = (309,510);
}
);
layerId = m002;
shapes = (
{
closed = 1;
nodes = (
(277,-10,o),
(314,20,o),
(358,64,c),
(370,64,l),
(370,121,l),
(354,106,o),
(329,94,o),
(308,94,cs),
(277,94,o),
(255,115,o),
(255,154,cs),
(255,460,l),
(6,460,l),
(6,444,l),
(75,412,l),
(75,117,ls),
(75,33,o),
(132,-10,o),
(213,-10,cs)
);
},
{
closed = 1;
nodes = (
(599,0,l),
(599,16,l),
(542,48,l),
(542,460,l),
(308,460,l),
(308,444,l),
(362,412,l),
(362,0,l)
);
}
);
width = 609;
}
);
unicode = 117;
},
{
color = 4;
glyphname = uhorn;
kernLeft = kernLC_u2;
kernRight = kernLC_uhorn1;
layers = (
{
anchors = (
{
name = bottom;
pos = (270,0);
},
{
name = right;
pos = (467,0);
},
{
name = top;
pos = (270,510);
}
);
layerId = m01;
shapes = (
{
closed = 1;
nodes = (
(281,-10,o),
(325,12,o),
(376,63,c),
(389,63,l),
(389,108,l),
(367,79,o),
(310,64,o),
(270,64,cs),
(212,64,o),
(171,95,o),
(171,154,c),
(171,450,l),
(28,450,l),
(28,434,l),
(91,403,l),
(91,107,ls),
(91,30,o),
(147,-10,o),
(225,-10,cs)
);
},
{
closed = 1;
nodes = (
(461,45,l),
(461,450,l),
(310,450,l),
(310,434,l),
(381,403,l),
(381,0,l),
(532,0,l),
(532,16,l)
);
},
{
closed = 1;
nodes = (
(609,539,o),
(603,543,o),
(582,543,cs),
(547,543,l),
(541,537,l),
(541,486,ls),
(541,453,o),
(528,433,o),
(490,433,cs),
(471,433,o),
(447,437,o),
(416,450,c),
(411,439,l),
(450,420,o),
(474,415,o),
(507,415,c),
(565,415,o),
(609,455,o),
(609,512,cs)
);
}
);
width = 561;
},
{
anchors = (
{
name = bottom;
pos = (309,0);
},
{
name = right;
pos = (467,0);
},
{
name = top;
pos = (309,510);
}
);
layerId = m002;
shapes = (
{
closed = 1;
nodes = (
(277,-10,o),
(314,20,o),
(358,64,c),
(370,64,l),
(370,121,l),
(354,106,o),
(329,94,o),
(308,94,cs),
(277,94,o),
(255,115,o),
(255,154,cs),
(255,460,l),
(6,460,l),
(6,444,l),
(75,412,l),
(75,117,ls),
(75,33,o),
(132,-10,o),
(213,-10,cs)
);
},
{
closed = 1;
nodes = (
(542,48,l),
(542,460,l),
(308,460,l),
(308,444,l),
(362,412,l),
(362,0,l),
(599,0,l),
(599,16,l)
);
},
{
closed = 1;
nodes = (
(740,539,o),
(734,543,o),
(713,543,cs),
(639,543,l),
(633,537,l),
(633,491,ls),
(633,455,o),
(617,433,o),
(572,433,cs),
(555,433,o),
(535,437,o),
(507,450,c),
(497,427,l),
(533,404,o),
(573,399,o),
(613,399,cs),
(694,399,o),
(740,446,o),
(740,512,cs)
);
}
);
width = 609;
}
);
unicode = 432;
},
{
color = 5;
glyphname = uogonek;
layers = (
{
layerId = m01;
shapes = (
{
ref = u;
},
{
pos = (440,0);
ref = ogonekcomb;
}
);
width = 561;
},
{
layerId = m002;
shapes = (
{
ref = u;
},
{
pos = (439,0);
ref = ogonekcomb;
}
);
width = 609;
},
{
associatedMasterId = m01;
layerId = "7784AD34-31A9-4CF7-8E7E-85868657B49B";
name = "Feb 16, 23 at 18:02";
shapes = (
{
closed = 1;
nodes = (
(281,-10,o),
(325,12,o),
(376,63,c),
(389,63,l),
(389,108,l),
(367,79,o),
(310,64,o),
(270,64,cs),
(212,64,o),
(171,95,o),
(171,154,c),
(171,450,l),
(28,450,l),
(28,434,l),
(91,403,l),
(91,107,ls),
(91,30,o),
(147,-10,o),
(225,-10,cs)
);
},
{
closed = 1;
nodes = (
(532,0,l),
(532,16,l),
(461,45,l),
(461,450,l),
(310,450,l),
(310,434,l),
(381,403,l),
(381,0,l)
);
},
{
closed = 1;
nodes = (
(486,-240,o),
(514,-223,o),
(532,-195,c),
(532,-183,l),
(529,-183,l),
(511,-193,o),
(494,-195,o),
(479,-195,cs),
(438,-195,o),
(414,-176,o),
(414,-130,cs),
(414,-87,o),
(431,-41,o),
(474,20,c),
(452,20,l),
(392,-48,o),
(348,-98,o),
(348,-152,cs),
(348,-205,o),
(389,-240,o),
(447,-240,cs)
);
}
);
visible = 1;
width = 561;
}
);
unicode = 371;
},
{
color = 5;
glyphname = v;
kernLeft = kernLC_v3;
kernRight = kernLC_v3;
layers = (
{
layerId = m01;
shapes = (
{
closed = 1;
nodes = (
(242,0,l),
(278,83,l),
(278,119,l),
(262,119,l),
(134,398,l),
(134,404,l),
(216,434,l),
(216,450,l),
(-23,450,l),
(-23,434,l),
(44,403,l),
(227,0,l)
);
},
{
closed = 1;
nodes = (
(429,399,l),
(503,434,l),
(503,450,l),
(307,450,l),
(307,434,l),
(379,398,l),
(379,392,l),
(235,43,l),
(235,0,l),
(248,0,l)
);
}
);
width = 480;
},
{
layerId = m002;
shapes = (
{
closed = 1;
nodes = (
(246,0,l),
(311,138,l),
(311,228,l),
(295,228,l),
(207,414,l),
(207,416,l),
(267,444,l),
(267,460,l),
(-44,460,l),
(-44,444,l),
(15,419,l),
(209,0,l)
);
},
{
closed = 1;
nodes = (
(449,411,l),
(517,444,l),
(517,460,l),
(320,460,l),
(320,444,l),
(378,414,l),
(378,412,l),
(226,54,l),
(226,0,l),
(258,0,l)
);
}
);
width = 473;
}
);
unicode = 118;
},
{
color = 5;
glyphname = w;
kernLeft = kernLC_w3;
kernRight = kernLC_w3;
layers = (
{
anchors = (
{
name = top;
pos = (395,510);
}
);
layerId = m01;
shapes = (
{
closed = 1;
nodes = (
(216,0,l),
(252,81,l),
(252,121,l),
(238,121,l),
(134,398,l),
(134,404,l),
(216,434,l),
(216,450,l),
(-23,450,l),
(-23,434,l),
(44,403,l),
(201,0,l)
);
},
{
closed = 1;
nodes = (
(210,46,l),
(210,0,l),
(222,0,l),
(389,367,l),
(352,367,l),
(514,0,l),
(529,0,l),
(559,96,l),
(405,450,l),
(384,450,l)
);
},
{
closed = 1;
nodes = (
(702,399,l),
(776,434,l),
(776,450,l),
(580,450,l),
(580,434,l),
(652,398,l),
(652,392,l),
(551,124,l),
(526,124,l),
(526,0,l),
(535,0,l)
);
}
);
width = 753;
},
{
anchors = (
{
name = top;
pos = (406,510);
}
);
layerId = m002;
shapes = (
{
closed = 1;
nodes = (
(221,0,l),
(299,172,l),
(299,226,l),
(277,226,l),
(207,414,l),
(207,416,l),
(267,444,l),
(267,460,l),
(-44,460,l),
(-44,444,l),
(15,419,l),
(184,0,l)
);
},
{
closed = 1;
nodes = (
(206,46,l),
(206,0,l),
(233,0,l),
(369,283,l),
(325,283,l),
(457,0,l),
(494,0,l),
(559,172,l),
(430,460,l),
(381,460,l)
);
},
{
closed = 1;
nodes = (
(687,411,l),
(755,444,l),
(755,460,l),
(558,460,l),
(558,444,l),
(616,415,l),
(616,412,l),
(540,226,l),
(473,226,l),
(473,0,l),
(506,0,l)
);
}
);
width = 711;
}
);
unicode = 119;
},
{
color = 5;
glyphname = x;
kernLeft = kernLC_x3;
kernRight = kernLC_x3;
layers = (
{
layerId = m01;
shapes = (
{
closed = 1;
nodes = (
(470,0,l),
(470,16,l),
(429,47,l),
(170,398,l),
(170,404,l),
(238,434,l),
(238,450,l),
(31,450,l),
(31,434,l),
(78,403,l),
(337,52,l),
(337,46,l),
(276,16,l),
(276,0,l)
);
},
{
closed = 1;
nodes = (
(201,0,l),
(201,16,l),
(139,52,l),
(139,58,l),
(251,224,l),
(229,247,l),
(80,51,l),
(26,16,l),
(26,0,l)
);
},
{
closed = 1;
nodes = (
(287,450,l),
(287,434,l),
(344,398,l),
(344,392,l),
(243,243,l),
(264,220,l),
(400,399,l),
(453,434,l),
(453,450,l)
);
}
);
width = 496;
},
{
layerId = m002;
shapes = (
{
closed = 1;
nodes = (
(574,0,l),
(574,16,l),
(533,41,l),
(275,414,l),
(275,420,l),
(323,444,l),
(323,460,l),
(10,460,l),
(10,444,l),
(54,419,l),
(312,46,l),
(312,40,l),
(261,16,l),
(261,0,l)
);
},
{
closed = 1;
nodes = (
(205,0,l),
(205,16,l),
(153,46,l),
(153,52,l),
(295,229,l),
(250,252,l),
(63,45,l),
(12,16,l),
(12,0,l)
);
},
{
closed = 1;
nodes = (
(370,460,l),
(370,444,l),
(417,414,l),
(417,408,l),
(284,248,l),
(331,225,l),
(504,415,l),
(557,444,l),
(557,460,l)
);
}
);
width = 584;
}
);
unicode = 120;
},
{
color = 5;
glyphname = y;
kernLeft = kernLC_y3;
kernRight = kernLC_y3;
layers = (
{
anchors = (
{
name = bottom;
pos = (298,-28);
},
{
name = top;
pos = (264,510);
}
);
layerId = m01;
shapes = (
{
closed = 1;
nodes = (
(-23,434,l),
(44,403,l),
(231,0,l),
(284,72,l),
(284,108,l),
(267,108,l),
(134,398,l),
(134,403,l),
(216,434,l),
(216,450,l),
(-23,450,l)
);
},
{
closed = 1;
nodes = (
(116,-241,o),
(151,-221,o),
(178,-183,cs),
(208,-141,o),
(212,-126,o),
(231,-79,cs),
(428,400,l),
(503,434,l),
(503,450,l),
(307,450,l),
(307,434,l),
(382,398,l),
(382,392,l),
(254,67,l),
(192,-70,ls),
(153,-155,o),
(148,-158,o),
(99,-158,cs),
(53,-158,l),
(49,-162,l),
(49,-212,ls),
(49,-234,o),
(53,-241,o),
(83,-241,cs)
);
}
);
width = 480;
},
{
anchors = (
{
name = bottom;
pos = (349,-10);
},
{
name = top;
pos = (291,510);
}
);
layerId = m002;
shapes = (
{
closed = 1;
nodes = (
(-45,444,l),
(14,419,l),
(246,-55,l),
(327,172,l),
(327,222,l),
(302,222,l),
(206,414,l),
(206,416,l),
(256,444,l),
(256,460,l),
(-45,460,l)
);
},
{
closed = 1;
nodes = (
(119,-241,o),
(167,-222,o),
(195,-183,cs),
(225,-141,o),
(229,-125,o),
(248,-79,cs),
(449,411,l),
(517,444,l),
(517,460,l),
(330,460,l),
(330,444,l),
(378,414,l),
(378,412,l),
(284,146,l),
(203,-60,ls),
(179,-122,o),
(149,-125,o),
(99,-125,cs),
(55,-125,l),
(49,-131,l),
(49,-212,ls),
(49,-234,o),
(53,-241,o),
(83,-241,cs)
);
}
);
width = 473;
}
);
unicode = 121;
},
{
color = 5;
glyphname = z;
kernLeft = kernLC_z3;
kernRight = kernLC_z3;
layers = (
{
anchors = (
{
name = bottom;
pos = (243,0);
},
{
name = top;
pos = (243,510);
}
);
layerId = m01;
shapes = (
{
closed = 1;
nodes = (
(407,0,l),
(407,151,l),
(391,151,l),
(342,8,l),
(381,44,l),
(157,44,l),
(157,14,l),
(399,432,l),
(399,450,l),
(148,450,ls),
(132,450,o),
(102,456,o),
(85,460,c),
(80,460,l),
(69,306,l),
(85,306,l),
(145,440,l),
(105,406,l),
(312,406,l),
(312,436,l),
(70,18,l),
(70,0,l)
);
}
);
width = 482;
},
{
anchors = (
{
name = bottom;
pos = (267,0);
},
{
name = top;
pos = (267,510);
}
);
layerId = m002;
shapes = (
{
closed = 1;
nodes = (
(475,0,l),
(475,171,l),
(454,171,l),
(385,8,l),
(449,49,l),
(235,49,l),
(235,7,l),
(467,439,l),
(467,460,l),
(133,460,ls),
(105,460,o),
(75,465,o),
(56,470,c),
(51,470,l),
(40,296,l),
(61,296,l),
(141,450,l),
(76,411,l),
(273,411,l),
(273,453,l),
(41,21,l),
(41,0,l)
);
}
);
width = 515;
}
);
unicode = 122;
},
{
color = 5;
glyphname = ordfeminine;
layers = (
{
layerId = m01;
shapes = (
{
closed = 1;
nodes = (
(190,417,o),
(212,450,o),
(218,450,cs),
(220,450,o),
(222,448,o),
(224,444,cs),
(230,430,o),
(248,417,o),
(276,417,cs),
(307,417,o),
(331,438,o),
(331,447,cs),
(331,449,o),
(329,451,o),
(327,451,cs),
(325,451,o),
(319,450,o),
(305,450,cs),
(297,450,o),
(287,454,o),
(287,472,cs),
(287,602,ls),
(287,646,o),
(253,669,o),
(200,669,cs),
(152,669,o),
(91,638,o),
(91,606,cs),
(91,590,o),
(101,586,o),
(124,586,cs),
(137,586,o),
(141,591,o),
(141,609,cs),
(141,630,o),
(146,642,o),
(173,642,cs),
(206,642,o),
(218,618,o),
(218,604,cs),
(218,570,ls),
(218,568,o),
(218,565,o),
(213,564,cs),
(112,544,o),
(82,521,o),
(82,476,cs),
(82,441,o),
(108,417,o),
(141,417,cs)
);
},
{
closed = 1;
nodes = (
(162,458,o),
(148,468,o),
(148,489,cs),
(148,524,o),
(168,529,o),
(213,542,cs),
(218,543,o),
(218,540,o),
(218,538,cs),
(218,479,ls),
(218,464,o),
(204,458,o),
(185,458,cs)
);
},
{
closed = 1;
nodes = (
(300,292,ls),
(310,292,o),
(315,296,o),
(315,306,cs),
(315,327,ls),
(315,337,o),
(310,342,o),
(300,342,cs),
(101,342,ls),
(89,342,o),
(85,338,o),
(85,326,cs),
(85,308,ls),
(85,296,o),
(89,292,o),
(101,292,cs)
);
}
);
width = 400;
},
{
layerId = m002;
shapes = (
{
closed = 1;
nodes = (
(190,417,o),
(214,450,o),
(220,450,cs),
(222,450,o),
(224,448,o),
(227,444,cs),
(240,428,o),
(258,417,o),
(286,417,cs),
(337,417,o),
(354,441,o),
(354,450,cs),
(354,456,o),
(352,459,o),
(346,459,cs),
(344,459,o),
(339,456,o),
(325,456,cs),
(317,456,o),
(310,463,o),
(310,474,cs),
(310,602,ls),
(310,646,o),
(273,670,o),
(200,670,cs),
(152,670,o),
(91,638,o),
(91,606,cs),
(91,590,o),
(102,586,o),
(134,586,cs),
(147,586,o),
(164,591,o),
(164,609,cs),
(164,630,o),
(167,641,o),
(184,641,cs),
(217,641,o),
(218,613,o),
(218,599,cs),
(218,570,ls),
(218,568,o),
(218,565,o),
(213,564,cs),
(112,544,o),
(82,521,o),
(82,476,cs),
(82,441,o),
(108,417,o),
(141,417,cs)
);
},
{
closed = 1;
nodes = (
(187,463,o),
(171,474,o),
(171,495,cs),
(171,520,o),
(189,533,o),
(213,540,cs),
(218,541,o),
(218,538,o),
(218,536,cs),
(218,479,ls),
(218,464,o),
(212,463,o),
(200,463,cs)
);
},
{
closed = 1;
nodes = (
(330,290,ls),
(340,290,o),
(345,294,o),
(345,304,cs),
(345,330,ls),
(345,340,o),
(340,345,o),
(330,345,cs),
(101,345,ls),
(89,345,o),
(85,341,o),
(85,329,cs),
(85,306,ls),
(85,294,o),
(89,290,o),
(101,290,cs)
);
}
);
width = 423;
},
{
associatedMasterId = m01;
layerId = "813B9FA6-27F4-4382-ABA0-2AF398D2277D";
name = "Dec 22, 21, 15:44";
shapes = (
{
closed = 1;
nodes = (
(173,417,o),
(199,431,o),
(218,452,c),
(228,452,l),
(228,470,l),
(211,462,o),
(198,458,o),
(184,458,cs),
(161,458,o),
(148,469,o),
(148,491,cs),
(148,519,o),
(162,534,o),
(235,546,c),
(235,569,l),
(168,552,ls),
(101,535,o),
(82,515,o),
(82,477,c),
(82,439,o),
(110,417,o),
(144,417,cs)
);
},
{
closed = 1;
nodes = (
(305,417,o),
(323,430,o),
(331,444,c),
(331,450,l),
(329,452,l),
(314,452,ls),
(301,452,o),
(292,456,o),
(287,461,c),
(287,602,ls),
(287,647,o),
(252,669,o),
(195,669,cs),
(169,669,o),
(148,661,o),
(124,646,cs),
(103,633,o),
(91,618,o),
(91,602,cs),
(91,590,o),
(94,586,o),
(105,586,cs),
(139,586,l),
(141,588,l),
(141,611,ls),
(141,631,o),
(150,642,o),
(174,642,cs),
(199,642,o),
(218,625,o),
(218,598,cs),
(218,459,l),
(219,459,l),
(226,433,o),
(244,417,o),
(276,417,cs)
);
},
{
closed = 1;
nodes = (
(315,292,l),
(315,342,l),
(85,342,l),
(85,292,l)
);
}
);
width = 400;
},
{
associatedMasterId = m002;
layerId = "90B3FEEF-9070-4B34-8092-1C579A92EE48";
name = "Dec 22, 21, 15:44";
shapes = (
{
closed = 1;
nodes = (
(175,417,o),
(201,433,o),
(219,453,c),
(228,453,l),
(228,470,l),
(216,464,o),
(212,463,o),
(202,463,cs),
(186,463,o),
(171,476,o),
(171,494,cs),
(171,522,o),
(187,537,o),
(235,546,c),
(235,569,l),
(168,552,ls),
(101,535,o),
(82,515,o),
(82,477,cs),
(82,439,o),
(110,417,o),
(144,417,cs)
);
},
{
closed = 1;
nodes = (
(327,417,o),
(344,432,o),
(354,446,c),
(354,457,l),
(352,459,l),
(337,459,ls),
(324,459,o),
(315,463,o),
(310,468,c),
(310,602,ls),
(310,651,o),
(263,670,o),
(206,670,cs),
(176,670,o),
(151,663,o),
(124,646,cs),
(103,633,o),
(91,618,o),
(91,602,cs),
(91,590,o),
(94,586,o),
(105,586,cs),
(162,586,l),
(164,588,l),
(164,619,ls),
(164,635,o),
(170,641,o),
(185,641,cs),
(207,641,o),
(218,624,o),
(218,601,cs),
(218,459,l),
(220,459,l),
(227,433,o),
(255,417,o),
(287,417,cs)
);
},
{
closed = 1;
nodes = (
(345,290,l),
(345,345,l),
(85,345,l),
(85,290,l)
);
}
);
visible = 1;
width = 423;
}
);
unicode = 170;
},
{
color = 5;
glyphname = ordmasculine;
layers = (
{
layerId = m01;
shapes = (
{
closed = 1;
nodes = (
(274,417,o),
(325,473,o),
(325,543,cs),
(325,612,o),
(274,669,o),
(200,669,cs),
(125,669,o),
(75,612,o),
(75,543,cs),
(75,473,o),
(125,417,o),
(200,417,cs)
);
},
{
closed = 1;
nodes = (
(171,442,o),
(147,484,o),
(147,554,cs),
(147,607,o),
(165,644,o),
(195,644,cs),
(230,644,o),
(253,600,o),
(253,532,cs),
(253,476,o),
(236,442,o),
(206,442,cs)
);
},
{
closed = 1;
nodes = (
(300,292,ls),
(310,292,o),
(315,296,o),
(315,306,cs),
(315,327,ls),
(315,337,o),
(310,342,o),
(300,342,cs),
(101,342,ls),
(89,342,o),
(85,338,o),
(85,326,cs),
(85,308,ls),
(85,296,o),
(89,292,o),
(101,292,cs)
);
}
);
width = 400;
},
{
layerId = m002;
shapes = (
{
closed = 1;
nodes = (
(292,416,o),
(348,473,o),
(348,543,cs),
(348,612,o),
(293,670,o),
(212,670,cs),
(130,670,o),
(75,612,o),
(75,543,cs),
(75,473,o),
(129,416,o),
(211,416,cs)
);
},
{
closed = 1;
nodes = (
(181,444,o),
(171,502,o),
(171,554,cs),
(171,596,o),
(179,642,o),
(207,642,cs),
(241,642,o),
(252,584,o),
(252,532,cs),
(252,491,o),
(243,444,o),
(216,444,cs)
);
},
{
closed = 1;
nodes = (
(330,290,ls),
(340,290,o),
(345,294,o),
(345,304,cs),
(345,330,ls),
(345,340,o),
(340,345,o),
(330,345,cs),
(101,345,ls),
(89,345,o),
(85,341,o),
(85,329,cs),
(85,306,ls),
(85,294,o),
(89,290,o),
(101,290,cs)
);
}
);
width = 423;
},
{
associatedMasterId = m002;
layerId = "529889A6-707B-4678-8A07-5421A4877AE3";
name = "Dec 22, 21, 18:16";
shapes = (
{
closed = 1;
nodes = (
(292,416,o),
(348,473,o),
(348,543,cs),
(348,612,o),
(293,670,o),
(212,670,cs),
(130,670,o),
(75,612,o),
(75,543,cs),
(75,473,o),
(129,416,o),
(211,416,cs)
);
},
{
closed = 1;
nodes = (
(181,444,o),
(171,502,o),
(171,554,cs),
(171,596,o),
(179,642,o),
(207,642,cs),
(241,642,o),
(252,584,o),
(252,532,cs),
(252,491,o),
(243,444,o),
(216,444,cs)
);
},
{
closed = 1;
nodes = (
(345,290,l),
(345,345,l),
(85,345,l),
(85,290,l)
);
}
);
width = 423;
},
{
associatedMasterId = m01;
layerId = "A81940D0-D915-42DD-9F70-A2D96A39FB2A";
name = "Dec 22, 21, 18:16";
shapes = (
{
closed = 1;
nodes = (
(274,417,o),
(325,473,o),
(325,543,cs),
(325,612,o),
(274,669,o),
(200,669,cs),
(125,669,o),
(75,612,o),
(75,543,cs),
(75,473,o),
(125,417,o),
(200,417,cs)
);
},
{
closed = 1;
nodes = (
(171,442,o),
(147,484,o),
(147,554,cs),
(147,607,o),
(165,644,o),
(195,644,cs),
(230,644,o),
(253,600,o),
(253,532,cs),
(253,476,o),
(236,442,o),
(206,442,cs)
);
},
{
closed = 1;
nodes = (
(315,292,l),
(315,342,l),
(85,342,l),
(85,292,l)
);
}
);
visible = 1;
width = 400;
}
);
unicode = 186;
},
{
color = 5;
glyphname = Delta;
layers = (
{
layerId = m01;
shapes = (
{
closed = 1;
nodes = (
(607,0,l),
(607,28,l),
(345,665,l),
(300,665,l),
(35,28,l),
(35,0,l)
);
},
{
closed = 1;
nodes = (
(319,564,l),
(297,564,l),
(503,52,l),
(522,80,l),
(94,80,l),
(113,52,l)
);
}
);
width = 642;
},
{
layerId = m002;
shapes = (
{
closed = 1;
nodes = (
(699,0,l),
(699,45,l),
(434,665,l),
(319,665,l),
(51,45,l),
(51,0,l)
);
},
{
closed = 1;
nodes = (
(333,539,l),
(288,539,l),
(484,71,l),
(507,108,l),
(124,108,l),
(142,83,l)
);
}
);
width = 750;
}
);
unicode = 916;
},
{
color = 5;
glyphname = mu;
layers = (
{
layerId = m01;
shapes = (
{
closed = 1;
nodes = (
(298,-10,o),
(335,12,o),
(378,63,c),
(389,63,l),
(389,108,l),
(367,79,o),
(310,64,o),
(270,64,cs),
(212,64,o),
(171,95,o),
(171,154,cs),
(171,450,l),
(91,450,l),
(91,-230,l),
(93,-230,l),
(171,-210,l),
(151,56,l),
(134,47,l),
(170.844,0.461,o),
(208,-10,o),
(251,-10,cs)
);
},
{
closed = 1;
nodes = (
(510,-10,o),
(542,16,o),
(558,45,c),
(558,48,l),
(555,50,l),
(517,50,ls),
(487,50,o),
(470,57,o),
(461,67,c),
(461,450,l),
(381,450,l),
(381,71,l),
(383,71,l),
(389,23,o),
(416,-10,o),
(465,-10,cs)
);
}
);
width = 561;
},
{
layerId = m002;
shapes = (
{
closed = 1;
nodes = (
(258,-10,o),
(290,22,o),
(332,64,c),
(344,64,l),
(344,121,l),
(328,106,o),
(303,94,o),
(282,94,cs),
(251,94,o),
(229,115,o),
(229,154,cs),
(229,460,l),
(49,460,l),
(49,-230,l),
(51,-230,l),
(199,-210,l),
(119,69,l),
(106,50,l),
(123,10,o),
(156,-10,o),
(199,-10,cs)
);
},
{
closed = 1;
nodes = (
(533,-10,o),
(570,16,o),
(585,38,c),
(585,59,l),
(581,63,l),
(559,63,ls),
(540,63,o),
(526,69,o),
(516,78,c),
(516,460,l),
(336,460,l),
(336,69,l),
(338,69,l),
(360,17,o),
(401,-10,o),
(471,-10,cs)
);
}
);
width = 561;
}
);
unicode = 956;
},
{
color = 5;
glyphname = pi;
layers = (
{
layerId = m01;
shapes = (
{
closed = 1;
nodes = (
(129,0,l),
(211,0,l),
(211,420,l),
(161,420,l),
(161,300,l),
(161,132,o),
(147,81,o),
(129,4,c)
);
},
{
closed = 1;
nodes = (
(74,379,o),
(113,390,o),
(182,390,cs),
(525,390,l),
(525,450,l),
(180,450,ls),
(114,450,o),
(74,426,o),
(45,402,c),
(45,358,l),
(48,358,l)
);
},
{
closed = 1;
nodes = (
(501,-10,o),
(534,32,o),
(558,124,c),
(545,127,l),
(528.771,87.443,o),
(508,66,o),
(488,66,cs),
(463,66,o),
(449,85,o),
(449,142,cs),
(449,450,l),
(372,450,l),
(372,98,ls),
(372,32,o),
(400,-10,o),
(455,-10,cs)
);
}
);
width = 589;
},
{
layerId = m002;
shapes = (
{
closed = 1;
nodes = (
(113,0,l),
(205,0,l),
(205,430,l),
(145,430,l),
(145,300,l),
(145,132,o),
(131,81,o),
(113,4,c)
);
},
{
closed = 1;
nodes = (
(58,359,o),
(97,370,o),
(166,370,cs),
(569,370,l),
(569,460,l),
(164,460,ls),
(98,460,o),
(58,436,o),
(29,412,c),
(29,338,l),
(32,338,l)
);
},
{
closed = 1;
nodes = (
(518,-10,o),
(580,28,o),
(605,124,c),
(584,132,l),
(569,95,o),
(550,76,o),
(531,76,cs),
(506,76,o),
(493,93,o),
(493,142,cs),
(493,460,l),
(316,460,l),
(316,130,ls),
(316,38,o),
(361,-10,o),
(449,-10,cs)
);
}
);
width = 600;
}
);
unicode = 960;
},
{
color = 5;
glyphname = "alef-hb";
kernLeft = "alef-hb";
kernRight = "alef-hb";
layers = (
{
anchors = (
{
name = bottom;
pos = (245,0);
},
{
name = bottomleft;
pos = (15,0);
},
{
name = center;
pos = (285,324);
},
{
name = top;
pos = (367,800);
},
{
name = topleft;
pos = (7,604);
}
);
layerId = m01;
shapes = (
{
closed = 1;
nodes = (
(70,-29,o),
(61,-8,o),
(61,11,cs),
(61,40,o),
(68,76,o),
(68,105,cs),
(68,146,o),
(60,216,o),
(60,261,cs),
(60,402,o),
(118,418,o),
(118,441,cs),
(118,449,o),
(113,456,o),
(95,458,cs),
(43,463,o),
(32,510,o),
(32,560,cs),
(32,612,o),
(35,632,o),
(64,632,cs),
(74,632,o),
(81,630,o),
(93,630,cs),
(103,630,o),
(107,635,o),
(109,644,cs),
(124,710,o),
(170,888,o),
(252,888,cs),
(299,888,o),
(336,870,o),
(336,833,cs),
(336,758,o),
(158,706,o),
(158,644,cs),
(158,635,o),
(160,629,o),
(178,629,cs),
(209,629,o),
(230,636,o),
(285,636,cs),
(467,637,o),
(500,478,o),
(500,362,cs),
(500,245,o),
(430,21,o),
(326,21,cs),
(293,21,o),
(274,35,o),
(274,64,cs),
(274,128,o),
(442,188,o),
(442,309,cs),
(442,361,o),
(432,460,o),
(256,460,cs),
(183,460,o),
(137,433,o),
(137,364,cs),
(137,299,o),
(189,192,o),
(189,86,cs),
(189,28,o),
(122,-29,o),
(89,-29,cs)
);
}
);
width = 541;
},
{
anchors = (
{
name = bottom;
pos = (285,0);
},
{
name = bottomleft;
pos = (15,0);
},
{
name = center;
pos = (345,324);
},
{
name = top;
pos = (467,800);
},
{
name = topleft;
pos = (7,604);
}
);
layerId = m002;
shapes = (
{
closed = 1;
nodes = (
(80,-29,o),
(61,-12,o),
(61,11,cs),
(61,40,o),
(67,77,o),
(67,106,cs),
(67,147,o),
(61,249,o),
(61,291,cs),
(61,401,o),
(118,418,o),
(118,435,cs),
(118,441,o),
(113,448,o),
(95,450,cs),
(44,455,o),
(32,498,o),
(32,550,cs),
(32,616,o),
(36,637,o),
(61,637,cs),
(73,637,o),
(80,635,o),
(90,635,cs),
(99,635,o),
(107,640,o),
(109,649,cs),
(122,707,o),
(178,888,o),
(284,888,cs),
(386,888,o),
(413,850,o),
(413,808,cs),
(413,720,o),
(227,698,o),
(227,653,cs),
(227,646,o),
(231,643,o),
(239,643,cs),
(260,643,o),
(284,650,o),
(343,650,cs),
(535,650,o),
(584,516,o),
(584,360,cs),
(584,153,o),
(483,5,o),
(379,5,cs),
(338,5,o),
(297,21,o),
(297,64,cs),
(297,162,o),
(486,149,o),
(486,330,cs),
(486,385,o),
(455,444,o),
(309,444,cs),
(245,444,o),
(188,431,o),
(188,367,cs),
(188,318,o),
(248,202,o),
(248,86,cs),
(248,35,o),
(156,-29,o),
(109,-29,cs)
);
}
);
width = 625;
}
);
unicode = 1488;
},
{
color = 5;
glyphname = "bet-hb";
kernLeft = "bet-hb";
kernRight = "bet-hb";
layers = (
{
anchors = (
{
name = bottom;
pos = (233,0);
},
{
name = center;
pos = (129,322);
}
);
layerId = m01;
shapes = (
{
closed = 1;
nodes = (
(33,-27,o),
(24,-20,o),
(24,27,cs),
(24,108,o),
(40,141,o),
(71,141,cs),
(218,141,o),
(347,147,o),
(347,196,cs),
(347,252,o),
(247,287,o),
(247,322,cs),
(247,361,o),
(292,431,o),
(292,461,cs),
(292,476,o),
(285,480,o),
(267,480,cs),
(211,480,o),
(181,473,o),
(149,473,cs),
(85,473,o),
(52,488,o),
(52,556,cs),
(52,597,o),
(58,624,o),
(58,665,cs),
(58,687,o),
(75,699,o),
(98,699,cs),
(107,699,o),
(112,694,o),
(115,683,cs),
(121,662,o),
(141,637,o),
(180,637,cs),
(225,637,o),
(341,645,o),
(376,645,cs),
(392,645,o),
(400,634,o),
(400,619,cs),
(400,571,o),
(351,483,o),
(351,457,cs),
(351,410,o),
(426,338,o),
(426,254,cs),
(426,98,o),
(241,-27,o),
(65,-27,cs)
);
}
);
width = 465;
},
{
anchors = (
{
name = bottom;
pos = (303,0);
},
{
name = center;
pos = (148,307);
}
);
layerId = m002;
shapes = (
{
closed = 1;
nodes = (
(42,-27,o),
(24,-18,o),
(24,27,cs),
(24,131,o),
(46,175,o),
(85,175,cs),
(372,175,o),
(388,189,o),
(388,206,cs),
(388,243,o),
(278,284,o),
(278,322,cs),
(278,361,o),
(315,427,o),
(315,444,cs),
(315,451,o),
(312,457,o),
(296,457,cs),
(245,457,o),
(202,450,o),
(150,450,cs),
(92,450,o),
(50,466,o),
(50,534,cs),
(50,565,o),
(59,603,o),
(59,640,cs),
(59,676,o),
(77,706,o),
(139,706,cs),
(152,706,o),
(161,698,o),
(164,684,cs),
(169,663,o),
(182,641,o),
(221,641,cs),
(346,641,o),
(406,651,o),
(461,651,cs),
(477,651,o),
(485,643,o),
(485,626,cs),
(485,591,o),
(437,493,o),
(437,457,cs),
(437,412,o),
(510,353,o),
(510,259,cs),
(510,73,o),
(260,-27,o),
(84,-27,cs)
);
}
);
width = 549;
}
);
unicode = 1489;
},
{
color = 5;
glyphname = "gimel-hb";
kernLeft = "gimel-hb";
kernRight = "gimel-hb";
layers = (
{
anchors = (
{
name = bottom;
pos = (208,0);
},
{
name = center;
pos = (150,315);
}
);
layerId = m01;
shapes = (
{
closed = 1;
nodes = (
(58,-15,o),
(-6,8,o),
(-6,37,cs),
(-6,56,o),
(39,56,o),
(54,111,cs),
(65,150,o),
(91,195,o),
(156,195,cs),
(225,195,o),
(271,147,o),
(286,147,cs),
(294,147,o),
(299,149,o),
(299,162,cs),
(299,213,o),
(289,329,o),
(253,397,cs),
(203,490,o),
(111,493,o),
(111,533,cs),
(111,575,o),
(149,660,o),
(191,660,cs),
(253,660,o),
(317,602,o),
(333,552,cs),
(367,445,o),
(356,206,o),
(356,32,cs),
(356,1,o),
(342,-7,o),
(323,-7,cs),
(300,-7,o),
(297,3,o),
(297,16,cs),
(297,48,o),
(300,65,o),
(300,79,cs),
(300,100,o),
(287,108,o),
(261,108,cs),
(198,108,o),
(200,-15,o),
(98,-15,cs)
);
}
);
width = 426;
},
{
anchors = (
{
name = bottom;
pos = (254,0);
},
{
name = center;
pos = (170,357);
}
);
layerId = m002;
shapes = (
{
closed = 1;
nodes = (
(42,-15,o),
(-6,32,o),
(-6,60,cs),
(-6,82,o),
(35,94,o),
(54,131,cs),
(77,177,o),
(108,237,o),
(187,237,cs),
(267,237,o),
(316,202,o),
(328,202,cs),
(339,202,o),
(343,205,o),
(343,219,cs),
(343,269,o),
(330,337,o),
(301,397,cs),
(253,496,o),
(122,489,o),
(122,545,cs),
(122,599,o),
(177,704,o),
(239,704,cs),
(345,704,o),
(444,601,o),
(444,450,cs),
(444,337,o),
(440,206,o),
(440,32,cs),
(440,0,o),
(400,-7,o),
(372,-7,cs),
(346,-7,o),
(341,4,o),
(341,19,cs),
(341,51,o),
(345,65,o),
(345,85,cs),
(345,100,o),
(341,104,o),
(323,104,cs),
(254,104,o),
(254,-15,o),
(98,-15,cs)
);
}
);
width = 510;
}
);
unicode = 1490;
},
{
color = 5;
glyphname = "dalet-hb";
kernLeft = "dalet-hb";
kernRight = "dalet-hb";
layers = (
{
anchors = (
{
name = bottom;
pos = (288,0);
},
{
name = center;
pos = (182,348);
}
);
layerId = m01;
shapes = (
{
closed = 1;
nodes = (
(251,-29,o),
(199,37,o),
(199,71,cs),
(199,156,o),
(371,380,o),
(371,455,cs),
(371,470,o),
(363,476,o),
(347,476,cs),
(276,476,o),
(197,464,o),
(125,464,cs),
(68,464,o),
(30,480,o),
(30,545,cs),
(30,660,o),
(40,694,o),
(79,694,cs),
(88,694,o),
(92,690,o),
(95,680,cs),
(101,660,o),
(111,633,o),
(167,633,cs),
(319,633,o),
(384,652,o),
(434,652,cs),
(469,652,o),
(479,620,o),
(479,585,cs),
(479,515,o),
(426,515,o),
(426,450,cs),
(426,354,o),
(348,-29,o),
(290,-29,cs)
);
}
);
width = 501;
},
{
anchors = (
{
name = bottom;
pos = (288,0);
},
{
name = center;
pos = (182,318);
}
);
layerId = m002;
shapes = (
{
closed = 1;
nodes = (
(278,-29,o),
(210,38,o),
(210,82,cs),
(210,174,o),
(400,394,o),
(400,431,cs),
(400,444,o),
(392,450,o),
(376,450,cs),
(305,450,o),
(215,440,o),
(143,440,cs),
(54,440,o),
(30,480,o),
(30,545,cs),
(30,670,o),
(42,694,o),
(107,694,cs),
(123,694,o),
(129,689,o),
(137,673,cs),
(146,656,o),
(158,648,o),
(205,648,cs),
(367,648,o),
(451,660,o),
(518,660,cs),
(546,660,o),
(563,633,o),
(563,583,cs),
(563,507,o),
(511,497,o),
(511,460,cs),
(511,365,o),
(447,-29,o),
(352,-29,cs)
);
}
);
width = 585;
}
);
unicode = 1491;
},
{
color = 5;
glyphname = "he-hb";
kernLeft = "he-hb";
kernRight = "he-hb";
layers = (
{
anchors = (
{
name = bottom;
pos = (291,0);
},
{
name = center;
pos = (309,328);
}
);
layerId = m01;
shapes = (
{
closed = 1;
nodes = (
(133,-29,o),
(57,121,o),
(57,282,cs),
(57,347,o),
(64,355,o),
(81,355,cs),
(103,355,o),
(106,348,o),
(108,336,cs),
(124,259,o),
(159,199,o),
(218,181,cs),
(312,152,o),
(321,139,o),
(321,68,cs),
(321,-6,o),
(314,-29,o),
(274,-29,cs)
);
},
{
closed = 1;
nodes = (
(444,105,o),
(422,119,o),
(422,145,cs),
(422,191,o),
(483,222,o),
(483,324,cs),
(483,435,o),
(396,468,o),
(283,468,cs),
(245,468,o),
(184,462,o),
(144,462,cs),
(47,462,o),
(46,520,o),
(46,568,cs),
(46,633,o),
(58,692,o),
(81,692,cs),
(101,692,o),
(112,687,o),
(114,676,cs),
(122,636,o),
(172,628,o),
(208,628,cs),
(242,628,o),
(281,634,o),
(316,634,cs),
(483,634,o),
(538,495,o),
(538,333,cs),
(538,265,o),
(519,105,o),
(470,105,cs)
);
}
);
width = 580;
},
{
anchors = (
{
name = bottom;
pos = (331,0);
},
{
name = center;
pos = (349,318);
}
);
layerId = m002;
shapes = (
{
closed = 1;
nodes = (
(141,-29,o),
(57,131,o),
(57,272,cs),
(57,379,o),
(66,400,o),
(93,400,cs),
(133,400,o),
(144,393,o),
(148,375,cs),
(171,273,o),
(213,231,o),
(270,217,cs),
(361,195,o),
(388,172,o),
(388,98,cs),
(388,4,o),
(366,-29,o),
(326,-29,cs)
);
},
{
closed = 1;
nodes = (
(490,84,o),
(456,119,o),
(456,155,cs),
(456,201,o),
(523,227,o),
(523,329,cs),
(523,400,o),
(471,450,o),
(368,450,cs),
(320,450,o),
(242,442,o),
(166,442,cs),
(69,442,o),
(46,520,o),
(46,568,cs),
(46,660,o),
(66,710,o),
(106,710,cs),
(134,710,o),
(147,707,o),
(158,680,cs),
(169,653,o),
(206,650,o),
(232,650,cs),
(266,650,o),
(321,660,o),
(376,660,cs),
(543,660,o),
(622,532,o),
(622,361,cs),
(622,193,o),
(591,84,o),
(539,84,cs)
);
}
);
width = 664;
}
);
unicode = 1492;
},
{
color = 5;
glyphname = "vav-hb";
kernLeft = "vav-hb";
kernRight = "vav-hb";
layers = (
{
anchors = (
{
name = bottom;
pos = (184,0);
},
{
name = bottomleft;
pos = (100,0);
},
{
name = center;
pos = (77,270);
},
{
name = top;
pos = (115,610);
},
{
name = topleft;
pos = (106,630);
}
);
layerId = m01;
shapes = (
{
closed = 1;
nodes = (
(176,-17,o),
(171,-7,o),
(171,8,cs),
(171,67,o),
(178,110,o),
(178,203,cs),
(178,459,o),
(22,466,o),
(22,513,cs),
(22,561,o),
(59,656,o),
(106,656,cs),
(194,656,o),
(248,530,o),
(248,460,cs),
(248,286,o),
(227,21,o),
(223,4,cs),
(219,-12,o),
(202,-17,o),
(190,-17,cs)
);
}
);
width = 308;
},
{
anchors = (
{
name = bottom;
pos = (234,0);
},
{
name = bottomleft;
pos = (150,0);
},
{
name = center;
pos = (97,270);
},
{
name = top;
pos = (135,610);
},
{
name = topleft;
pos = (126,660);
}
);
layerId = m002;
shapes = (
{
closed = 1;
nodes = (
(215,-17,o),
(202,-9,o),
(202,10,cs),
(202,89,o),
(218,166,o),
(218,242,cs),
(218,438,o),
(22,465,o),
(22,525,cs),
(22,602,o),
(71,691,o),
(126,691,cs),
(268,691,o),
(332,592,o),
(332,450,cs),
(332,276,o),
(308,31,o),
(300,10,cs),
(293,-8,o),
(278,-17,o),
(225,-17,cs)
);
}
);
width = 392;
}
);
unicode = 1493;
},
{
color = 5;
glyphname = "zayin-hb";
kernLeft = "zayin-hb";
kernRight = "zayin-hb";
layers = (
{
anchors = (
{
name = bottom;
pos = (117,0);
},
{
name = bottomleft;
pos = (7,0);
},
{
name = center;
pos = (0,254);
},
{
name = top;
pos = (194,690);
},
{
name = topleft;
pos = (67,690);
}
);
layerId = m01;
shapes = (
{
closed = 1;
nodes = (
(91,-28,o),
(81,-24,o),
(81,-12,cs),
(81,15,o),
(92,116,o),
(92,165,cs),
(92,411,o),
(45,483,o),
(45,542,cs),
(45,587,o),
(138,652,o),
(198,652,cs),
(217,652,o),
(242,561,o),
(242,530,cs),
(242,457,o),
(148,425,o),
(148,370,cs),
(148,344,o),
(175,300,o),
(175,211,cs),
(175,167,o),
(153,-28,o),
(106,-28,cs)
);
}
);
width = 270;
},
{
anchors = (
{
name = bottom;
pos = (197,0);
},
{
name = bottomleft;
pos = (87,0);
},
{
name = center;
pos = (-10,254);
},
{
name = top;
pos = (274,690);
},
{
name = topleft;
pos = (147,690);
}
);
layerId = m002;
shapes = (
{
closed = 1;
nodes = (
(98,-27,o),
(81,-20,o),
(81,0,cs),
(81,27,o),
(92,116,o),
(92,165,cs),
(92,411,o),
(45,505,o),
(45,560,cs),
(45,608,o),
(150,694,o),
(242,694,cs),
(290,694,o),
(326,590,o),
(326,551,cs),
(326,462,o),
(206,429,o),
(206,387,cs),
(206,361,o),
(249,313,o),
(249,214,cs),
(249,140,o),
(168,-27,o),
(118,-27,cs)
);
}
);
width = 354;
}
);
unicode = 1494;
},
{
color = 5;
glyphname = "het-hb";
kernLeft = "het-hb";
kernRight = "het-hb";
layers = (
{
anchors = (
{
name = bottom;
pos = (257,0);
}
);
layerId = m01;
shapes = (
{
closed = 1;
nodes = (
(80,-29,o),
(60,-13,o),
(60.2,7.7,cs),
(61,51,o),
(71,339,o),
(80.5,380.8,cs),
(86.8,408.8,o),
(113,439,o),
(113,460,cs),
(113,479,o),
(53,482,o),
(53,528,cs),
(53,605,o),
(68,673,o),
(75,682,cs),
(80,689,o),
(88,697,o),
(108,697,cs),
(128,697,o),
(136,637,o),
(186,637,cs),
(232,637,o),
(283,644,o),
(331,644,cs),
(456,644,o),
(508,522,o),
(508,366,cs),
(508,211,o),
(450,22,o),
(314,22,cs),
(294,22,o),
(279,38,o),
(279,62,cs),
(279,95,o),
(325,114,o),
(351,129,cs),
(406,162,o),
(450,243,o),
(450.1,329.7,cs),
(450,432,o),
(400,466,o),
(336,466,cs),
(167,466,o),
(148,433,o),
(147.7,380.1,cs),
(148,354,o),
(200,122,o),
(199.5,83.3,cs),
(200,35,o),
(132,-29,o),
(94,-29,cs)
);
}
);
width = 541;
},
{
anchors = (
{
name = bottom;
pos = (257,0);
}
);
layerId = m002;
shapes = (
{
closed = 1;
nodes = (
(100,-32,o),
(58,-6,o),
(58,15,cs),
(59,58,o),
(71,339,o),
(80.5,380.8,cs),
(86.8,408.8,o),
(102,438,o),
(102,447,cs),
(102,457,o),
(55,468,o),
(55,520,cs),
(55,640,o),
(67,665,o),
(77,680,cs),
(85,692,o),
(110,699,o),
(131,699,cs),
(159,699,o),
(161,660,o),
(196,660,cs),
(268,660,o),
(301,663,o),
(351,663,cs),
(529,663,o),
(592,572,o),
(592,365,cs),
(592,140,o),
(492,0,o),
(356,0,cs),
(330,0,o),
(298,38,o),
(298,62,cs),
(298,95,o),
(321,116,o),
(363,134,cs),
(420,158,o),
(491,213,o),
(491,330,cs),
(491,432,o),
(422,451,o),
(364,451,cs),
(222,451,o),
(198,440,o),
(198,380,cs),
(198,354,o),
(254,122,o),
(254,83,cs),
(254,35,o),
(152,-32,o),
(114,-32,cs)
);
}
);
width = 625;
}
);
unicode = 1495;
},
{
color = 5;
glyphname = "tet-hb";
kernLeft = "tet-hb";
kernRight = "tet-hb";
layers = (
{
anchors = (
{
name = bottom;
pos = (384,0);
},
{
name = center;
pos = (364,327);
}
);
layerId = m01;
shapes = (
{
closed = 1;
nodes = (
(142,-103,o),
(127,-99,o),
(127,-90,cs),
(127,-71,o),
(161,32,o),
(161,189,cs),
(160,496,o),
(27,501,o),
(27,541,cs),
(27,589,o),
(78,673,o),
(123,673,cs),
(151,673,o),
(206,540,o),
(214,364,cs),
(222,180,o),
(227,163,o),
(232,157,cs),
(240,148,o),
(278,141,o),
(334,141,cs),
(469,142,o),
(527,239,o),
(527,324,cs),
(527,437,o),
(439,497,o),
(380,497,cs),
(332,497,o),
(297,466,o),
(280,466,cs),
(269,466,o),
(261,492,o),
(261,505,cs),
(261,519,o),
(382,676,o),
(404,676,cs),
(520,676,o),
(584,480,o),
(584,341,cs),
(584,159,o),
(500,-24,o),
(309,-24,cs),
(246,-24,o),
(218,-7,o),
(206,-7,cs),
(196,-7,o),
(188,-103,o),
(171,-103,cs)
);
}
);
width = 619;
},
{
anchors = (
{
name = bottom;
pos = (384,-60);
},
{
name = center;
pos = (444,337);
}
);
layerId = m002;
shapes = (
{
closed = 1;
nodes = (
(145,-103,o),
(123,-98,o),
(123,-77,cs),
(123,-28,o),
(182,24,o),
(182,189,cs),
(182,443,o),
(27,484,o),
(27,534,cs),
(27,582,o),
(107,708,o),
(162,708,cs),
(213,708,o),
(283,626,o),
(291,450,cs),
(301,224,o),
(306,203,o),
(311,197,cs),
(319,188,o),
(357,181,o),
(413,181,cs),
(548,182,o),
(614,263,o),
(614,348,cs),
(614,461,o),
(533,500,o),
(474,500,cs),
(429,500,o),
(409,485,o),
(379,485,cs),
(363,485,o),
(337,518,o),
(337,541,cs),
(337,575,o),
(453,713,o),
(497,713,cs),
(624,713,o),
(710,540,o),
(710,371,cs),
(710,89,o),
(579,-24,o),
(378,-24,cs),
(322,-24,o),
(303,-10,o),
(274,-10,cs),
(245,-10,o),
(245,-103,o),
(196,-103,cs)
);
}
);
width = 745;
}
);
unicode = 1496;
},
{
color = 5;
glyphname = "yod-hb";
kernLeft = "yod-hb";
kernRight = "yod-hb";
layers = (
{
anchors = (
{
name = bottom;
pos = (95,0);
},
{
name = center;
pos = (45,368);
}
);
layerId = m01;
shapes = (
{
closed = 1;
nodes = (
(118,241,o),
(101,258,o),
(101,269,cs),
(101,287,o),
(174,339,o),
(174,401,cs),
(174,426,o),
(163,434,o),
(135,445,cs),
(66,472,o),
(20,488,o),
(20,557,cs),
(20,603,o),
(44,666,o),
(57,676,cs),
(63,681,o),
(76,685,o),
(85,685,cs),
(91,685,o),
(98,681,o),
(98,671,cs),
(98,641,o),
(120,622,o),
(182,599,cs),
(235,579,o),
(258,545,o),
(258,502,cs),
(258,362,o),
(154,241,o),
(133,241,cs)
);
}
);
width = 270;
},
{
anchors = (
{
name = bottom;
pos = (95,0);
},
{
name = center;
pos = (1,339);
}
);
layerId = m002;
shapes = (
{
closed = 1;
nodes = (
(136,214,o),
(106,237,o),
(106,258,cs),
(106,279,o),
(202,339,o),
(202,391,cs),
(202,416,o),
(183,425,o),
(124,436,cs),
(53,449,o),
(20,478,o),
(20,547,cs),
(20,592,o),
(41,648,o),
(49,660,cs),
(55,669,o),
(75,688,o),
(123,688,cs),
(137,688,o),
(146,680,o),
(146,665,cs),
(146,634,o),
(164,621,o),
(241,601,cs),
(305,584,o),
(342,549,o),
(342,488,cs),
(342,323,o),
(190,214,o),
(152,214,cs)
);
}
);
width = 354;
}
);
unicode = 1497;
},
{
color = 5;
glyphname = "kafFinal-hb";
kernLeft = "kafFinal-hb";
kernRight = "kafFinal-hb";
layers = (
{
anchors = (
{
name = bottom;
pos = (232,-317);
},
{
name = center;
pos = (155,317);
}
);
layerId = m01;
shapes = (
{
closed = 1;
nodes = (
(289,-342,o),
(277,-327,o),
(277,-298,cs),
(277,-247,o),
(272,-57,o),
(272,124,cs),
(272,381,o),
(329,438,o),
(329,457,cs),
(329,465,o),
(326,470,o),
(318,470,cs),
(303,470,o),
(172,454,o),
(113,454,cs),
(54,454,o),
(28,495,o),
(28,558,cs),
(28,594,o),
(38,667,o),
(42,677,cs),
(46,686,o),
(66,694,o),
(78,694,cs),
(87,694,o),
(93,691,o),
(96,680,cs),
(100,665,o),
(117,628,o),
(195,628,cs),
(220,628,o),
(258,634,o),
(289,634,cs),
(377,634,o),
(406,572,o),
(406,509,cs),
(406,440,o),
(370,373,o),
(370,295,cs),
(370,219,o),
(424,-104,o),
(424,-200,cs),
(424,-260,o),
(367,-342,o),
(309,-342,cs)
);
}
);
width = 465;
},
{
anchors = (
{
name = bottom;
pos = (262,-317);
},
{
name = center;
pos = (162,284);
}
);
layerId = m002;
shapes = (
{
closed = 1;
nodes = (
(346,-342,o),
(317,-327,o),
(317,-293,cs),
(317,-97,o),
(297,3,o),
(297,124,cs),
(297,271,o),
(359,402,o),
(359,431,cs),
(359,443,o),
(354,450,o),
(341,450,cs),
(213,450,o),
(149,430,o),
(110,430,cs),
(51,430,o),
(28,495,o),
(28,558,cs),
(28,594,o),
(31,658,o),
(44,674,cs),
(58,691,o),
(91,704,o),
(123,704,cs),
(132,704,o),
(140,697,o),
(143,686,cs),
(147,671,o),
(154,648,o),
(235,648,cs),
(260,648,o),
(338,654,o),
(369,654,cs),
(457,654,o),
(489,582,o),
(489,519,cs),
(489,450,o),
(453,383,o),
(453,305,cs),
(453,229,o),
(508,-84,o),
(508,-180,cs),
(508,-240,o),
(447,-342,o),
(369,-342,cs)
);
}
);
width = 549;
}
);
unicode = 1498;
},
{
color = 5;
glyphname = "kaf-hb";
kernLeft = "kaf-hb";
kernRight = "kaf-hb";
layers = (
{
anchors = (
{
name = bottom;
pos = (206,0);
},
{
name = center;
pos = (192,329);
}
);
layerId = m01;
shapes = (
{
closed = 1;
nodes = (
(30,-17,o),
(23,-4,o),
(23,54,cs),
(23,123,o),
(26,160,o),
(99,160,cs),
(206,160,o),
(358,195,o),
(358,346,cs),
(358,431,o),
(315,477,o),
(230,477,cs),
(202,477,o),
(166,471,o),
(137,471,cs),
(72,471,o),
(18,477,o),
(15,571,cs),
(14,620,o),
(26,681,o),
(33,691,cs),
(39,700,o),
(57,708,o),
(70,708,cs),
(79,708,o),
(85,704,o),
(89,686,cs),
(98,651,o),
(132,642,o),
(165,642,cs),
(194,642,o),
(219,645,o),
(239,645,cs),
(362,645,o),
(415,525,o),
(415,368,cs),
(415,193,o),
(325,-17,o),
(64,-17,cs)
);
}
);
width = 465;
},
{
anchors = (
{
name = bottom;
pos = (256,0);
},
{
name = center;
pos = (242,329);
}
);
layerId = m002;
shapes = (
{
closed = 1;
nodes = (
(42,-17,o),
(23,6,o),
(23,74,cs),
(23,145,o),
(39,191,o),
(105,191,cs),
(190,191,o),
(398,195,o),
(398,346,cs),
(398,431,o),
(345,450,o),
(230,450,cs),
(202,450,o),
(165,444,o),
(126,444,cs),
(61,444,o),
(15,477,o),
(15,571,cs),
(15,620,o),
(32,676,o),
(45,690,cs),
(54,700,o),
(72,708,o),
(108,708,cs),
(116,708,o),
(126,701,o),
(128,688,cs),
(134,650,o),
(167,643,o),
(205,643,cs),
(245,643,o),
(280,648,o),
(309,648,cs),
(432,648,o),
(499,525,o),
(499,368,cs),
(499,163,o),
(387,-17,o),
(80,-17,cs)
);
}
);
width = 549;
}
);
unicode = 1499;
},
{
color = 5;
glyphname = "lamed-hb";
kernLeft = "lamed-hb";
kernRight = "lamed-hb";
layers = (
{
anchors = (
{
name = bottom;
pos = (125,0);
},
{
name = center;
pos = (138,306);
}
);
layerId = m01;
shapes = (
{
closed = 1;
nodes = (
(29,-40,o),
(22,-23,o),
(22,17,cs),
(22,108,o),
(35,145,o),
(75,145,cs),
(153,145,o),
(278,211,o),
(278,315,cs),
(277,392,o),
(219,425,o),
(147,458,cs),
(116,471,o),
(70,482,o),
(70,531,cs),
(70,544,o),
(82,720,o),
(82,774,cs),
(82,849,o),
(0,853,o),
(0,905,cs),
(0,934,o),
(12,1000,o),
(43,1000,cs),
(74,1000,o),
(176,952,o),
(176,900,cs),
(176,831,o),
(145,748,o),
(145,663,cs),
(145,656,o),
(149,653,o),
(162,648,cs),
(300,594,o),
(337,480,o),
(337,349,cs),
(336,145,o),
(200,-39,o),
(56,-40,cs)
);
}
);
width = 387;
},
{
anchors = (
{
name = bottom;
pos = (195,0);
},
{
name = center;
pos = (166,318);
}
);
layerId = m002;
shapes = (
{
closed = 1;
nodes = (
(33,-40,o),
(22,-13,o),
(22,27,cs),
(22,103,o),
(35,185,o),
(83,185,cs),
(159,185,o),
(318,221,o),
(318,315,cs),
(318,392,o),
(219,415,o),
(147,448,cs),
(116,461,o),
(71,474,o),
(71,521,cs),
(71,594,o),
(83,700,o),
(83,754,cs),
(83,830,o),
(1,830,o),
(1,895,cs),
(1,951,o),
(16,1000,o),
(58,1000,cs),
(89,1000,o),
(243,952,o),
(243,892,cs),
(243,809,o),
(208,692,o),
(208,669,cs),
(208,652,o),
(216,647,o),
(229,643,cs),
(361,601,o),
(421,500,o),
(421,349,cs),
(421,145,o),
(294,-40,o),
(60,-40,cs)
);
}
);
width = 471;
}
);
unicode = 1500;
},
{
color = 5;
glyphname = "memFinal-hb";
kernLeft = "memFinal-hb";
kernRight = "memFinal-hb";
layers = (
{
anchors = (
{
name = bottom;
pos = (306,0);
}
);
layerId = m01;
shapes = (
{
closed = 1;
nodes = (
(125,416,o),
(125,318,cs),
(125,223,o),
(164,142,o),
(321,142,cs),
(405,142,o),
(499,212,o),
(499.1,294,cs),
(499,412,o),
(446,460,o),
(333,460,cs),
(163,460,o)
);
},
{
closed = 1;
nodes = (
(130,-31,o),
(42,102,o),
(42,260.4,cs),
(42,404,o),
(109,442,o),
(109,461,cs),
(109,479,o),
(48,480,o),
(48,559,cs),
(48,616,o),
(59,667,o),
(70,684,cs),
(75,692,o),
(89,700,o),
(107,700,cs),
(112,700,o),
(121,698,o),
(125,681,cs),
(134,640,o),
(152,635,o),
(235,635,cs),
(278,635,o),
(308,639,o),
(366,639,cs),
(474,639,o),
(550,510,o),
(550,341,cs),
(550,189,o),
(497,-31,o),
(279,-31,cs)
);
}
);
width = 580;
},
{
anchors = (
{
name = bottom;
pos = (306,0);
}
);
layerId = m002;
shapes = (
{
closed = 1;
nodes = (
(175,436,o),
(175,328,cs),
(175,228,o),
(244,162,o),
(351,162,cs),
(455,162,o),
(539,242,o),
(539,324,cs),
(539,439,o),
(466,460,o),
(353,460,cs),
(223,460,o)
);
},
{
closed = 1;
nodes = (
(140,-31,o),
(41,102,o),
(41,260,cs),
(41,394,o),
(104,431,o),
(104,450,cs),
(104,468,o),
(50,480,o),
(50,539,cs),
(50,606,o),
(58,665,o),
(73,680,cs),
(80,687,o),
(112,705,o),
(137,705,cs),
(148,705,o),
(153,699,o),
(163,683,cs),
(178,660,o),
(212,656,o),
(275,656,cs),
(338,656,o),
(368,664,o),
(426,664,cs),
(534,664,o),
(634,540,o),
(634,371,cs),
(634,119,o),
(537,-31,o),
(319,-31,cs)
);
}
);
width = 664;
}
);
unicode = 1501;
},
{
color = 5;
glyphname = "mem-hb";
kernLeft = "mem-hb";
kernRight = "mem-hb";
layers = (
{
anchors = (
{
name = bottom;
pos = (309,0);
},
{
name = center;
pos = (368,295);
}
);
layerId = m01;
shapes = (
{
closed = 1;
nodes = (
(43,-32,o),
(24,-11,o),
(24,20,cs),
(24,42,o),
(32,57,o),
(50,72,cs),
(153,159,o),
(164,218,o),
(164,297,cs),
(164,471,o),
(45,487,o),
(45,533,cs),
(45,563,o),
(89,660,o),
(129,660,cs),
(200,660,o),
(218,514,o),
(244,514,cs),
(294,514,o),
(346,650,o),
(419,650,cs),
(499,650,o),
(571,562,o),
(571,359,cs),
(571,121,o),
(458,-19,o),
(343,-19,cs),
(315,-19,o),
(295,0,o),
(295,38,cs),
(295,65,o),
(316,89,o),
(344,97,cs),
(458,129,o),
(509,184,o),
(509,295,cs),
(509,395,o),
(440,472,o),
(348,472,cs),
(274,472,o),
(241,459,o),
(241,425,cs),
(241,299,o),
(227,-32,o),
(90,-32,cs)
);
}
);
width = 619;
},
{
anchors = (
{
name = bottom;
pos = (309,0);
},
{
name = center;
pos = (449,305);
}
);
layerId = m002;
shapes = (
{
closed = 1;
nodes = (
(65,-31,o),
(24,-15,o),
(24,38,cs),
(24,66,o),
(35,96,o),
(75,122,cs),
(169,182,o),
(198,228,o),
(198,297,cs),
(198,450,o),
(45,460,o),
(45,533,cs),
(45,573,o),
(86,670,o),
(170,670,cs),
(267,670,o),
(288,529,o),
(315,529,cs),
(370,529,o),
(399,675,o),
(473,675,cs),
(649,675,o),
(697,502,o),
(697,359,cs),
(697,146,o),
(598,-19,o),
(434,-19,cs),
(359,-19,o),
(338,17,o),
(338,52,cs),
(338,92,o),
(357,118,o),
(395,128,cs),
(468,147,o),
(595,182,o),
(595,295,cs),
(595,395,o),
(526,450,o),
(434,450,cs),
(340,450,o),
(316,433,o),
(316,400,cs),
(316,215,o),
(250,-31,o),
(105,-31,cs)
);
}
);
width = 745;
}
);
unicode = 1502;
},
{
color = 5;
glyphname = "nunFinal-hb";
kernLeft = "nunFinal-hb";
kernRight = "nunFinal-hb";
layers = (
{
anchors = (
{
name = bottom;
pos = (166,-310);
}
);
layerId = m01;
shapes = (
{
closed = 1;
nodes = (
(120,-332,o),
(108,-309,o),
(108,-286,cs),
(108,-128,o),
(113,31,o),
(113,189,cs),
(113,343,o),
(183,402,o),
(183,427,cs),
(183,440,o),
(175,444,o),
(112,471,cs),
(53,496,o),
(40,526,o),
(40,572,cs),
(40,625,o),
(48,674,o),
(61,694,cs),
(67,703,o),
(87,712,o),
(103,712,cs),
(110,712,o),
(116,706,o),
(120,697,cs),
(130,679,o),
(142,647,o),
(195,625,cs),
(242,605,o),
(249,568,o),
(248.5,532.7,cs),
(249,450,o),
(203,320,o),
(203.7,233.8,cs),
(204,180,o),
(255,-69,o),
(254.8,-192.5,cs),
(255,-246,o),
(198,-332,o),
(142,-332,cs)
);
}
);
width = 308;
},
{
anchors = (
{
name = bottom;
pos = (166,-310);
}
);
layerId = m002;
shapes = (
{
closed = 1;
nodes = (
(131,-332,o),
(107,-326,o),
(107,-286,cs),
(107,-128,o),
(114,31,o),
(114,189,cs),
(114,343,o),
(170,391,o),
(170,416,cs),
(170,429,o),
(164,437,o),
(113,457,cs),
(54,480,o),
(40,526,o),
(40,572,cs),
(40,625,o),
(51,670,o),
(71,692,cs),
(80,702,o),
(103,712,o),
(127,712,cs),
(149,712,o),
(157,698,o),
(163,684,cs),
(171,666,o),
(192,649,o),
(231,629,cs),
(277,605,o),
(290,588,o),
(290,533,cs),
(290,450,o),
(245,320,o),
(245,234,cs),
(245,180,o),
(297,-69,o),
(297,-193,cs),
(297,-266,o),
(219,-332,o),
(163,-332,cs)
);
}
);
width = 350;
}
);
unicode = 1503;
},
{
color = 5;
glyphname = "nun-hb";
kernLeft = "nun-hb";
kernRight = "nun-hb";
layers = (
{
anchors = (
{
name = bottom;
pos = (170,0);
},
{
name = center;
pos = (104,317);
}
);
layerId = m01;
shapes = (
{
closed = 1;
nodes = (
(25,-38,o),
(17,-23,o),
(17,0,cs),
(17,99,o),
(41,143,o),
(74,152,cs),
(169,178,o),
(244,213,o),
(244,330,cs),
(244,419,o),
(186,446,o),
(88,481,cs),
(63,490,o),
(52,501,o),
(52,520,cs),
(52,581,o),
(96,652,o),
(145,652,cs),
(261,652,o),
(298,489,o),
(298,363,cs),
(298,174,o),
(202,-38,o),
(51,-38,cs)
);
}
);
width = 347;
},
{
anchors = (
{
name = bottom;
pos = (212,0);
},
{
name = center;
pos = (156,330);
}
);
layerId = m002;
shapes = (
{
closed = 1;
nodes = (
(25,-38,o),
(17,-24,o),
(17,0,cs),
(17,109,o),
(35,178,o),
(74,187,cs),
(243,226,o),
(284,253,o),
(284,330,cs),
(284,414,o),
(197,432,o),
(100,461,cs),
(67,471,o),
(52,483,o),
(52,520,cs),
(52,581,o),
(100,652,o),
(157,652,cs),
(295,652,o),
(382,543,o),
(382,363,cs),
(382,163,o),
(280,-38,o),
(44,-38,cs)
);
}
);
width = 431;
}
);
unicode = 1504;
},
{
color = 5;
glyphname = "samekh-hb";
kernLeft = "samekh-hb";
kernRight = "samekh-hb";
layers = (
{
anchors = (
{
name = bottom;
pos = (326,0);
},
{
name = center;
pos = (303,303);
}
);
layerId = m01;
shapes = (
{
closed = 1;
nodes = (
(433,141,o),
(481,248,o),
(480.9,342.3,cs),
(481,446,o),
(429,462,o),
(200,462,cs),
(160,462,o),
(122,389,o),
(122,338,cs),
(122,247,o),
(162,140,o),
(327.6,140.7,cs)
);
},
{
closed = 1;
nodes = (
(43,-132,o),
(31,-106,o),
(31,-77,cs),
(31,-35,o),
(61,-7,o),
(61,297,cs),
(61,421,o),
(121,458,o),
(121,469,cs),
(121,482,o),
(60,488,o),
(60,530,cs),
(60,586,o),
(73,667,o),
(77,678,cs),
(82,692,o),
(102,699,o),
(116,699,cs),
(134,699,o),
(123,638,o),
(181,638,cs),
(236,638,o),
(290,645,o),
(340,645,cs),
(517,645,o),
(539,444,o),
(539,320.6,cs),
(539,151,o),
(455,-30,o),
(297,-32,cs),
(230,-32,o),
(163,10,o),
(140,64,cs),
(133,80,o),
(120,99,o),
(113,99,cs),
(104,99,o),
(102,87,o),
(102,77,cs),
(102,40,o),
(136,-39,o),
(136,-74,cs),
(136,-105,o),
(118,-132,o),
(76,-132,cs)
);
}
);
width = 580;
},
{
anchors = (
{
name = bottom;
pos = (369,0);
},
{
name = center;
pos = (346,303);
}
);
layerId = m002;
shapes = (
{
closed = 1;
nodes = (
(476,162,o),
(522,238,o),
(522,342,cs),
(522,426,o),
(492,444,o),
(253,444,cs),
(223,444,o),
(170,369,o),
(170,318,cs),
(170,227,o),
(245,162,o),
(361,162,cs)
);
},
{
closed = 1;
nodes = (
(50,-129,o),
(31,-96,o),
(31,-55,cs),
(31,-13,o),
(66,33,o),
(66,337,cs),
(66,401,o),
(112,441,o),
(112,452,cs),
(112,465,o),
(60,468,o),
(60,530,cs),
(60,586,o),
(78,668,o),
(88,682,cs),
(97,694,o),
(121,709,o),
(142,709,cs),
(163,709,o),
(163,660,o),
(210,660,cs),
(286,660,o),
(375,670,o),
(404,670,cs),
(592,670,o),
(623,474,o),
(623,321,cs),
(623,81,o),
(498,-32,o),
(340,-32,cs),
(273,-32,o),
(200,-3,o),
(164,47,cs),
(161,51,o),
(159,54,o),
(157,54,cs),
(155,54,o),
(154,52,o),
(154,50,cs),
(154,24,o),
(178,-20,o),
(178,-55,cs),
(178,-96,o),
(148,-129,o),
(96,-129,cs)
);
}
);
width = 664;
}
);
unicode = 1505;
},
{
color = 5;
glyphname = "ayin-hb";
kernLeft = "ayin-hb";
kernRight = "ayin-hb";
layers = (
{
anchors = (
{
name = bottom;
pos = (276,0);
}
);
layerId = m01;
shapes = (
{
closed = 1;
nodes = (
(36,-33,o),
(18,-27,o),
(18,24,cs),
(18,48,o),
(36,141,o),
(56,141,cs),
(74,141,o),
(91,132,o),
(160,132,cs),
(172,132,o),
(178,139,o),
(178,151,cs),
(178,250,o),
(166,389,o),
(147,436,cs),
(137,461,o),
(76,483,o),
(76,528,cs),
(76,555,o),
(103,659,o),
(131,659,cs),
(172,659,o),
(242,604,o),
(242,566,cs),
(242,531,o),
(212,388,o),
(231,167,cs),
(233,146,o),
(239,140,o),
(261,140,cs),
(382,140,o),
(482,216,o),
(482,338,cs),
(482,417,o),
(427,452,o),
(379,461,cs),
(323,471,o),
(299,485,o),
(299,510,cs),
(299,548,o),
(347,658,o),
(386,658,cs),
(457,658,o),
(537,525,o),
(537,382,cs),
(537,121,o),
(384,-33,o),
(81,-33,cs)
);
}
);
width = 580;
},
{
anchors = (
{
name = bottom;
pos = (339,0);
}
);
layerId = m002;
shapes = (
{
closed = 1;
nodes = (
(39,-33,o),
(18,-7,o),
(18,24,cs),
(18,138,o),
(27,183,o),
(63,183,cs),
(91,183,o),
(123,172,o),
(202,172,cs),
(214,172,o),
(220,179,o),
(220,191,cs),
(220,290,o),
(190,407,o),
(177,440,cs),
(169,460,o),
(76,487,o),
(76,539,cs),
(76,616,o),
(119,695,o),
(178,695,cs),
(259,695,o),
(322,626,o),
(322,588,cs),
(322,553,o),
(295,438,o),
(314,217,cs),
(316,196,o),
(323,190,o),
(343,190,cs),
(424,190,o),
(565,233,o),
(565,355,cs),
(565,440,o),
(484,457,o),
(436,464,cs),
(371,473,o),
(351,492,o),
(351,517,cs),
(351,555,o),
(405,694,o),
(473,694,cs),
(544,694,o),
(663,597,o),
(663,404,cs),
(663,53,o),
(407,-33,o),
(74,-33,cs)
);
}
);
width = 706;
}
);
unicode = 1506;
},
{
color = 5;
glyphname = "peFinal-hb";
kernLeft = "peFinal-hb";
kernRight = "peFinal-hb";
layers = (
{
anchors = (
{
name = bottom;
pos = (146,0);
},
{
name = center;
pos = (285,338);
}
);
layerId = m01;
shapes = (
{
closed = 1;
nodes = (
(348,-345,o),
(332,-328,o),
(332,-308,cs),
(333,-280,o),
(340,71,o),
(340,88,cs),
(340,281,o),
(401,344,o),
(401,372,cs),
(401,421,o),
(260,493,o),
(176,493,cs),
(135,493,o),
(104,436,o),
(104,396,cs),
(104,321,o),
(158,287,o),
(226,240,cs),
(243,228,o),
(254,196,o),
(254,147,cs),
(254,124,o),
(224,112,o),
(179,112,cs),
(75,112,o),
(38,212,o),
(38,319,cs),
(38,465,o),
(129,640,o),
(244,640,cs),
(334,640,o),
(492,566,o),
(492,501,cs),
(492,439,o),
(432,310,o),
(432,196,cs),
(432,81,o),
(476,-125,o),
(476,-223,cs),
(476,-278,o),
(393,-344,o),
(370,-345,cs)
);
}
);
width = 541;
},
{
anchors = (
{
name = bottom;
pos = (189,0);
},
{
name = center;
pos = (308,369);
}
);
layerId = m002;
shapes = (
{
closed = 1;
nodes = (
(401,-345,o),
(373,-319,o),
(373,-279,cs),
(373,-231,o),
(383,-69,o),
(383,88,cs),
(383,311,o),
(444,345,o),
(444,383,cs),
(444,432,o),
(303,486,o),
(219,486,cs),
(178,486,o),
(150,457,o),
(150,417,cs),
(150,362,o),
(200,315,o),
(280,276,cs),
(309,262,o),
(324,227,o),
(324,169,cs),
(324,123,o),
(257,112,o),
(222,112,cs),
(70,112,o),
(38,224,o),
(38,331,cs),
(38,547,o),
(172,676,o),
(287,676,cs),
(437,676,o),
(576,586,o),
(576,521,cs),
(576,459,o),
(517,310,o),
(517,196,cs),
(517,121,o),
(561,-95,o),
(561,-213,cs),
(561,-268,o),
(469,-345,o),
(436,-345,cs)
);
}
);
width = 625;
}
);
unicode = 1507;
},
{
color = 5;
glyphname = "pe-hb";
kernLeft = "pe-hb";
kernRight = "pe-hb";
layers = (
{
anchors = (
{
name = bottom;
pos = (286,0);
},
{
name = center;
pos = (338,316);
}
);
layerId = m01;
shapes = (
{
closed = 1;
nodes = (
(85,-37,o),
(59,-29,o),
(59,0,cs),
(59,106,o),
(79,130,o),
(111,130,cs),
(305,130,o),
(475,149,o),
(475,351,cs),
(475,450,o),
(389,461,o),
(258,461,cs),
(210,461,o),
(167,440,o),
(167,391,cs),
(167,365,o),
(216,345,o),
(216,313,cs),
(216,289,o),
(175,221,o),
(130,221,cs),
(102,221,o),
(59,269,o),
(59,322,cs),
(59,381,o),
(131,428,o),
(131,447,cs),
(131,470,o),
(64,470,o),
(64,559,cs),
(64,586,o),
(79,670,o),
(84,676,cs),
(94,688,o),
(114,694,o),
(123,694,cs),
(131,694,o),
(134,690,o),
(136,678,cs),
(141,642,o),
(180,631,o),
(215,631,cs),
(273,631,o),
(356,634,o),
(413,615,cs),
(513,584,o),
(531,428,o),
(531,358,cs),
(531,126,o),
(390,-37,o),
(116,-37,cs)
);
}
);
width = 580;
},
{
anchors = (
{
name = bottom;
pos = (328,0);
},
{
name = center;
pos = (384,313);
}
);
layerId = m002;
shapes = (
{
closed = 1;
nodes = (
(96,-37,o),
(67,-19,o),
(67,10,cs),
(67,148,o),
(87,165,o),
(136,165,cs),
(372,165,o),
(517,185,o),
(517,351,cs),
(517,411,o),
(449,450,o),
(297,450,cs),
(262,450,o),
(219,427,o),
(219,391,cs),
(219,374,o),
(273,354,o),
(273,313,cs),
(273,279,o),
(214,201,o),
(149,201,cs),
(111,201,o),
(59,264,o),
(59,322,cs),
(59,408,o),
(117,408,o),
(117,438,cs),
(117,460,o),
(64,460,o),
(64,544,cs),
(64,600,o),
(80,661,o),
(92,678,cs),
(101,691,o),
(147,704,o),
(156,704,cs),
(164,704,o),
(173,697,o),
(178,678,cs),
(188,642,o),
(203,638,o),
(238,638,cs),
(466,638,o),
(498,623,o),
(535,592,cs),
(604,533,o),
(615,478,o),
(615,358,cs),
(615,126,o),
(481,-37,o),
(147,-37,cs)
);
}
);
width = 664;
}
);
unicode = 1508;
},
{
color = 5;
glyphname = "tsadiFinal-hb";
kernLeft = "tsadiFinal-hb";
kernRight = "tsadiFinal-hb";
layers = (
{
anchors = (
{
name = bottom;
pos = (196,-300);
}
);
layerId = m01;
shapes = (
{
closed = 1;
nodes = (
(142,-341,o),
(125,-259,o),
(125,-168,cs),
(125,-58,o),
(198,391,o),
(198,444,cs),
(198,455,o),
(190,466,o),
(177,466,cs),
(110,466,o),
(20,489,o),
(20,596,cs),
(20,631,o),
(37,692,o),
(56,692,cs),
(72,692,o),
(96,630,o),
(216,630,cs),
(334,630,o),
(356,694,o),
(374,694,cs),
(386,694,o),
(391,682,o),
(391,627,cs),
(391,489,o),
(286,479,o),
(274,474,cs),
(264,470,o),
(260,465,o),
(259,458,cs),
(253,416,o),
(244,321,o),
(244,253,cs),
(244,52,o),
(279,25,o),
(279,-118,cs),
(279,-188,o),
(214,-341,o),
(179,-341,cs)
);
}
);
width = 426;
},
{
anchors = (
{
name = bottom;
pos = (237,-300);
}
);
layerId = m002;
shapes = (
{
closed = 1;
nodes = (
(153,-341,o),
(126,-263,o),
(126,-168,cs),
(126,-58,o),
(211,286,o),
(211,419,cs),
(211,434,o),
(202,446,o),
(188,446,cs),
(61,446,o),
(20,489,o),
(20,596,cs),
(20,661,o),
(50,692,o),
(69,692,cs),
(109,692,o),
(117,630,o),
(257,630,cs),
(375,630,o),
(425,707,o),
(448,707,cs),
(467,707,o),
(475,687,o),
(475,627,cs),
(475,489,o),
(406,465,o),
(347,457,cs),
(337,456,o),
(332,448,o),
(331,441,cs),
(325,399,o),
(315,321,o),
(315,253,cs),
(315,52,o),
(355,15,o),
(355,-128,cs),
(355,-197,o),
(262,-341,o),
(220,-341,cs)
);
}
);
width = 510;
}
);
unicode = 1509;
},
{
color = 5;
glyphname = "tsadi-hb";
kernLeft = "tsadi-hb";
kernRight = "tsadi-hb";
layers = (
{
anchors = (
{
name = bottom;
pos = (196,0);
},
{
name = center;
pos = (136,320);
}
);
layerId = m01;
shapes = (
{
closed = 1;
nodes = (
(34,-36,o),
(29,-23,o),
(29,24,cs),
(29,106,o),
(40,140,o),
(75,148,cs),
(179,172,o),
(282,198,o),
(282,323,cs),
(282,419,o),
(226,454,o),
(117,471,cs),
(78,477,o),
(62,506,o),
(62,562,cs),
(62,631,o),
(106,633,o),
(117,660,cs),
(141,718,o),
(209,830,o),
(266,830,cs),
(298,830,o),
(341,817,o),
(341,780,cs),
(341,725,o),
(222,684,o),
(180,660,cs),
(159,648,o),
(154,639,o),
(154,632,cs),
(154,625,o),
(161,623,o),
(176,622,cs),
(303,614,o),
(337,487,o),
(337,344,cs),
(337,155,o),
(247,-36,o),
(53,-36,cs)
);
}
);
width = 387;
},
{
anchors = (
{
name = bottom;
pos = (196,0);
},
{
name = center;
pos = (196,320);
}
);
layerId = m002;
shapes = (
{
closed = 1;
nodes = (
(35,-36,o),
(29,-13,o),
(29,24,cs),
(29,116,o),
(48,180,o),
(95,186,cs),
(197,199,o),
(322,218,o),
(322,323,cs),
(322,405,o),
(274,430,o),
(115,455,cs),
(76,461,o),
(62,486,o),
(62,562,cs),
(62,625,o),
(116,630,o),
(131,660,cs),
(181,759,o),
(245,830,o),
(356,830,cs),
(391,830,o),
(425,811,o),
(425,772,cs),
(425,705,o),
(369,687,o),
(280,670,cs),
(247,664,o),
(229,650,o),
(229,638,cs),
(229,628,o),
(247,622,o),
(273,616,cs),
(383,591,o),
(422,468,o),
(422,344,cs),
(422,155,o),
(337,-36,o),
(63,-36,cs)
);
}
);
width = 471;
}
);
unicode = 1510;
},
{
color = 5;
glyphname = "qof-hb";
kernLeft = "qof-hb";
kernRight = "qof-hb";
layers = (
{
anchors = (
{
name = bottom;
pos = (386,0);
},
{
name = center;
pos = (311,290);
}
);
layerId = m01;
shapes = (
{
closed = 1;
nodes = (
(146,-346,o),
(199,-290,o),
(199,-218,cs),
(199,-73,o),
(153,88,o),
(153,198,cs),
(153,305,o),
(166,336,o),
(166,358,cs),
(166,375,o),
(156,381,o),
(138,381,cs),
(118,381,o),
(102,351,o),
(77,259,cs),
(66,219,o),
(61,155,o),
(61,-276,cs),
(61,-327,o),
(66,-346,o),
(94,-346,cs)
);
},
{
closed = 1;
nodes = (
(474,16,o),
(529,209,o),
(529,343,cs),
(529,443,o),
(516,632,o),
(336,632,cs),
(301,632,o),
(254,627,o),
(221,627,cs),
(190,627,o),
(140,630,o),
(130,659,cs),
(124,677,o),
(121,686,o),
(112,686,cs),
(101,686,o),
(85,680,o),
(78,670,cs),
(72,662,o),
(60,600,o),
(60,540,cs),
(60,470,o),
(98,455,o),
(166,455,cs),
(222,455,o),
(269,463,o),
(319,463,cs),
(428,463,o),
(473,409,o),
(473,313,cs),
(473,221,o),
(405,141,o),
(366,118,cs),
(318,90,o),
(303,78,o),
(303,51,cs),
(303,36,o),
(317,16,o),
(342,16,cs)
);
}
);
width = 580;
},
{
anchors = (
{
name = bottom;
pos = (429,0);
},
{
name = center;
pos = (354,300);
}
);
layerId = m002;
shapes = (
{
closed = 1;
nodes = (
(169,-346,o),
(251,-280,o),
(251,-208,cs),
(251,-23,o),
(196,138,o),
(196,198,cs),
(196,295,o),
(208,328,o),
(208,361,cs),
(208,382,o),
(188,394,o),
(154,394,cs),
(128,394,o),
(113,372,o),
(89,283,cs),
(78,243,o),
(64,155,o),
(64,-276,cs),
(64,-327,o),
(89,-346,o),
(117,-346,cs)
);
},
{
closed = 1;
nodes = (
(554,12,o),
(613,211,o),
(613,343,cs),
(613,503,o),
(579,654,o),
(379,654,cs),
(324,654,o),
(267,642,o),
(234,642,cs),
(203,642,o),
(184,650,o),
(168,682,cs),
(159,700,o),
(144,707,o),
(134,707,cs),
(103,707,o),
(94,697,o),
(84,682,cs),
(71,662,o),
(60,610,o),
(60,540,cs),
(60,460,o),
(101,433,o),
(209,433,cs),
(265,433,o),
(322,443,o),
(372,443,cs),
(461,443,o),
(516,409,o),
(516,313,cs),
(516,241,o),
(481,187,o),
(413,158,cs),
(339,127,o),
(312,104,o),
(312,67,cs),
(312,32,o),
(338,12,o),
(393,12,cs)
);
}
);
width = 664;
}
);
unicode = 1511;
},
{
color = 5;
glyphname = "resh-hb";
kernLeft = "resh-hb";
kernRight = "resh-hb";
layers = (
{
anchors = (
{
name = bottom;
pos = (256,0);
},
{
name = center;
pos = (270,329);
}
);
layerId = m01;
shapes = (
{
closed = 1;
nodes = (
(243,-25,o),
(231,-2,o),
(231,19,cs),
(231,51,o),
(283,94,o),
(305,118,cs),
(349,169,o),
(397,243,o),
(397,333,cs),
(397,439,o),
(336,471,o),
(230,471,cs),
(197,471,o),
(160,466,o),
(128,466,cs),
(27,466,o),
(21,515,o),
(21,576,cs),
(21,605,o),
(29,676,o),
(35,686,cs),
(39,693,o),
(57,697,o),
(69,697,cs),
(77,697,o),
(81,688,o),
(87,667,cs),
(92,650,o),
(103,634,o),
(175,634,cs),
(202,634,o),
(229,637,o),
(255,637,cs),
(430,637,o),
(454,457,o),
(454,340,cs),
(454,218,o),
(396,-25,o),
(279,-25,cs)
);
}
);
width = 501;
},
{
anchors = (
{
name = bottom;
pos = (256,0);
},
{
name = center;
pos = (293,318);
}
);
layerId = m002;
shapes = (
{
closed = 1;
nodes = (
(269,-25,o),
(249,18,o),
(249,39,cs),
(249,71,o),
(276,94,o),
(331,138,cs),
(380,177,o),
(438,266,o),
(438,333,cs),
(438,439,o),
(368,450,o),
(262,450,cs),
(229,450,o),
(192,446,o),
(160,446,cs),
(49,446,o),
(21,476,o),
(21,576,cs),
(21,635,o),
(28,675,o),
(40,686,cs),
(58,702,o),
(77,704,o),
(94,704,cs),
(109,704,o),
(115,696,o),
(122,680,cs),
(129,663,o),
(138,654,o),
(217,654,cs),
(244,654,o),
(291,660,o),
(317,660,cs),
(492,660,o),
(538,497,o),
(538,340,cs),
(538,138,o),
(448,-25,o),
(321,-25,cs)
);
}
);
width = 585;
}
);
unicode = 1512;
},
{
color = 5;
glyphname = "shin-hb";
kernLeft = "shin-hb";
kernRight = "shin-hb";
layers = (
{
anchors = (
{
name = bottom;
pos = (333,0);
},
{
name = bottomleft;
pos = (44,0);
},
{
name = center;
pos = (310,327);
},
{
name = top;
pos = (319,685);
},
{
name = topleft;
pos = (140,615);
},
{
name = topright;
pos = (501,629);
}
);
layerId = m01;
shapes = (
{
closed = 1;
nodes = (
(86,-89,o),
(79,-82,o),
(79,-66,cs),
(79,-13,o),
(103,241,o),
(103,454,cs),
(103,466,o),
(97,474,o),
(89,476,cs),
(71,480,o),
(47,489,o),
(47,505,cs),
(47,539,o),
(107,674,o),
(121,690,cs),
(128,698,o),
(141,702,o),
(159,702,cs),
(173,702,o),
(177,678,o),
(186,662,cs),
(197,641,o),
(218,635,o),
(328,635,cs),
(386,635,o),
(450,640,o),
(464,674,cs),
(473,695,o),
(488,702,o),
(509,702,cs),
(518,702,o),
(524,695,o),
(524,679,cs),
(524,593,o),
(486,464,o),
(352,464,cs),
(316,464,o),
(250,474,o),
(214,474,cs),
(179,474,o),
(169,470,o),
(169,455,cs),
(169,381,o),
(162,210,o),
(162,191,cs),
(162,169,o),
(183,160,o),
(300,160,cs),
(399,160,o),
(447,202,o),
(468,327,cs),
(471,345,o),
(494,355,o),
(509,355,cs),
(517,355,o),
(524,348,o),
(524,337,cs),
(524,178,o),
(492,-7,o),
(313,-7,cs),
(290,-7,o),
(223,3,o),
(198,3,cs),
(148,3,o),
(163,-46,o),
(136,-77,cs),
(127,-88,o),
(116,-89,o),
(102,-89,cs)
);
}
);
width = 580;
},
{
anchors = (
{
name = bottom;
pos = (375,0);
},
{
name = bottomleft;
pos = (86,0);
},
{
name = center;
pos = (342,327);
},
{
name = top;
pos = (361,685);
},
{
name = topleft;
pos = (162,625);
},
{
name = topright;
pos = (573,649);
}
);
layerId = m002;
shapes = (
{
closed = 1;
nodes = (
(85,-89,o),
(75,-82,o),
(75,-60,cs),
(75,-1,o),
(105,245,o),
(105,428,cs),
(105,440,o),
(98,448,o),
(91,450,cs),
(62,460,o),
(47,473,o),
(47,499,cs),
(47,533,o),
(105,659,o),
(125,687,cs),
(137,704,o),
(170,706,o),
(186,706,cs),
(199,706,o),
(206,697,o),
(216,666,cs),
(223,643,o),
(242,638,o),
(370,638,cs),
(488,638,o),
(496,662,o),
(515,683,cs),
(529,699,o),
(568,702,o),
(585,702,cs),
(601,702,o),
(608,695,o),
(608,679,cs),
(608,543,o),
(539,447,o),
(375,447,cs),
(329,447,o),
(292,454,o),
(256,454,cs),
(221,454,o),
(211,450,o),
(211,435,cs),
(211,361,o),
(204,251,o),
(204,231,cs),
(204,210,o),
(217,201,o),
(332,201,cs),
(431,201,o),
(483,232,o),
(509,361,cs),
(515,391,o),
(566,397,o),
(581,397,cs),
(599,397,o),
(606,387,o),
(606,374,cs),
(606,185,o),
(558,-7,o),
(387,-7,cs),
(312,-7,o),
(265,3,o),
(240,3,cs),
(190,3,o),
(205,-46,o),
(178,-77,cs),
(169,-88,o),
(125,-89,o),
(111,-89,cs)
);
}
);
width = 664;
}
);
unicode = 1513;
},
{
color = 5;
glyphname = "tav-hb";
kernLeft = "tav-hb";
kernRight = "tav-hb";
layers = (
{
anchors = (
{
name = bottom;
pos = (285,0);
},
{
name = center;
pos = (316,330);
}
);
layerId = m01;
shapes = (
{
closed = 1;
nodes = (
(37,-27,o),
(34,1,o),
(34,88,cs),
(34,106,o),
(38,125,o),
(74,143,cs),
(90,151,o),
(97,157,o),
(97,168,cs),
(94,256,o),
(83,287,o),
(83,325,cs),
(83,398,o),
(136,447,o),
(136,464,cs),
(136,478,o),
(78,483,o),
(78,554,cs),
(78,619,o),
(87,659,o),
(95,675,cs),
(99,684,o),
(121,693,o),
(131,693,cs),
(144,693,o),
(147,686,o),
(147,669,cs),
(147,633,o),
(189,627,o),
(235,627,cs),
(255,627,o),
(301,630,o),
(341,630,cs),
(496,630,o),
(533,472,o),
(533,347,cs),
(533,223,o),
(471,23,o),
(359,23,cs),
(327,23,o),
(311,36,o),
(311,71,cs),
(311,88,o),
(320,103,o),
(342,114,cs),
(464,175,o),
(473,255,o),
(473,330,cs),
(473,450,o),
(385,457,o),
(238,457,cs),
(199,457,o),
(158,392,o),
(158,343,cs),
(158,280,o),
(222,139,o),
(221,82,cs),
(221,-19,o),
(162,-27,o),
(76,-27,cs)
);
}
);
width = 580;
},
{
anchors = (
{
name = bottom;
pos = (327,0);
},
{
name = center;
pos = (368,300);
}
);
layerId = m002;
shapes = (
{
closed = 1;
nodes = (
(50,-27,o),
(34,1,o),
(34,88,cs),
(34,138,o),
(45,156,o),
(73,170,cs),
(89,178,o),
(96,188,o),
(96,199,cs),
(96,249,o),
(82,297,o),
(82,335,cs),
(82,411,o),
(127,436,o),
(127,448,cs),
(127,466,o),
(78,473,o),
(78,542,cs),
(78,617,o),
(86,660,o),
(102,690,cs),
(110,705,o),
(137,707,o),
(163,707,cs),
(174,707,o),
(184,702,o),
(187,686,cs),
(192,657,o),
(231,646,o),
(277,646,cs),
(297,646,o),
(343,649,o),
(383,649,cs),
(538,649,o),
(617,562,o),
(617,347,cs),
(617,223,o),
(554,0,o),
(420,0,cs),
(354,0,o),
(335,36,o),
(335,80,cs),
(335,98,o),
(339,115,o),
(364,124,cs),
(501,173,o),
(515,255,o),
(515,330,cs),
(515,424,o),
(466,441,o),
(291,441,cs),
(251,441,o),
(210,392,o),
(210,353,cs),
(210,280,o),
(279,165,o),
(279,98,cs),
(279,-14,o),
(191,-27,o),
(97,-27,cs)
);
}
);
width = 664;
}
);
unicode = 1514;
},
{
color = 4;
glyphname = "yodhiriq-hb";
kernLeft = "yod-hb";
kernRight = "yod-hb";
layers = (
{
layerId = m01;
shapes = (
{
ref = "yod-hb";
},
{
alignment = -1;
pos = (132,-159);
ref = "dagesh-hb";
}
);
width = 270;
},
{
associatedMasterId = m01;
layerId = "143AD760-3ED5-4471-B105-A28000F49672";
name = "May 13, 21, 11:45";
shapes = (
{
closed = 1;
nodes = (
(97.3,688.1,l),
(98,687.4,l)
);
},
{
closed = 1;
nodes = (
(97.3,687.4,l),
(96.6,682.5,o),
(95.2,677.6,o),
(95.9,672.7,cs),
(97.3,664.3,o),
(100.1,651.7,o),
(105,644.7,cs),
(126.7,611.8,o),
(175,604.1,o),
(207.2,586.6,cs),
(231,573.3,o),
(251.3,551.6,o),
(256.2,524.3,cs),
(258.3,511,o),
(257.6,497.7,o),
(256.9,484.4,cs),
(252,412.3,o),
(224,343,o),
(179.2,287,cs),
(169.4,274.4,o),
(158.9,262.5,o),
(147.7,252,cs),
(140.7,245,o),
(133.7,238.7,o),
(123.2,242.9,cs),
(118.3,245,o),
(112.7,252.7,o),
(109.2,256.9,cs),
(105,260.4,o),
(98.7,265.3,o),
(97.3,270.2,cs),
(95.9,275.1,o),
(102.2,279.3,o),
(105,282.1,cs),
(113.4,290.5,o),
(121.8,300.3,o),
(130.2,310.1,cs),
(153.3,338.8,o),
(185.5,383.6,o),
(169.4,424.2,cs),
(165.2,434,o),
(144.2,441,o),
(135.1,445.2,cs),
(105.7,457.8,o),
(72.8,467.6,o),
(47.6,488.6,cs),
(2.1,526.4,o),
(21.7,598.5,o),
(39.9,645.4,cs),
(44.1,657.3,o),
(51.1,669.2,o),
(54.6,681.8,c)
);
},
{
closed = 1;
nodes = (
(98.7,215.6,o),
(123.9,163.1,o),
(89.6,139.3,cs),
(84.7,135.8,o),
(78.4,133.7,o),
(72.8,133,cs),
(25.9,124.6,o),
(11.9,200.2,o),
(59.5,208.6,cs)
);
}
);
width = 270;
},
{
layerId = m002;
shapes = (
{
ref = "yod-hb";
},
{
alignment = -1;
pos = (51,-149);
ref = "dagesh-hb";
}
);
width = 354;
}
);
unicode = 64285;
},
{
color = 5;
glyphname = zero;
layers = (
{
layerId = m01;
shapes = (
{
closed = 1;
nodes = (
(377,-10,o),
(467,135,o),
(467,330,cs),
(467,540,o),
(388,670,o),
(250,670,cs),
(122,670,o),
(33,525,o),
(33,330,cs),
(33,120,o),
(112,-10,o),
(250,-10,cs)
);
},
{
closed = 1;
nodes = (
(174,37,o),
(125,161,o),
(125,363,cs),
(125,513,o),
(165,624,o),
(233,624,cs),
(327,624,o),
(375,500,o),
(375,299,cs),
(375,148,o),
(337,37,o),
(271,37,cs)
);
}
);
width = 500;
},
{
layerId = m002;
shapes = (
{
closed = 1;
nodes = (
(458,-10,o),
(569,135,o),
(569,330,cs),
(569,540,o),
(469,670,o),
(300,670,cs),
(142,670,o),
(32,525,o),
(32,330,cs),
(32,120,o),
(132,-10,o),
(300,-10,cs)
);
},
{
closed = 1;
nodes = (
(246,40,o),
(229,201,o),
(229,363,cs),
(229,525,o),
(245,620,o),
(289,620,cs),
(356,620,o),
(372,460,o),
(372,299,cs),
(372,147,o),
(356,40,o),
(314,40,cs)
);
}
);
width = 600;
}
);
unicode = 48;
},
{
color = 5;
glyphname = one;
layers = (
{
layerId = m01;
shapes = (
{
closed = 1;
nodes = (
(408,0,l),
(408,16,l),
(328,56,l),
(328,660,l),
(308,660,l),
(68,510,l),
(68,475,l),
(243,563,l),
(243,56,l),
(153,16,l),
(153,0,l)
);
}
);
width = 500;
},
{
layerId = m002;
shapes = (
{
closed = 1;
nodes = (
(517,0,l),
(517,16,l),
(428,48,l),
(428,660,l),
(338,660,l),
(83,510,l),
(83,466,l),
(243,533,l),
(243,48,l),
(144,16,l),
(144,0,l)
);
}
);
width = 600;
}
);
unicode = 49;
},
{
color = 5;
glyphname = two;
layers = (
{
layerId = m01;
shapes = (
{
closed = 1;
nodes = (
(452,0,l),
(462,179,l),
(446,179,l),
(396,82,l),
(128,82,l),
(137,55,l),
(388,342,o),
(447,379,o),
(447,493,cs),
(447,590,o),
(372,670,o),
(271,670,cs),
(193,670,o),
(156,643,o),
(104,606,cs),
(62,576,o),
(41,538,o),
(41,503,cs),
(41,466,o),
(54,461,o),
(81,461,cs),
(127,461,l),
(132,468,l),
(132,513,ls),
(132,586,o),
(171,623,o),
(240,623,cs),
(301,623,o),
(350,573,o),
(350,491,cs),
(350,390,o),
(342,358,o),
(52,25,c),
(52,0,l)
);
}
);
width = 500;
},
{
layerId = m002;
shapes = (
{
closed = 1;
nodes = (
(552,0,l),
(562,233,l),
(546,233,l),
(483,132,l),
(174,132,l),
(120,70,l),
(484,326,o),
(533,386,o),
(533,493,cs),
(533,593,o),
(445,670,o),
(312,670,cs),
(226,670,o),
(181,649,o),
(128,611,cs),
(64,565,o),
(41,525,o),
(41,483,cs),
(41,446,o),
(54,441,o),
(81,441,cs),
(164,441,l),
(172,451,l),
(172,500,ls),
(172,574,o),
(201,618,o),
(261,618,cs),
(320,618,o),
(336,568,o),
(336,516,cs),
(336,341,o),
(309,311,o),
(52,45,c),
(52,0,l)
);
}
);
width = 600;
}
);
unicode = 50;
},
{
color = 5;
glyphname = three;
layers = (
{
layerId = m01;
shapes = (
{
closed = 1;
nodes = (
(371,-10,o),
(477,77,o),
(477,175,cs),
(477,287,o),
(394,363,o),
(226,363,c),
(218,348,l),
(352,348,o),
(442,426,o),
(442,512,cs),
(442,601,o),
(365,670,o),
(262,670,cs),
(206,670,o),
(170,656,o),
(125,628,cs),
(76,599,o),
(53,561,o),
(53,527,cs),
(53,496,o),
(66,492,o),
(92,492,cs),
(134,492,l),
(142,500,l),
(142,536,ls),
(142,589,o),
(182,625,o),
(240,625,c),
(307,625,o),
(345,589,o),
(345,505,c),
(345,416,o),
(276,363,o),
(181,363,cs),
(154,363,l),
(154,319,l),
(213,319,ls),
(338,319,o),
(379,262,o),
(379,172,cs),
(379,91,o),
(330,35,o),
(246,35,cs),
(160,35,o),
(122,69,o),
(122,112,cs),
(122,145,l),
(115,152,l),
(69,152,ls),
(45,152,o),
(33,148,o),
(33,120,cs),
(33,92,o),
(52,64,o),
(89,36,cs),
(131,4,o),
(180,-10,o),
(244,-10,c)
);
}
);
width = 500;
},
{
layerId = m002;
shapes = (
{
closed = 1;
nodes = (
(427,-10,o),
(560,65,o),
(560,187,cs),
(560,318,o),
(435,365,o),
(242,365,c),
(242,355,l),
(382,355,o),
(525,404,o),
(525,514,cs),
(525,618,o),
(428,670,o),
(303,670,cs),
(223,670,o),
(178,652,o),
(114,609,cs),
(75,583,o),
(51,553,o),
(51,513,cs),
(51,476,o),
(64,471,o),
(91,471,cs),
(174,471,l),
(182,481,l),
(182,530,ls),
(182,589.543,o),
(217,621,o),
(257,621,cs),
(303,621,o),
(328,586,o),
(328,512,cs),
(328,437,o),
(297,368,o),
(227,368,cs),
(162,368,l),
(162,318,l),
(211,318,ls),
(319,318,o),
(362,269,o),
(362,172,cs),
(362,96,o),
(330.051,40,o),
(261,40,cs),
(211.645,40,o),
(171,61.603,o),
(171,123,cs),
(171,159,l),
(160,172,l),
(80,172,ls),
(53,172,o),
(40,167,o),
(40,130,cs),
(40,88,o),
(72,57,o),
(110,34,cs),
(160,4,o),
(227,-10,o),
(282,-10,cs)
);
}
);
width = 600;
}
);
unicode = 51;
},
{
color = 5;
glyphname = four;
layers = (
{
layerId = m01;
shapes = (
{
closed = 1;
nodes = (
(448,0,l),
(448,16,l),
(368,56,l),
(368,660,l),
(348,660,l),
(8,213,l),
(8,193,l),
(487,193,l),
(487,260,l),
(71,260,l),
(71,217,l),
(317,551,l),
(283,551,l),
(283,56,l),
(193,16,l),
(193,0,l)
);
}
);
width = 500;
},
{
layerId = m002;
shapes = (
{
closed = 1;
nodes = (
(559,0,l),
(559,16,l),
(470,48,l),
(470,660,l),
(380,660,l),
(20,199,l),
(20,163,l),
(589,163,l),
(589,250,l),
(93,250,l),
(103,227,l),
(338,536,l),
(285,536,l),
(285,48,l),
(186,16,l),
(186,0,l)
);
}
);
width = 600;
}
);
unicode = 52;
},
{
color = 5;
glyphname = five;
layers = (
{
layerId = m01;
shapes = (
{
closed = 1;
nodes = (
(345,-10,o),
(454,82,o),
(454,233,cs),
(454,330,o),
(389,433,o),
(193,433,cs),
(173,433,o),
(152,432,o),
(128,430,c),
(134,402,l),
(134,626,l),
(119,583,l),
(405,583,l),
(405,660,l),
(86,660,l),
(86,345,l),
(123,351,o),
(155,354,o),
(183,354,cs),
(337,354,o),
(381,275,o),
(381,195,cs),
(381,99.075,o),
(317,39,o),
(235,39,cs),
(181.5,39,o),
(147,62,o),
(128,93,cs),
(118,110,l),
(108,110,l),
(73,83,ls),
(61,74,o),
(55,65,o),
(55,56,cs),
(55,50,o),
(58,43,o),
(63,36,cs),
(83.314,6.544,o),
(130,-10,o),
(194,-10,cs)
);
}
);
width = 500;
},
{
layerId = m002;
shapes = (
{
closed = 1;
nodes = (
(410.752,-10,o),
(528,94.937,o),
(528,218,cs),
(528,355.829,o),
(424,440,o),
(238,440,cs),
(187,440,o),
(157,437,o),
(133,435,c),
(148,407,l),
(148,579,l),
(133,543,l),
(471,543,l),
(471,660,l),
(91,660,l),
(91,291,l),
(127,297,o),
(149,300,o),
(185,300,cs),
(295,300,o),
(356,261.32,o),
(356,157,cs),
(356,85.488,o),
(322,34,o),
(269,34,cs),
(217.485,34,o),
(194.843,65.853,o),
(169,124,cs),
(157,151,l),
(141,151,l),
(78,103,ls),
(66,94,o),
(60,85,o),
(60,76,cs),
(60,70,o),
(62,64,o),
(68,56,cs),
(102.194,10.082,o),
(166.071,-10,o),
(252,-10,cs)
);
}
);
width = 600;
}
);
unicode = 53;
},
{
color = 5;
glyphname = six;
layers = (
{
layerId = m01;
shapes = (
{
closed = 1;
nodes = (
(400,-10,o),
(471,94,o),
(471,196,cs),
(471,306,o),
(402,388,o),
(295,388,cs),
(191,388,o),
(120,315,o),
(97,217,c),
(107,183,l),
(116,262,o),
(177,321,o),
(256,321,cs),
(337,321,o),
(379,273,o),
(379,174,cs),
(379,104,o),
(338,36,o),
(257,36,cs),
(190,36,o),
(132,94,o),
(132,243,cs),
(132,433,o),
(236,583,o),
(420,641,c),
(420,670,l),
(184,604,o),
(37,444,o),
(37,234,cs),
(37,95,o),
(124,-10,o),
(255,-10,cs)
);
}
);
width = 500;
},
{
layerId = m002;
shapes = (
{
closed = 1;
nodes = (
(476,-10,o),
(567,90,o),
(567,211,cs),
(567,315,o),
(502,398,o),
(387,398,cs),
(285,398,o),
(216,346,o),
(193,248,c),
(203,216,l),
(217.991,277.965,o),
(250.505,319,o),
(299,319,cs),
(353.72,319,o),
(375,253.471,o),
(375,180,cs),
(375,123.597,o),
(361,40,o),
(307,40,cs),
(248,40,o),
(228,126.249,o),
(228,243,cs),
(228,432.894,o),
(308.592,575.877,o),
(491,631,c),
(491,670,l),
(207.16,625.025,o),
(33,474.662,o),
(33,251,cs),
(33,86.705,o),
(140,-10,o),
(301,-10,cs)
);
}
);
width = 600;
}
);
unicode = 54;
},
{
color = 5;
glyphname = seven;
layers = (
{
layerId = m01;
shapes = (
{
closed = 1;
nodes = (
(195,0,l),
(236,208,o),
(368,456,o),
(462,640,c),
(462,660,l),
(52,660,l),
(52,583,l),
(418,583,l),
(409,626,l),
(186,234,o),
(156,172,o),
(83,0,c)
);
}
);
width = 500;
},
{
layerId = m002;
shapes = (
{
closed = 1;
nodes = (
(285,0,l),
(328,204,o),
(432,423,o),
(530,610,c),
(530,660,l),
(60,660,l),
(60,500,l),
(446,500,l),
(495,626,l),
(348,412,o),
(199.314,172.74,o),
(126,0,c)
);
}
);
width = 600;
}
);
unicode = 55;
},
{
color = 5;
glyphname = eight;
layers = (
{
layerId = m01;
shapes = (
{
closed = 1;
nodes = (
(344.447,-10,o),
(459,50,o),
(459,171,cs),
(459,263,o),
(400.518,309.713,o),
(279,377,cs),
(169,438,o),
(146,474,o),
(146,530,cs),
(146,589,o),
(189,624,o),
(243,624,cs),
(311.607,624,o),
(356,582,o),
(356,495,cs),
(356,439,o),
(319.487,403.263,o),
(258,370,c),
(279,340,l),
(379.495,389.243,o),
(443,440,o),
(443,502,cs),
(443,599,o),
(356.547,670,o),
(252,670,cs),
(154,670,o),
(58,591,o),
(58,499,cs),
(58,418,o),
(96,375,o),
(207,312,cs),
(310.466,253.738,o),
(376,222,o),
(376,143,cs),
(376,74,o),
(330.622,33,o),
(256,33,cs),
(182,33,o),
(132,82,o),
(132,168,cs),
(132,227,o),
(143,261,o),
(214,313,c),
(188,336,l),
(70,267,o),
(41,211,o),
(41,145,cs),
(41,51,o),
(140,-10,o),
(252,-10,cs)
);
}
);
width = 500;
},
{
layerId = m002;
shapes = (
{
closed = 1;
nodes = (
(460,-10,o),
(560,85,o),
(560,192,cs),
(560,275,o),
(510,334,o),
(366,404,cs),
(240.498,464.759,o),
(229,500,o),
(229,544,cs),
(229,593,o),
(261,624,o),
(312,624,cs),
(360,624,o),
(399,591,o),
(399,519,cs),
(399,466,o),
(375,420,o),
(343,399,c),
(375,369,l),
(460,403,o),
(529,452,o),
(529,515,cs),
(529,605,o),
(431,670,o),
(313,670,cs),
(176,670,o),
(65,586,o),
(65,482,cs),
(65,395,o),
(97,336,o),
(222,272,cs),
(366,199,o),
(385,181,o),
(385,124,cs),
(385,74,o),
(350,36,o),
(286,36,cs),
(225,36,o),
(177,85.81,o),
(177,159,cs),
(177,220.976,o),
(192.097,265.048,o),
(222,280,c),
(218,326,l),
(72,279,o),
(40,208,o),
(40,150,cs),
(40,52,o),
(148,-10,o),
(292,-10,cs)
);
}
);
width = 600;
}
);
unicode = 56;
},
{
color = 5;
glyphname = nine;
layers = (
{
layerId = m01;
shapes = (
{
closed = 1;
nodes = (
(317,56,o),
(464,216,o),
(464,426,cs),
(464,565,o),
(377,670,o),
(246,670,cs),
(101,670,o),
(30,566,o),
(30,464,cs),
(30,354,o),
(99,272,o),
(206,272,cs),
(310,272,o),
(381,345,o),
(404,443,c),
(394,477,l),
(385,398,o),
(324,339,o),
(245,339,cs),
(164,339,o),
(122,387,o),
(122,486,cs),
(122,556,o),
(163,624,o),
(244,624,cs),
(311,624,o),
(369,566,o),
(369,417,cs),
(369,227,o),
(265,77,o),
(81,19,c),
(81,-10,l)
);
}
);
width = 500;
},
{
layerId = m002;
shapes = (
{
closed = 1;
nodes = (
(393,35,o),
(567,185,o),
(567,409,cs),
(567,573,o),
(460,670,o),
(299,670,cs),
(124,670,o),
(33,570,o),
(33,449,cs),
(33,345,o),
(98,262,o),
(213,262,cs),
(315,262,o),
(384,314,o),
(407,412,c),
(397,444,l),
(382,382,o),
(349,341,o),
(301,341,cs),
(246,341,o),
(225,407,o),
(225,480,cs),
(225,536,o),
(239,620,o),
(293,620,cs),
(352,620,o),
(372,534,o),
(372,417,cs),
(372,227,o),
(291,84,o),
(109,29,c),
(109,-10,l)
);
}
);
width = 600;
}
);
unicode = 57;
},
{
color = 5;
glyphname = zero.zero;
layers = (
{
layerId = m01;
shapes = (
{
closed = 1;
nodes = (
(377,-10,o),
(467,135,o),
(467,330,cs),
(467,540,o),
(388,670,o),
(250,670,cs),
(122,670,o),
(33,525,o),
(33,330,cs),
(33,120,o),
(112,-10,o),
(250,-10,cs)
);
},
{
closed = 1;
nodes = (
(174,37,o),
(125,161,o),
(125,363,cs),
(125,513,o),
(165,624,o),
(233,624,cs),
(327,624,o),
(375,500,o),
(375,299,cs),
(375,148,o),
(337,37,o),
(271,37,cs)
);
},
{
closed = 1;
nodes = (
(85,-10,l),
(467,670,l),
(415,670,l),
(33,-10,l)
);
}
);
width = 500;
},
{
layerId = m002;
shapes = (
{
closed = 1;
nodes = (
(458,-10,o),
(569,135,o),
(569,330,cs),
(569,540,o),
(469,670,o),
(300,670,cs),
(142,670,o),
(32,525,o),
(32,330,cs),
(32,120,o),
(132,-10,o),
(300,-10,cs)
);
},
{
closed = 1;
nodes = (
(246,40,o),
(229,201,o),
(229,363,cs),
(229,481,o),
(237,620,o),
(289,620,cs),
(356,620,o),
(372,460,o),
(372,299,cs),
(372,179,o),
(364,40,o),
(314,40,cs)
);
},
{
closed = 1;
nodes = (
(92,-10,l),
(569,670,l),
(509,670,l),
(32,-10,l)
);
}
);
width = 600;
}
);
},
{
color = 5;
glyphname = fraction;
kernLeft = kern_fraction3;
kernRight = kern_fraction3;
layers = (
{
layerId = m01;
shapes = (
{
closed = 1;
nodes = (
(-166,-10,l),
(299,727,l),
(263,750,l),
(-202,13,l)
);
}
);
width = 97;
},
{
layerId = m002;
shapes = (
{
closed = 1;
nodes = (
(-169,-10,l),
(307,716,l),
(256,750,l),
(-220,24,l)
);
}
);
width = 87;
}
);
unicode = 8260;
},
{
color = 5;
glyphname = zero.sinf;
layers = (
{
layerId = m01;
shapes = (
{
closed = 1;
nodes = (
(255,-10,o),
(315,79,o),
(315,192,cs),
(315,315,o),
(262,395,o),
(173,395,cs),
(90,395,o),
(30,307,o),
(30,193,cs),
(30,71,o),
(84,-10,o),
(173,-10,cs)
);
},
{
closed = 1;
nodes = (
(132,16,o),
(110,103,o),
(110,208,cs),
(110,291,o),
(129,369,o),
(166,369,cs),
(214,369,o),
(235,282,o),
(235,177,cs),
(235,95,o),
(217,16,o),
(179,16,cs)
);
}
);
width = 345;
},
{
layerId = m002;
shapes = (
{
closed = 1;
nodes = (
(290,-10,o),
(362,76,o),
(362,193,cs),
(362,318,o),
(297,395,o),
(195,395,cs),
(101,395,o),
(30,309,o),
(30,193,cs),
(30,67,o),
(95,-10,o),
(195,-10,cs)
);
},
{
closed = 1;
nodes = (
(167,20,o),
(159,120,o),
(159,212,cs),
(159,279,o),
(162,364,o),
(190,364,cs),
(225,364,o),
(232,265,o),
(232,174,cs),
(232,107,o),
(230,20,o),
(203,20,cs)
);
}
);
width = 392;
}
);
},
{
color = 5;
glyphname = one.sinf;
layers = (
{
layerId = m01;
shapes = (
{
closed = 1;
nodes = (
(244,0,l),
(244,15,l),
(195,36,l),
(195,385,l),
(157,385,l),
(15,297,l),
(15,269,l),
(119,323,l),
(119,36,l),
(64,15,l),
(64,0,l)
);
}
);
width = 269;
},
{
layerId = m002;
shapes = (
{
closed = 1;
nodes = (
(284,0,l),
(284,16,l),
(232,38,l),
(232,385,l),
(164,385,l),
(15,298,l),
(15,259,l),
(109,298,l),
(109,38,l),
(51,16,l),
(51,0,l)
);
}
);
width = 309;
}
);
},
{
color = 5;
glyphname = two.sinf;
layers = (
{
layerId = m01;
shapes = (
{
closed = 1;
nodes = (
(290,0,l),
(296,111,l),
(281,111,l),
(254,52,l),
(64,52,l),
(63,32,l),
(252,195,o),
(281,224,o),
(281,289,cs),
(281,351,o),
(237,395,o),
(166,395,cs),
(115,395,o),
(91,381,o),
(64,359,cs),
(34,335,o),
(20,314,o),
(20,286,cs),
(20,267,o),
(27,264,o),
(40,264,cs),
(77,264,l),
(81,269,l),
(81,296,ls),
(81,338,o),
(105,364,o),
(141,364,cs),
(182,364,o),
(201,335,o),
(201,295,cs),
(201,238,o),
(182,196,o),
(27,20,c),
(27,0,l)
);
}
);
width = 316;
},
{
layerId = m002;
shapes = (
{
closed = 1;
nodes = (
(333,0,l),
(339,136,l),
(323,136,l),
(287,77,l),
(82,77,l),
(67,41,l),
(294,181,o),
(322,226,o),
(322,288,cs),
(322,353,o),
(269,395,o),
(190,395,cs),
(126,395,o),
(98,375,o),
(71,357,c),
(33,332,o),
(20,307,o),
(20,283,cs),
(20,261,o),
(28,258,o),
(43,258,cs),
(106,258,l),
(111,264,l),
(111,293,ls),
(111,332,o),
(125,355,o),
(156,355,cs),
(185,355,o),
(193,329,o),
(193,302,cs),
(193,246,o),
(177,182,o),
(26,26,c),
(26,0,l)
);
}
);
width = 359;
}
);
},
{
color = 5;
glyphname = three.sinf;
layers = (
{
layerId = m01;
shapes = (
{
closed = 1;
nodes = (
(238,-10,o),
(300,39,o),
(300,105,cs),
(300,174,o),
(245,210,o),
(136,210,c),
(134,201,l),
(217,206,o),
(280,244,o),
(280,302,cs),
(280,359,o),
(233,395,o),
(163,395,cs),
(121,395,o),
(99,384,o),
(68,364,cs),
(41,346,o),
(29,328,o),
(29,306,cs),
(29,284,o),
(36,281,o),
(50,281,cs),
(85,281,l),
(90,286,l),
(90,310,l),
(90,345,o),
(111,364,o),
(141,364,cs),
(179,364,o),
(199,339,o),
(199,299,cs),
(199,242,o),
(161,211,o),
(105,211,cs),
(90,211,l),
(90,184,l),
(124,184,ls),
(195,184,o),
(219,153,o),
(219,98,cs),
(219,52,o),
(195,20,o),
(147,20,cs),
(108,20,o),
(82,38,o),
(82,72,cs),
(82,86,l),
(77,91,l),
(42,91,ls),
(27,91,o),
(20,89,o),
(20,69,cs),
(20,49,o),
(35,32,o),
(57,17,cs),
(84,-1,o),
(115,-10,o),
(154,-10,cs)
);
}
);
width = 320;
},
{
layerId = m002;
shapes = (
{
closed = 1;
nodes = (
(265,-10,o),
(337,37,o),
(337,105,cs),
(337,178,o),
(272,209,o),
(141,209,c),
(136,205,l),
(232,205,o),
(317,236,o),
(317,304,cs),
(317,362,o),
(261,395,o),
(179,395,cs),
(130,395,o),
(102,385,o),
(63,359,cs),
(40,344,o),
(26,326,o),
(26,303,cs),
(26,281,o),
(34,278,o),
(50,278,cs),
(111,278,l),
(116,284,l),
(116,313,ls),
(116,341,o),
(131,355,o),
(152,355,cs),
(177,355,o),
(188,335,o),
(188,302,cs),
(188,244,o),
(152,215,o),
(101,215,cs),
(91,215,l),
(91,179,l),
(120,179,ls),
(187,179,o),
(208,150,o),
(208,96,cs),
(208,58,o),
(192,30,o),
(155,30,cs),
(127,30,o),
(110,46,o),
(110,74,cs),
(110,89,l),
(103,96,l),
(43,96,ls),
(28,96,o),
(20,94,o),
(20,72,cs),
(20,47,o),
(39,29,o),
(61,16,cs),
(91,-3,o),
(132,-10,o),
(167,-10,cs)
);
}
);
width = 357;
}
);
},
{
color = 5;
glyphname = four.sinf;
layers = (
{
layerId = m01;
shapes = (
{
closed = 1;
nodes = (
(281,0,l),
(281,15,l),
(232,36,l),
(232,385,l),
(194,385,l),
(-10,120,l),
(-10,105,l),
(302,105,l),
(302,144,l),
(23,144,l),
(40,134,l),
(182,323,l),
(156,322,l),
(156,36,l),
(101,15,l),
(101,0,l)
);
}
);
width = 307;
},
{
layerId = m002;
shapes = (
{
closed = 1;
nodes = (
(326,0,l),
(326,16,l),
(274,48,l),
(274,385,l),
(159,385,l),
(-10,116,l),
(-10,95,l),
(344,95,l),
(344,151,l),
(33,151,l),
(49,133,l),
(173,342,l),
(151,342,l),
(151,48,l),
(93,16,l),
(93,0,l)
);
}
);
width = 349;
}
);
},
{
color = 5;
glyphname = five.sinf;
layers = (
{
layerId = m01;
shapes = (
{
closed = 1;
nodes = (
(208,-10,o),
(276,49,o),
(276,125,cs),
(276,195,o),
(226,245,o),
(113,245,cs),
(92,245,o),
(78,244,o),
(64,243,c),
(79,232,l),
(79,364,l),
(67,329,l),
(252,329,l),
(252,385,l),
(49,385,l),
(49,173,l),
(69,176,o),
(88,178,o),
(105,178,cs),
(179,178,o),
(209,145,o),
(209,98,cs),
(209,55,o),
(182,21,o),
(140,21,cs),
(115,21,o),
(98,32,o),
(85,57,cs),
(77,71,l),
(70,71,l),
(41,52,ls),
(34,47,o),
(30,43,o),
(30,36,cs),
(30,33,o),
(32,28,o),
(35,24,cs),
(52,3,o),
(82,-10,o),
(124,-10,cs)
);
}
);
width = 306;
},
{
layerId = m002;
shapes = (
{
closed = 1;
nodes = (
(238,-10,o),
(307,48,o),
(307,127,cs),
(307,205,o),
(242,252,o),
(126,252,cs),
(94,252,o),
(76,251,o),
(61,249,c),
(87,231,l),
(87,365,l),
(73,302,l),
(283,302,l),
(283,385,l),
(48,385,l),
(48,140,l),
(66,143,o),
(85,145,o),
(103,145,cs),
(167,145,o),
(203,128,o),
(203,81,cs),
(203,51,o),
(185,28,o),
(158,28,cs),
(131,28,o),
(120,43,o),
(106,75,cs),
(99,91,l),
(89,91,l),
(41,58,ls),
(34,53,o),
(30,48,o),
(30,42,cs),
(30,39,o),
(32,35,o),
(35,31,cs),
(57,6,o),
(94,-10,o),
(145,-10,cs)
);
}
);
width = 337;
}
);
},
{
color = 5;
glyphname = six.sinf;
layers = (
{
layerId = m01;
shapes = (
{
closed = 1;
nodes = (
(263,-10,o),
(312,53,o),
(312,123,cs),
(312,185,o),
(271,234,o),
(203,234,cs),
(142,234,o),
(100,196,o),
(89,138,c),
(97,122,l),
(104,164,o),
(133,195,o),
(171,195,cs),
(212,195,o),
(232,161,o),
(232,109,cs),
(232,65,o),
(214,17,o),
(175,17,cs),
(136,17,o),
(111,61,o),
(111,144,cs),
(111,255,o),
(167,336,o),
(276,369,c),
(276,395,l),
(123,365,o),
(30,270,o),
(30,142,cs),
(30,50,o),
(89,-10,o),
(173,-10,cs)
);
}
);
width = 342;
},
{
layerId = m002;
shapes = (
{
closed = 1;
nodes = (
(301,-10,o),
(357,53,o),
(357,128,cs),
(357,190,o),
(317,241,o),
(245,241,cs),
(185,241,o),
(145,210,o),
(132,153,c),
(143,128,l),
(152,168,o),
(168,188,o),
(192,188,cs),
(220,188,o),
(230,151,o),
(230,110,cs),
(230,77,o),
(224,27,o),
(198,27,cs),
(170,27,o),
(159,70,o),
(159,147,cs),
(159,252.493,o),
(206.959,328.988,o),
(315,361,c),
(315,395,l),
(135.99,373.999,o),
(30,280.535,o),
(30,149,cs),
(30,49,o),
(96,-10,o),
(195,-10,cs)
);
}
);
width = 387;
}
);
},
{
color = 5;
glyphname = seven.sinf;
layers = (
{
layerId = m01;
shapes = (
{
closed = 1;
nodes = (
(120,0,l),
(154,145,o),
(207,261,o),
(262,365,c),
(262,385,l),
(5,385,l),
(5,317,l),
(229,317,l),
(237,364,l),
(132,190,o),
(83,100,o),
(42,0,c)
);
}
);
width = 262;
},
{
layerId = m002;
shapes = (
{
closed = 1;
nodes = (
(160,0,l),
(188,126,o),
(234,248,o),
(290,356,c),
(290,385,l),
(5,385,l),
(5,277,l),
(241,277,l),
(268,365,l),
(178,243,o),
(86,101,o),
(44,0,c)
);
}
);
width = 290;
}
);
},
{
color = 5;
glyphname = eight.sinf;
layers = (
{
layerId = m01;
shapes = (
{
closed = 1;
nodes = (
(229,-10,o),
(289,34,o),
(289,101,cs),
(289,155,o),
(261,185,o),
(188,227,cs),
(114,267,o),
(102,283,o),
(102,312,cs),
(102,342,o),
(126,364,o),
(160,364,cs),
(194,364,o),
(224,342,o),
(224,299,cs),
(224,266,o),
(201,240,o),
(175,223,c),
(193,210,l),
(245,233,o),
(277,262,o),
(277,303,cs),
(277,358,o),
(228,395,o),
(161,395,cs),
(90,395,o),
(32,349,o),
(32,287,cs),
(32,241,o),
(54,214,o),
(121,176,cs),
(193,136,o),
(218,119,o),
(218,77,cs),
(218,43,o),
(189,21,o),
(152,21,cs),
(108,21,o),
(75,47,o),
(75,93,cs),
(75,132,o),
(92,156,o),
(124,179,c),
(118,199,l),
(40,164,o),
(20,124,o),
(20,84,cs),
(20,28,o),
(77,-10,o),
(152,-10,cs)
);
}
);
width = 309;
},
{
layerId = m002;
shapes = (
{
closed = 1;
nodes = (
(270,-10,o),
(331,43,o),
(331,112,cs),
(331,165,o),
(308,195,o),
(231,238,cs),
(152,282,o),
(143,293,o),
(143,317,cs),
(143,339,o),
(160,356,o),
(188,356,cs),
(216,356,o),
(239,339,o),
(239,301,cs),
(239,271,o),
(224,246,o),
(210,233,c),
(229,216,l),
(282,234,o),
(318,259,o),
(318,302,cs),
(318,359,o),
(264,395,o),
(187,395,cs),
(101,395,o),
(31,346,o),
(31,273,cs),
(31,228,o),
(52,199,o),
(121,160,cs),
(206,112,o),
(218,101,o),
(218,72,cs),
(218,47,o),
(197,30,o),
(166,30,cs),
(124,30,o),
(101,56,o),
(101,96,cs),
(101,127,o),
(111,151,o),
(123,166,c),
(123,193,l),
(44,171,o),
(20,122,o),
(20,88,cs),
(20,28,o),
(80,-10,o),
(168,-10,cs)
);
}
);
width = 351;
}
);
},
{
color = 5;
glyphname = nine.sinf;
layers = (
{
layerId = m01;
shapes = (
{
closed = 1;
nodes = (
(217,23,o),
(312,114,o),
(312,242,cs),
(312,335,o),
(253,395,o),
(169,395,cs),
(78,395,o),
(30,332,o),
(30,263,cs),
(30,201,o),
(71,153,o),
(138,153,cs),
(199,153,o),
(242,192,o),
(253,249,c),
(245,266,l),
(238,225,o),
(209,192,o),
(170,192,cs),
(130,192,o),
(110,225,o),
(110,276,cs),
(110,320,o),
(128,367,o),
(167,367,cs),
(205,367,o),
(230,319,o),
(230,242,cs),
(230,130,o),
(174,47,o),
(65,13,c),
(65,-10,l)
);
}
);
width = 342;
},
{
layerId = m002;
shapes = (
{
closed = 1;
nodes = (
(248.019,19.003,o),
(357,104.465,o),
(357,236,cs),
(357,336,o),
(291,395,o),
(192,395,cs),
(86,395,o),
(30,333,o),
(30,260,cs),
(30,199,o),
(70,150,o),
(142,150,cs),
(202,150,o),
(242,181,o),
(255,238,c),
(244,263,l),
(236,228,o),
(219,203,o),
(195,203,cs),
(167,203,o),
(157,238,o),
(157,278,cs),
(157,310,o),
(163,358,o),
(189,358,cs),
(217,358,o),
(228,307,o),
(228,241,cs),
(228,132.509,o),
(180.04,52.012,o),
(72,20,c),
(72,-10,l)
);
}
);
width = 387;
}
);
},
